<svg version="1.1" id="Layer_1" xmlns="http://www.w3.org/2000/svg" xmlns:xlink="http://www.w3.org/1999/xlink" x="0px" y="0px"
	 width="100%" viewBox="0 0 1024 442" enable-background="new 0 0 1024 442" xml:space="preserve">
<path fill="#FFFFFF" opacity="1.000000" stroke="none" 
	d="
M634.000000,443.000000 
	C422.666656,443.000000 211.833328,443.000000 1.000000,443.000000 
	C1.000000,295.666656 1.000000,148.333328 1.000000,1.000000 
	C342.333344,1.000000 683.666687,1.000000 1025.000000,1.000000 
	C1025.000000,148.333328 1025.000000,295.666656 1025.000000,443.000000 
	C894.833313,443.000000 764.666687,443.000000 634.000000,443.000000 
M900.259155,195.922745 
	C892.807922,198.771454 885.356628,201.620163 877.126587,204.655533 
	C864.405457,208.380615 851.684387,212.105682 838.129517,215.842636 
	C828.662659,217.881317 819.210144,219.991745 809.713379,221.880142 
	C808.314270,222.158340 806.705933,221.384125 805.916077,221.090942 
	C808.042419,220.310440 810.168823,219.529953 813.007263,218.438644 
	C816.337708,217.172195 819.668213,215.905762 823.698792,214.547729 
	C827.188904,213.190781 830.678955,211.833832 834.924072,210.301941 
	C845.611816,205.432587 856.299561,200.563232 867.613403,195.508072 
	C869.272156,194.429016 870.973755,193.409943 872.582581,192.260971 
	C881.631470,185.798935 889.020630,178.040451 892.583679,166.429794 
	C893.743774,162.153152 894.903809,157.876495 896.378235,152.440857 
	C891.512878,154.992737 887.751404,156.965637 883.264587,159.028534 
	C871.518005,164.373917 859.771484,169.719315 847.290222,175.109940 
	C835.868164,179.759201 824.446045,184.408463 812.272827,189.086777 
	C809.847412,189.778152 807.421936,190.469528 804.533997,190.946213 
	C804.410278,190.651596 804.286499,190.356964 804.795898,189.987778 
	C805.897278,189.406204 806.998596,188.824615 808.807678,188.096359 
	C819.871887,182.059006 830.936096,176.021652 842.704651,169.901367 
	C846.658997,167.774445 850.690063,165.777115 854.550171,163.491165 
	C860.808777,159.784821 866.955200,155.889130 873.839172,151.985703 
	C896.494873,139.326599 915.644104,105.405823 911.352234,86.372612 
	C895.997864,96.773659 880.490662,107.344055 864.906067,117.799072 
	C859.552979,121.390221 854.006409,124.693001 847.825134,128.194290 
	C836.066833,134.716202 824.308533,141.238098 811.875916,147.892715 
	C801.567871,153.540390 791.259827,159.188049 780.231995,164.908936 
	C769.623047,170.535370 760.261902,177.598679 753.209961,188.274902 
	C752.416199,189.970352 751.622437,191.665802 750.199219,193.776016 
	C749.229126,196.186295 748.259094,198.596573 746.998535,201.612793 
	C746.950623,202.055588 746.902649,202.498367 746.455566,203.346802 
	C746.364258,203.897324 746.272949,204.447845 745.984253,205.487915 
	C746.004211,205.662720 746.024231,205.837524 745.716309,206.762466 
	C745.426270,208.883820 744.975098,210.997421 744.872925,213.127792 
	C744.302856,225.008316 743.817261,236.892883 743.045532,249.459488 
	C741.945496,254.263733 740.845459,259.067993 739.174866,264.328308 
	C733.573120,283.449707 722.473267,299.089325 707.450989,313.451080 
	C709.768433,312.983276 711.160828,312.990021 712.269531,312.432495 
	C720.571350,308.257843 728.916443,304.149384 737.022339,299.616730 
	C739.592163,298.179718 741.565552,297.445953 744.656067,298.099701 
	C762.884094,301.955292 781.153992,305.742889 799.960266,305.102203 
	C811.184204,304.719879 821.570312,301.936615 830.699036,294.292267 
	C828.877075,293.799194 827.458069,293.368683 826.017029,293.032257 
	C809.990845,289.290649 793.949341,285.613342 777.947083,281.772156 
	C775.858643,281.270874 773.967407,279.947571 772.502991,278.937500 
	C772.666443,278.877686 772.829895,278.817871 773.910217,278.971985 
	C787.274109,278.956360 800.638000,278.940704 814.918640,279.078888 
	C817.411804,279.006073 819.956604,279.230042 822.388672,278.806305 
	C830.630615,277.370514 838.832642,275.705536 847.822205,274.062866 
	C858.890259,270.991333 867.593384,264.744507 874.136658,255.040298 
	C860.394287,255.040298 847.197083,255.040298 833.102356,254.863159 
	C822.964661,254.627319 812.825562,254.435867 802.690552,254.115875 
	C800.803467,254.056290 798.932739,253.480194 797.876770,253.044769 
	C807.299316,251.246048 816.721863,249.447342 827.006592,247.586319 
	C837.668945,244.640610 848.331299,241.694901 859.686340,238.633621 
	C869.671753,234.122299 879.544495,229.435608 887.658142,220.781921 
	C894.043518,213.551208 899.730957,205.946854 901.201599,196.015274 
	C901.201599,196.015274 901.299377,195.667587 901.299377,195.667587 
	C901.299377,195.667587 901.020203,196.031570 900.259155,195.922745 
M322.990051,264.228455 
	C321.615082,260.154053 320.240143,256.079651 319.115936,251.115143 
	C318.691437,240.743332 318.266937,230.371521 318.004486,219.119034 
	C318.299561,211.314819 316.682739,203.911331 313.241577,196.138077 
	C311.786072,193.436966 310.330566,190.735855 308.722931,187.380615 
	C306.413483,184.576385 304.532501,181.202988 301.711029,179.078903 
	C294.404999,173.578766 286.684479,168.629196 278.658447,163.010071 
	C268.477600,157.579865 258.296722,152.149643 247.697067,146.202652 
	C235.177170,139.282669 222.657257,132.362686 209.683945,124.984604 
	C189.827438,112.049492 169.970932,99.114380 150.386246,86.356331 
	C149.557434,110.492195 164.285522,137.189346 186.321198,150.692017 
	C197.198868,156.832962 208.076538,162.973923 219.275528,169.575073 
	C219.865005,170.012665 220.454483,170.450256 220.954575,171.611191 
	C220.276489,173.142822 219.598404,174.674438 218.183182,176.100937 
	C201.164505,168.624741 184.145844,161.148544 166.879349,153.563477 
	C169.330399,174.342316 180.914368,188.212402 199.282440,197.974091 
	C209.492096,202.386002 219.701752,206.797913 230.327759,211.783096 
	C232.558029,212.499298 234.788300,213.215500 237.463928,214.493622 
	C242.659836,216.593262 247.855743,218.692902 253.051636,220.792542 
	C252.960938,221.125671 252.870239,221.458786 252.779541,221.791916 
	C249.518417,221.248047 246.257309,220.704163 242.220779,219.991226 
	C237.482635,218.990036 232.744507,217.988846 227.511093,216.424713 
	C215.062408,213.021164 202.613724,209.617599 189.596634,205.892441 
	C180.236176,202.510696 170.875717,199.128937 160.774200,195.479462 
	C163.605194,206.921173 169.236237,215.570343 177.487411,223.423050 
	C186.325424,228.569122 195.163437,233.715195 204.608032,239.263885 
	C208.201080,240.535675 211.708328,242.195984 215.402100,243.011612 
	C230.904633,246.434784 246.462997,249.605164 262.647522,253.062531 
	C262.803345,253.241150 262.959167,253.419769 263.114990,253.598389 
	C262.846008,253.724335 262.580505,253.952133 262.307495,253.961548 
	C251.538971,254.332962 240.769730,254.684509 229.076202,254.867798 
	C215.570267,254.867798 202.064331,254.867798 188.015671,254.867798 
	C195.175293,265.072296 204.522125,271.381226 216.716187,275.049530 
	C227.143921,276.331299 237.571640,277.613037 248.922211,279.075195 
	C262.298462,278.972198 275.674744,278.869202 289.615387,278.951416 
	C290.038269,279.288788 290.461182,279.626129 290.119507,279.972931 
	C285.083862,281.636475 280.140045,283.700500 274.993469,284.880005 
	C264.364075,287.316101 253.619736,289.247314 242.937576,291.458160 
	C239.359848,292.198639 235.827362,293.157715 231.696472,294.156586 
	C240.827515,301.549683 250.570648,304.690643 261.323792,305.128784 
	C281.442108,305.948425 300.896637,301.733673 320.995300,297.449799 
	C323.132172,298.648865 325.237793,299.908112 327.411377,301.036438 
	C336.296021,305.648621 345.201385,310.220825 354.099121,314.807739 
	C354.333771,314.383575 354.568390,313.959412 354.803040,313.535217 
	C354.396271,313.029724 354.035828,312.476990 353.575928,312.025635 
	C341.591705,300.263031 331.800079,287.002686 325.530701,271.295410 
	C325.017883,270.010529 323.922882,268.958008 323.104950,267.391968 
	C323.104950,267.391968 322.998047,267.000702 323.294281,266.658936 
	C323.193512,266.107056 323.092743,265.555176 322.990051,264.228455 
M375.376373,278.101624 
	C375.911346,278.044403 376.446350,277.987213 377.883942,278.071564 
	C380.928101,278.023499 383.972260,277.975403 387.379028,278.129333 
	C387.905609,278.032471 388.432190,277.935638 389.779755,277.906616 
	C392.711334,277.331757 395.701721,276.962433 398.563354,276.143250 
	C406.935150,273.746674 411.919647,268.187408 412.842590,259.480621 
	C413.704285,251.351822 411.166107,244.833969 403.050507,241.429153 
	C402.545410,241.217255 402.261780,240.477493 401.777832,239.859009 
	C402.759369,239.054993 403.664398,238.369980 404.506287,237.614609 
	C408.636932,233.908264 411.247772,224.311401 408.827728,219.345230 
	C406.007263,213.557327 401.183228,209.478638 394.591553,209.182648 
	C384.688721,208.737976 374.751129,209.066895 364.562134,209.066895 
	C364.562134,231.938919 364.562134,254.363144 364.562134,277.225403 
	C368.111725,277.445282 371.569611,277.659454 375.376373,278.101624 
M521.248230,280.268372 
	C514.402100,288.889771 506.817200,284.171539 499.156097,281.330933 
	C497.906342,284.607300 496.683258,287.813690 495.338898,291.338074 
	C505.458282,297.027740 515.732910,298.183807 526.046265,293.334564 
	C535.412537,288.930603 536.757080,280.080444 536.764404,270.885773 
	C536.772034,261.230408 536.774719,251.575073 536.778198,241.919724 
	C536.779907,237.170502 536.778503,232.421280 536.778503,226.951279 
	C532.096619,228.661804 526.982361,224.245209 523.556763,229.840195 
	C514.002014,221.706924 501.212799,226.476181 496.626251,235.828445 
	C491.712555,245.847748 491.307983,256.049530 496.001892,266.141876 
	C499.958435,274.648773 509.208923,277.930878 517.923523,274.446228 
	C519.287842,273.900696 520.605042,273.237213 522.037720,272.585632 
	C522.241638,273.227936 522.555176,273.706268 522.503235,274.140900 
	C522.286926,275.951691 521.960754,277.749298 521.248230,280.268372 
M560.857300,232.437408 
	C560.857300,223.496185 560.857300,214.554947 560.857300,205.254807 
	C555.756958,205.745605 551.233704,206.180862 546.542236,206.632324 
	C546.542236,219.033371 546.542236,230.847992 546.542236,242.662598 
	C546.542236,254.387283 546.542236,266.111969 546.542236,277.772552 
	C560.771240,278.605286 560.771301,278.605286 560.764587,265.347656 
	C560.764404,265.014526 560.813110,264.672760 560.756470,264.349518 
	C559.869873,259.292389 563.125916,256.698364 566.618652,253.909424 
	C570.331970,261.030457 573.767212,267.861755 577.482849,274.536926 
	C578.220886,275.862732 579.967163,277.329956 581.363342,277.455444 
	C585.607361,277.837036 589.907532,277.593658 594.803040,277.593658 
	C593.801941,275.475983 593.117798,273.839355 592.279175,272.286102 
	C587.618286,263.653412 583.045654,254.968842 578.165466,246.461121 
	C576.483032,243.528076 576.607910,241.578339 578.973938,239.098999 
	C582.773804,235.117065 586.159729,230.740158 590.116211,226.062408 
	C585.541931,226.062408 581.860962,226.294434 578.223938,225.994339 
	C574.873047,225.717865 572.693787,226.788635 570.845337,229.629440 
	C568.030640,233.955307 564.810608,238.017502 561.762756,242.191666 
	C561.462769,242.052658 561.162842,241.913651 560.862854,241.774643 
	C560.862854,238.987137 560.862854,236.199615 560.857300,232.437408 
M461.174591,278.311829 
	C473.919983,279.714203 483.423492,274.190918 486.431061,262.423309 
	C487.872955,256.781616 488.260468,250.462036 487.379242,244.717346 
	C485.346985,231.469315 476.396240,224.994141 463.011505,225.817383 
	C452.080811,226.489685 444.701691,233.833435 442.572327,246.158539 
	C439.747009,262.511993 446.716309,275.064514 461.174591,278.311829 
M693.201050,278.372345 
	C706.758179,280.027100 716.579102,273.593597 719.135559,260.234985 
	C720.228210,254.525818 720.018005,248.240433 718.903381,242.507874 
	C716.948486,232.454575 709.360168,226.427887 699.747192,225.808640 
	C688.449341,225.080872 680.404846,229.912598 676.616882,240.092529 
	C673.675049,247.998566 673.699829,256.154724 676.409912,264.073242 
	C679.000244,271.641937 684.193298,276.737976 693.201050,278.372345 
M634.580627,236.153809 
	C632.532898,230.967667 628.814575,227.532578 623.373047,226.444992 
	C614.381958,224.647964 605.914612,226.126968 597.901001,231.269363 
	C599.202820,234.630692 600.429260,237.797211 601.665222,240.988525 
	C615.737366,234.338165 622.125977,235.901093 621.393311,244.985565 
	C615.606445,246.362106 609.757629,247.100067 604.429871,249.175613 
	C596.663513,252.201157 593.041138,260.887756 595.438416,268.588837 
	C597.708191,275.880219 605.246033,280.208221 613.381592,278.317993 
	C616.970276,277.484192 620.290527,275.495178 623.761719,274.018250 
	C626.777832,279.061615 627.327332,279.114288 636.778076,275.350372 
	C636.485657,269.880737 636.184998,264.593567 635.924438,259.304413 
	C635.556519,251.835968 635.218384,244.366058 634.580627,236.153809 
M420.407593,247.500412 
	C420.407593,257.393585 420.407593,267.286743 420.407593,277.247559 
	C425.360962,277.247559 429.764893,277.247559 434.429718,277.247559 
	C434.429718,253.102188 434.429718,229.260742 434.429718,205.214294 
	C429.559662,205.685684 425.017914,206.125305 420.407532,206.571548 
	C420.407532,220.262054 420.407532,233.381210 420.407593,247.500412 
M645.937805,277.544281 
	C650.222717,277.544281 654.507629,277.544281 659.142639,277.544281 
	C659.142639,267.850128 659.123596,258.564667 659.149719,249.279343 
	C659.165649,243.627792 662.179504,240.441162 667.887756,240.022736 
	C669.314453,239.918152 670.755371,240.007111 672.457947,240.007111 
	C672.457947,235.158890 672.457947,230.726776 672.457947,226.063919 
	C666.124756,224.842667 661.496094,227.128143 658.080078,233.492859 
	C657.597046,230.666641 657.277527,228.796783 656.910156,226.647263 
	C652.706787,227.003494 648.641479,227.348022 645.193909,227.640198 
	C645.193909,244.457794 645.193909,260.726257 645.937805,277.544281 
z"/>
<path fill="#2A292A" opacity="1.000000" stroke="none" 
	d="
M387.016418,277.927307 
	C383.972260,277.975403 380.928101,278.023499 377.283539,277.801758 
	C376.131256,277.645844 375.579407,277.759766 375.027527,277.873657 
	C371.569611,277.659454 368.111725,277.445282 364.562134,277.225403 
	C364.562134,254.363144 364.562134,231.938919 364.562134,209.066895 
	C374.751129,209.066895 384.688721,208.737976 394.591553,209.182648 
	C401.183228,209.478638 406.007263,213.557327 408.827728,219.345230 
	C411.247772,224.311401 408.636932,233.908264 404.506287,237.614609 
	C403.664398,238.369980 402.759369,239.054993 401.777832,239.859009 
	C402.261780,240.477493 402.545410,241.217255 403.050507,241.429153 
	C411.166107,244.833969 413.704285,251.351822 412.842590,259.480621 
	C411.919647,268.187408 406.935150,273.746674 398.563354,276.143250 
	C395.701721,276.962433 392.711334,277.331757 389.217834,277.676697 
	C388.109436,277.606934 387.562927,277.767120 387.016418,277.927307 
M383.533569,247.118820 
	C382.122131,247.221878 380.710693,247.324936 379.503296,247.413086 
	C379.503296,254.029373 379.503296,260.098053 379.503296,266.600739 
	C383.003204,266.436646 386.157684,266.495880 389.253876,266.099640 
	C395.315613,265.323822 398.463715,260.677673 397.263794,254.646500 
	C396.210510,249.352325 392.934479,247.431061 383.533569,247.118820 
M393.691162,232.970627 
	C395.786713,229.545624 396.310364,225.807678 393.648071,222.743759 
	C389.827362,218.346664 384.550934,220.088165 379.546539,220.123871 
	C379.546539,225.671341 379.546539,230.862640 379.546539,237.559357 
	C384.574371,236.091522 388.864197,234.839142 393.691162,232.970627 
z"/>
<path fill="#2B8FCB" opacity="1.000000" stroke="none" 
	d="
M313.340790,196.869461 
	C316.682739,203.911331 318.299561,211.314819 317.564392,219.554413 
	C314.950043,219.216614 312.505798,217.379471 310.647430,217.851074 
	C301.710175,220.119247 292.983063,223.054214 286.314789,230.060486 
	C285.314941,231.111023 283.479950,231.366745 281.980042,231.631271 
	C281.468750,229.820801 281.008667,228.369217 280.127014,225.587357 
	C279.272400,230.963593 278.633759,234.981308 277.637329,239.035614 
	C273.926727,240.865372 270.143341,242.165482 267.352783,244.602448 
	C264.975616,246.678391 263.740967,250.062653 262.000916,252.868134 
	C246.462997,249.605164 230.904633,246.434784 215.402100,243.011612 
	C211.708328,242.195984 208.201080,240.535675 204.345886,238.728073 
	C212.057953,231.124054 220.032150,224.055862 228.006363,216.987656 
	C232.744507,217.988846 237.482635,218.990036 242.609680,220.473358 
	C243.434692,227.287399 244.893524,228.445511 251.031738,227.142410 
	C257.141968,225.845261 263.054901,224.438263 266.690826,218.327148 
	C267.568176,216.852478 271.079651,215.649719 272.787384,216.190964 
	C279.786621,218.409332 283.758911,212.744141 288.802551,210.413803 
	C297.262024,206.505188 305.189484,201.445053 313.340790,196.869461 
z"/>
<path fill="#2A292A" opacity="1.000000" stroke="none" 
	d="
M521.461548,279.910065 
	C521.960754,277.749298 522.286926,275.951691 522.503235,274.140900 
	C522.555176,273.706268 522.241638,273.227936 522.037720,272.585632 
	C520.605042,273.237213 519.287842,273.900696 517.923523,274.446228 
	C509.208923,277.930878 499.958435,274.648773 496.001892,266.141876 
	C491.307983,256.049530 491.712555,245.847748 496.626251,235.828445 
	C501.212799,226.476181 514.002014,221.706924 523.556641,229.839355 
	C526.982361,224.245209 532.096619,228.661804 536.778503,226.951279 
	C536.778503,232.421280 536.779907,237.170502 536.778198,241.919724 
	C536.774719,251.575073 536.772034,261.230408 536.764404,270.885773 
	C536.757080,280.080444 535.412537,288.930603 526.046265,293.334564 
	C515.732910,298.183807 505.458282,297.027740 495.338898,291.338074 
	C496.683258,287.813690 497.906342,284.607300 499.156097,281.330933 
	C506.817200,284.171539 514.402100,288.889771 521.461548,279.910065 
M508.302368,245.320328 
	C508.643463,250.233261 508.400574,255.283752 509.514740,260.014618 
	C510.369965,263.645752 513.978455,264.643127 517.683105,263.930450 
	C521.375244,263.220123 522.263672,260.807831 522.078308,257.329803 
	C521.839233,252.843704 522.063843,248.334732 522.004822,243.836716 
	C521.948669,239.563171 519.693604,237.502777 515.457764,237.704453 
	C511.111572,237.911392 509.690002,241.055984 508.302368,245.320328 
z"/>
<path fill="#2D6DB7" opacity="1.000000" stroke="none" 
	d="
M771.984863,279.005005 
	C773.967407,279.947571 775.858643,281.270874 777.947083,281.772156 
	C793.949341,285.613342 809.990845,289.290649 826.017029,293.032257 
	C827.458069,293.368683 828.877075,293.799194 830.699036,294.292267 
	C821.570312,301.936615 811.184204,304.719879 799.960266,305.102203 
	C781.153992,305.742889 762.884094,301.955292 744.656067,298.099701 
	C741.565552,297.445953 739.592163,298.179718 737.022339,299.616730 
	C728.916443,304.149384 720.571350,308.257843 712.269531,312.432495 
	C711.160828,312.990021 709.768433,312.983276 707.450989,313.451080 
	C722.473267,299.089325 733.573120,283.449707 739.764160,264.311523 
	C741.455017,266.248688 742.085693,268.893097 743.747192,270.026276 
	C748.604614,273.339355 753.873108,276.049805 758.841858,279.297729 
	C753.625854,284.817902 748.548584,290.036682 743.471252,295.255493 
	C755.064392,293.450928 764.181213,288.053253 771.235107,278.953735 
	C771.652100,278.975189 771.818481,278.990112 771.984863,279.005005 
z"/>
<path fill="#2A292A" opacity="1.000000" stroke="none" 
	d="
M560.860107,232.924759 
	C560.862854,236.199615 560.862854,238.987137 560.862854,241.774643 
	C561.162842,241.913651 561.462769,242.052658 561.762756,242.191666 
	C564.810608,238.017502 568.030640,233.955307 570.845337,229.629440 
	C572.693787,226.788635 574.873047,225.717865 578.223938,225.994339 
	C581.860962,226.294434 585.541931,226.062408 590.116211,226.062408 
	C586.159729,230.740158 582.773804,235.117065 578.973938,239.098999 
	C576.607910,241.578339 576.483032,243.528076 578.165466,246.461121 
	C583.045654,254.968842 587.618286,263.653412 592.279175,272.286102 
	C593.117798,273.839355 593.801941,275.475983 594.803040,277.593658 
	C589.907532,277.593658 585.607361,277.837036 581.363342,277.455444 
	C579.967163,277.329956 578.220886,275.862732 577.482849,274.536926 
	C573.767212,267.861755 570.331970,261.030457 566.618652,253.909424 
	C563.125916,256.698364 559.869873,259.292389 560.756470,264.349518 
	C560.813110,264.672760 560.764404,265.014526 560.764587,265.347656 
	C560.771301,278.605286 560.771240,278.605286 546.542236,277.772552 
	C546.542236,266.111969 546.542236,254.387283 546.542236,242.662598 
	C546.542236,230.847992 546.542236,219.033371 546.542236,206.632324 
	C551.233704,206.180862 555.756958,205.745605 560.857300,205.254807 
	C560.857300,214.554947 560.857300,223.496185 560.860107,232.924759 
z"/>
<path fill="#2FB9EA" opacity="1.000000" stroke="none" 
	d="
M848.548218,128.127487 
	C854.006409,124.693001 859.552979,121.390221 864.906067,117.799072 
	C880.490662,107.344055 895.997864,96.773659 911.352234,86.372612 
	C915.644104,105.405823 896.494873,139.326599 873.182129,151.884094 
	C866.196777,146.118469 859.779419,140.549332 853.591736,134.735718 
	C851.599487,132.863983 850.212219,130.348465 848.548218,128.127487 
z"/>
<path fill="#34BAEA" opacity="1.000000" stroke="none" 
	d="
M185.947250,150.139938 
	C164.285522,137.189346 149.557434,110.492195 150.386246,86.356331 
	C169.970932,99.114380 189.827438,112.049492 209.874252,125.630196 
	C209.701767,127.142914 209.585266,128.338791 208.936813,128.824646 
	C204.169357,132.396667 198.970383,135.464218 194.560822,139.419266 
	C191.193436,142.439590 188.783234,146.527130 185.947250,150.139938 
z"/>
<path fill="#2A292A" opacity="1.000000" stroke="none" 
	d="
M460.765045,278.250000 
	C446.716309,275.064514 439.747009,262.511993 442.572327,246.158539 
	C444.701691,233.833435 452.080811,226.489685 463.011505,225.817383 
	C476.396240,224.994141 485.346985,231.469315 487.379242,244.717346 
	C488.260468,250.462036 487.872955,256.781616 486.431061,262.423309 
	C483.423492,274.190918 473.919983,279.714203 460.765045,278.250000 
M469.531555,238.926147 
	C464.367584,235.763336 459.803589,236.651184 458.778046,242.261673 
	C457.624084,248.574875 458.056427,255.295563 458.652771,261.760223 
	C458.939148,264.864594 461.683075,268.004822 465.313446,266.973053 
	C467.750031,266.280579 470.747284,263.900330 471.500061,261.617706 
	C473.936890,254.228775 474.293060,246.624069 469.531555,238.926147 
z"/>
<path fill="#2A292A" opacity="1.000000" stroke="none" 
	d="
M692.791138,278.294800 
	C684.193298,276.737976 679.000244,271.641937 676.409912,264.073242 
	C673.699829,256.154724 673.675049,247.998566 676.616882,240.092529 
	C680.404846,229.912598 688.449341,225.080872 699.747192,225.808640 
	C709.360168,226.427887 716.948486,232.454575 718.903381,242.507874 
	C720.018005,248.240433 720.228210,254.525818 719.135559,260.234985 
	C716.579102,273.593597 706.758179,280.027100 692.791138,278.294800 
M689.239624,253.294968 
	C690.042175,256.655457 690.327087,260.276794 691.840210,263.279175 
	C692.756409,265.097382 695.579773,266.970398 697.537537,266.961212 
	C699.482605,266.952087 702.388062,265.043335 703.185669,263.226929 
	C706.458069,255.775223 706.516541,247.962158 702.941162,240.581055 
	C700.526733,235.596573 694.296326,235.488434 691.972107,240.485657 
	C690.286804,244.109100 690.086182,248.423035 689.239624,253.294968 
z"/>
<path fill="#2A9BD2" opacity="1.000000" stroke="none" 
	d="
M834.169067,210.476898 
	C830.678955,211.833832 827.188904,213.190781 823.326599,214.221329 
	C820.968811,213.261246 818.983154,212.627579 816.941223,211.647766 
	C812.042725,208.320251 807.858765,203.590439 801.099548,205.904572 
	C799.897705,206.316055 798.180969,205.693604 796.848206,205.173737 
	C790.135742,202.555420 783.429565,199.911850 776.803467,197.084259 
	C770.960815,194.591034 765.262512,191.760208 759.423035,189.259140 
	C757.658813,188.503510 755.636292,188.350998 753.732056,187.922226 
	C760.261902,177.598679 769.623047,170.535370 780.606750,165.272217 
	C781.922729,167.856979 782.460144,170.387390 783.879822,172.242767 
	C788.370056,178.111069 795.250183,179.936310 801.860718,182.133499 
	C804.918152,183.149719 808.769897,183.400940 808.099976,188.243027 
	C806.998596,188.824615 805.897278,189.406204 804.126099,190.012939 
	C802.176331,190.780029 800.896362,191.521927 799.616333,192.263840 
	C799.872803,192.711914 800.129272,193.160004 800.385742,193.608093 
	C801.922668,192.792358 803.459595,191.976624 804.996521,191.160889 
	C807.421936,190.469528 809.847412,189.778152 812.875671,189.334885 
	C817.873413,192.016754 822.703674,193.914078 826.544189,197.030914 
	C830.615601,200.334976 834.587524,204.333389 834.169067,210.476898 
z"/>
<path fill="#2C2B2B" opacity="1.000000" stroke="none" 
	d="
M634.724121,236.525299 
	C635.218384,244.366058 635.556519,251.835968 635.924438,259.304413 
	C636.184998,264.593567 636.485657,269.880737 636.778076,275.350372 
	C627.327332,279.114288 626.777832,279.061615 623.761719,274.018250 
	C620.290527,275.495178 616.970276,277.484192 613.381592,278.317993 
	C605.246033,280.208221 597.708191,275.880219 595.438416,268.588837 
	C593.041138,260.887756 596.663513,252.201157 604.429871,249.175613 
	C609.757629,247.100067 615.606445,246.362106 621.393311,244.985565 
	C622.125977,235.901093 615.737366,234.338165 601.665222,240.988525 
	C600.429260,237.797211 599.202820,234.630692 597.901001,231.269363 
	C605.914612,226.126968 614.381958,224.647964 623.373047,226.444992 
	C628.814575,227.532578 632.532898,230.967667 634.724121,236.525299 
M616.720215,267.278107 
	C622.490784,264.691193 622.714966,264.117523 621.282104,254.566620 
	C618.600159,255.074371 615.807861,255.234161 613.304626,256.168457 
	C610.029297,257.390900 608.359009,260.137146 609.105774,263.678680 
	C609.879822,267.349731 612.645508,268.083008 616.720215,267.278107 
z"/>
<path fill="#2CA6DA" opacity="1.000000" stroke="none" 
	d="
M221.043961,170.887848 
	C220.454483,170.450256 219.865005,170.012665 219.128677,168.947739 
	C221.356155,164.581497 222.995117,159.886551 226.293747,157.349380 
	C230.281403,154.282227 235.719849,153.141022 240.441818,150.973312 
	C243.092209,149.756607 245.563736,148.150238 248.115860,146.719437 
	C258.296722,152.149643 268.477600,157.579865 278.846802,163.627075 
	C274.223816,168.382217 269.756744,173.043594 264.498596,176.502472 
	C259.803955,179.590683 257.334808,183.933670 254.428391,188.340698 
	C243.074707,182.444260 232.059341,176.666046 221.043961,170.887848 
z"/>
<path fill="#2B94CE" opacity="1.000000" stroke="none" 
	d="
M313.291199,196.503769 
	C305.189484,201.445053 297.262024,206.505188 288.802551,210.413803 
	C283.758911,212.744141 279.786621,218.409332 272.787384,216.190964 
	C271.079651,215.649719 267.568176,216.852478 266.690826,218.327148 
	C263.054901,224.438263 257.141968,225.845261 251.031738,227.142410 
	C244.893524,228.445511 243.434692,227.287399 242.997406,220.557892 
	C246.257309,220.704163 249.518417,221.248047 252.779541,221.791916 
	C252.870239,221.458786 252.960938,221.125671 253.051636,220.792542 
	C247.855743,218.692902 242.659836,216.593262 237.244415,213.845871 
	C241.610229,209.170425 245.757584,204.391098 250.932709,201.375671 
	C254.462585,199.318878 256.496307,197.415787 256.367462,192.828415 
	C258.850159,194.021820 261.670135,194.431671 262.485229,195.931290 
	C266.200684,202.766983 270.668884,200.765411 275.739044,197.959747 
	C280.057037,195.570343 284.872559,194.024750 289.015747,191.393738 
	C291.880219,189.574738 294.207642,188.741119 297.645599,189.585510 
	C301.383118,190.503479 305.562195,191.543564 308.875092,188.034729 
	C310.330566,190.735855 311.786072,193.436966 313.291199,196.503769 
z"/>
<path fill="#2A9BD2" opacity="1.000000" stroke="none" 
	d="
M308.799011,187.707672 
	C305.562195,191.543564 301.383118,190.503479 297.645599,189.585510 
	C294.207642,188.741119 291.880219,189.574738 289.015747,191.393738 
	C284.872559,194.024750 280.057037,195.570343 275.739044,197.959747 
	C270.668884,200.765411 266.200684,202.766983 262.485229,195.931290 
	C261.670135,194.431671 258.850159,194.021820 256.367462,192.828415 
	C256.496307,197.415787 254.462585,199.318878 250.932709,201.375671 
	C245.757584,204.391098 241.610229,209.170425 237.021744,213.564911 
	C234.788300,213.215500 232.558029,212.499298 230.144943,211.080200 
	C229.559296,206.988037 231.472824,205.347610 234.007919,203.284515 
	C239.355743,198.932388 244.042084,193.767471 249.366455,188.955078 
	C251.480423,189.627548 253.227768,190.280960 255.155975,191.176727 
	C255.837128,191.230499 256.337402,191.041916 256.837677,190.853333 
	C256.256592,190.236938 255.675491,189.620575 254.971771,188.892334 
	C254.849167,188.780472 254.766693,188.458923 254.766693,188.458923 
	C257.334808,183.933670 259.803955,179.590683 264.498596,176.502472 
	C269.756744,173.043594 274.223816,168.382217 279.082275,163.851959 
	C286.684479,168.629196 294.404999,173.578766 301.711029,179.078903 
	C304.532501,181.202988 306.413483,184.576385 308.799011,187.707672 
z"/>
<path fill="#2C84C5" opacity="1.000000" stroke="none" 
	d="
M743.302795,248.776077 
	C743.817261,236.892883 744.302856,225.008316 744.872925,213.127792 
	C744.975098,210.997421 745.426270,208.883820 746.175415,206.533783 
	C756.659729,214.583313 766.664612,222.886414 776.748962,231.091980 
	C777.545288,231.739944 778.893127,231.710236 779.999756,232.416168 
	C779.673096,234.941086 779.732117,237.216003 778.921143,239.120422 
	C775.080627,248.138641 771.002502,257.055695 766.696655,265.871826 
	C758.690430,260.081940 750.996582,254.429016 743.302795,248.776077 
z"/>
<path fill="#2CA6DA" opacity="1.000000" stroke="none" 
	d="
M808.453857,188.169693 
	C808.769897,183.400940 804.918152,183.149719 801.860718,182.133499 
	C795.250183,179.936310 788.370056,178.111069 783.879822,172.242767 
	C782.460144,170.387390 781.922729,167.856979 780.966675,165.235596 
	C791.259827,159.188049 801.567871,153.540390 812.540771,148.025223 
	C814.228699,149.616959 814.934937,151.585373 816.327087,152.451584 
	C824.499756,157.536880 832.853455,162.330643 841.069275,167.348526 
	C841.686096,167.725311 841.703979,169.082748 842.000366,169.984299 
	C830.936096,176.021652 819.871887,182.059006 808.453857,188.169693 
z"/>
<path fill="#2EB1E3" opacity="1.000000" stroke="none" 
	d="
M247.906464,146.461044 
	C245.563736,148.150238 243.092209,149.756607 240.441818,150.973312 
	C235.719849,153.141022 230.281403,154.282227 226.293747,157.349380 
	C222.995117,159.886551 221.356155,164.581497 218.968018,168.717651 
	C208.076538,162.973923 197.198868,156.832962 186.134216,150.415985 
	C188.783234,146.527130 191.193436,142.439590 194.560822,139.419266 
	C198.970383,135.464218 204.169357,132.396667 208.936813,128.824646 
	C209.585266,128.338791 209.701767,127.142914 210.100952,125.859253 
	C222.657257,132.362686 235.177170,139.282669 247.906464,146.461044 
z"/>
<path fill="#2EB1E3" opacity="1.000000" stroke="none" 
	d="
M842.352539,169.942841 
	C841.703979,169.082748 841.686096,167.725311 841.069275,167.348526 
	C832.853455,162.330643 824.499756,157.536880 816.327087,152.451584 
	C814.934937,151.585373 814.228699,149.616959 812.877930,147.958862 
	C824.308533,141.238098 836.066833,134.716202 848.186646,128.160873 
	C850.212219,130.348465 851.599487,132.863983 853.591736,134.735718 
	C859.779419,140.549332 866.196777,146.118469 872.837036,151.927917 
	C866.955200,155.889130 860.808777,159.784821 854.550171,163.491165 
	C850.690063,165.777115 846.658997,167.774445 842.352539,169.942841 
z"/>
<path fill="#2D6DB7" opacity="1.000000" stroke="none" 
	d="
M320.344299,297.438843 
	C300.896637,301.733673 281.442108,305.948425 261.323792,305.128784 
	C250.570648,304.690643 240.827515,301.549683 231.696472,294.156586 
	C235.827362,293.157715 239.359848,292.198639 242.937576,291.458160 
	C253.619736,289.247314 264.364075,287.316101 274.993469,284.880005 
	C280.140045,283.700500 285.083862,281.636475 290.819061,280.099030 
	C299.870972,287.669922 308.707306,294.290894 320.014221,297.031982 
	C320.127228,297.165161 320.344299,297.438843 320.344299,297.438843 
z"/>
<path fill="#2C84C5" opacity="1.000000" stroke="none" 
	d="
M282.031281,231.990143 
	C283.479950,231.366745 285.314941,231.111023 286.314789,230.060486 
	C292.983063,223.054214 301.710175,220.119247 310.647430,217.851074 
	C312.505798,217.379471 314.950043,219.216614 317.483398,219.994751 
	C318.266937,230.371521 318.691437,240.743332 318.631897,251.604401 
	C314.675873,253.921143 310.921021,255.365723 307.801300,257.670135 
	C303.619873,260.758881 299.929901,264.512939 295.879272,267.670837 
	C294.410400,265.068970 292.721375,262.911041 291.837402,260.462524 
	C288.429108,251.022125 285.278137,241.488815 282.031281,231.990143 
z"/>
<path fill="#333233" opacity="1.000000" stroke="none" 
	d="
M420.407562,247.000381 
	C420.407532,233.381210 420.407532,220.262054 420.407532,206.571548 
	C425.017914,206.125305 429.559662,205.685684 434.429718,205.214294 
	C434.429718,229.260742 434.429718,253.102188 434.429718,277.247559 
	C429.764893,277.247559 425.360962,277.247559 420.407593,277.247559 
	C420.407593,267.286743 420.407593,257.393585 420.407562,247.000381 
z"/>
<path fill="#2B94CE" opacity="1.000000" stroke="none" 
	d="
M858.993652,238.749207 
	C848.331299,241.694901 837.668945,244.640610 826.529419,247.218903 
	C818.033325,239.231766 810.014526,231.612061 802.127930,223.683136 
	C801.344849,220.923355 800.497620,218.444412 799.491211,216.031860 
	C798.771851,214.307510 797.839111,212.672211 797.381165,211.002716 
	C801.812073,211.632385 804.370422,213.494370 804.072571,218.095016 
	C804.009583,219.067337 804.798157,220.094788 805.194397,221.096832 
	C806.705933,221.384125 808.314270,222.158340 809.713379,221.880142 
	C819.210144,219.991745 828.662659,217.881317 838.584351,216.201767 
	C842.797546,220.577438 846.611694,224.543610 850.296753,228.626373 
	C853.276428,231.927780 856.100525,235.369644 858.993652,238.749207 
z"/>
<path fill="#32ACDF" opacity="1.000000" stroke="none" 
	d="
M198.818710,197.510056 
	C180.914368,188.212402 169.330399,174.342316 166.879349,153.563477 
	C184.145844,161.148544 201.164505,168.624741 218.569855,176.331268 
	C218.956543,176.561600 219.028366,176.912033 218.973236,177.262939 
	C216.892380,178.936417 215.033524,180.830994 212.811127,181.479279 
	C204.607056,183.872437 202.497025,191.323959 198.818710,197.510056 
z"/>
<path fill="#2E87C7" opacity="1.000000" stroke="none" 
	d="
M847.049927,274.128113 
	C838.832642,275.705536 830.630615,277.370514 822.388672,278.806305 
	C819.956604,279.230042 817.411804,279.006073 814.451660,278.613342 
	C813.362305,270.919220 809.449097,267.001892 802.341919,265.426514 
	C800.235779,264.959686 797.603760,262.545654 796.982849,260.489349 
	C794.933472,253.702881 790.766602,251.064529 783.975098,251.548996 
	C783.999573,248.398483 784.019104,245.697983 784.418457,243.044464 
	C790.802246,244.102386 795.600891,246.582962 797.054443,253.142471 
	C798.932739,253.480194 800.803467,254.056290 802.690552,254.115875 
	C812.825562,254.435867 822.964661,254.627319 833.588379,255.297852 
	C836.839172,259.111328 839.766174,262.373138 842.314331,265.908081 
	C844.153870,268.459991 845.489502,271.375061 847.049927,274.128113 
z"/>
<path fill="#2DA3D7" opacity="1.000000" stroke="none" 
	d="
M834.546570,210.389420 
	C834.587524,204.333389 830.615601,200.334976 826.544189,197.030914 
	C822.703674,193.914078 817.873413,192.016754 813.251221,189.320343 
	C824.446045,184.408463 835.868164,179.759201 847.852539,175.352173 
	C850.098206,177.146667 851.914612,178.579102 853.439819,180.273636 
	C858.016663,185.358780 862.479797,190.546310 866.987305,195.693878 
	C856.299561,200.563232 845.611816,205.432587 834.546570,210.389420 
z"/>
<path fill="#2B92CD" opacity="1.000000" stroke="none" 
	d="
M797.001587,210.997162 
	C797.839111,212.672211 798.771851,214.307510 799.491211,216.031860 
	C800.497620,218.444412 801.344849,220.923355 801.737488,223.692673 
	C798.673035,223.712570 795.692871,224.156509 793.676941,222.966675 
	C788.856384,220.121597 787.528137,220.509033 785.913086,226.184937 
	C785.593567,227.307877 784.007263,228.070374 782.965454,228.680740 
	C782.531799,227.760818 782.137878,227.159256 781.515137,226.208252 
	C780.904175,228.518417 780.444397,230.256958 779.984619,231.995483 
	C778.893127,231.710236 777.545288,231.739944 776.748962,231.091980 
	C766.664612,222.886414 756.659729,214.583313 746.339355,206.158722 
	C746.024231,205.837524 746.004211,205.662720 746.369324,205.199280 
	C746.787842,204.254150 746.821228,203.597656 746.854675,202.941162 
	C746.902649,202.498367 746.950623,202.055588 747.544128,201.309631 
	C751.812866,201.012039 755.536560,201.056274 759.259033,201.009445 
	C761.673035,200.979080 764.202698,200.296524 766.476196,200.810364 
	C773.041077,202.294052 779.502502,204.235718 786.381409,205.997696 
	C788.506348,206.664200 790.254395,207.330582 792.042847,208.318253 
	C792.723022,209.092361 793.362732,209.545151 794.340454,209.999557 
	C795.452881,210.333160 796.227234,210.665161 797.001587,210.997162 
z"/>
<path fill="#2C84C5" opacity="1.000000" stroke="none" 
	d="
M262.324219,252.965332 
	C263.740967,250.062653 264.975616,246.678391 267.352783,244.602448 
	C270.143341,242.165482 273.926727,240.865372 277.646423,239.493439 
	C278.332306,244.274597 278.651306,248.634537 278.539062,252.996155 
	C277.110931,252.997574 276.042053,253.235077 275.128693,252.958649 
	C268.915497,251.078094 265.497498,253.804916 263.704773,259.567810 
	C262.555725,263.261536 259.247528,263.855072 256.120575,265.137268 
	C253.529678,266.199615 250.877731,268.333466 249.472519,270.712891 
	C248.151382,272.949982 248.426544,276.129791 247.999374,278.894806 
	C237.571640,277.613037 227.143921,276.331299 216.408051,274.554504 
	C217.419342,272.186829 218.707657,270.291290 220.064362,268.446106 
	C223.359512,263.964508 226.686462,259.506287 230.000595,255.038666 
	C240.769730,254.684509 251.538971,254.332962 262.307495,253.961548 
	C262.580505,253.952133 262.846008,253.724335 263.114990,253.598389 
	C262.959167,253.419769 262.803345,253.241150 262.324219,252.965332 
z"/>
<path fill="#2DA3D7" opacity="1.000000" stroke="none" 
	d="
M199.050568,197.742065 
	C202.497025,191.323959 204.607056,183.872437 212.811127,181.479279 
	C215.033524,180.830994 216.892380,178.936417 219.337784,177.298492 
	C229.504929,180.967438 239.252380,184.951736 248.999832,188.936035 
	C244.042084,193.767471 239.355743,198.932388 234.007919,203.284515 
	C231.472824,205.347610 229.559296,206.988037 229.936768,210.793579 
	C219.701752,206.797913 209.492096,202.386002 199.050568,197.742065 
z"/>
<path fill="#2A292A" opacity="1.000000" stroke="none" 
	d="
M645.565857,277.269501 
	C645.193909,260.726257 645.193909,244.457794 645.193909,227.640198 
	C648.641479,227.348022 652.706787,227.003494 656.910156,226.647263 
	C657.277527,228.796783 657.597046,230.666641 658.080078,233.492859 
	C661.496094,227.128143 666.124756,224.842667 672.457947,226.063919 
	C672.457947,230.726776 672.457947,235.158890 672.457947,240.007111 
	C670.755371,240.007111 669.314453,239.918152 667.887756,240.022736 
	C662.179504,240.441162 659.165649,243.627792 659.149719,249.279343 
	C659.123596,258.564667 659.142639,267.850128 659.142639,277.544281 
	C654.507629,277.544281 650.222717,277.544281 645.565857,277.269501 
z"/>
<path fill="#2E9ED4" opacity="1.000000" stroke="none" 
	d="
M859.339966,238.691406 
	C856.100525,235.369644 853.276428,231.927780 850.296753,228.626373 
	C846.611694,224.543610 842.797546,220.577438 839.001221,216.195831 
	C851.684387,212.105682 864.405457,208.380615 877.558838,204.973923 
	C879.664917,208.375778 881.291504,211.486221 883.028503,214.533661 
	C884.293579,216.753174 885.704529,218.889526 887.050476,221.062927 
	C879.544495,229.435608 869.671753,234.122299 859.339966,238.691406 
z"/>
<path fill="#2E9ED4" opacity="1.000000" stroke="none" 
	d="
M227.758728,216.706177 
	C220.032150,224.055862 212.057953,231.124054 204.042603,238.526764 
	C195.163437,233.715195 186.325424,228.569122 177.397293,222.891296 
	C181.593140,216.977722 185.879105,211.595886 190.165039,206.214050 
	C202.613724,209.617599 215.062408,213.021164 227.758728,216.706177 
z"/>
<path fill="#2FADE0" opacity="1.000000" stroke="none" 
	d="
M867.300354,195.600967 
	C862.479797,190.546310 858.016663,185.358780 853.439819,180.273636 
	C851.914612,178.579102 850.098206,177.146667 848.219910,175.329559 
	C859.771484,169.719315 871.518005,164.373917 883.631287,159.400024 
	C883.370178,163.888718 885.191833,166.699600 888.666992,168.625061 
	C889.850037,168.063766 890.990967,167.522415 892.131958,166.981079 
	C889.020630,178.040451 881.631470,185.798935 872.582581,192.260971 
	C870.973755,193.409943 869.272156,194.429016 867.300354,195.600967 
z"/>
<path fill="#2B8CC9" opacity="1.000000" stroke="none" 
	d="
M783.005188,228.999100 
	C784.007263,228.070374 785.593567,227.307877 785.913086,226.184937 
	C787.528137,220.509033 788.856384,220.121597 793.676941,222.966675 
	C795.692871,224.156509 798.673035,223.712570 801.605286,224.001907 
	C810.014526,231.612061 818.033325,239.231766 826.098267,247.250061 
	C816.721863,249.447342 807.299316,251.246048 797.465576,253.093628 
	C795.600891,246.582962 790.802246,244.102386 784.402832,242.593353 
	C783.673218,237.729904 783.339233,233.364502 783.005188,228.999100 
z"/>
<path fill="#2D6DB7" opacity="1.000000" stroke="none" 
	d="
M323.098419,267.797516 
	C323.922882,268.958008 325.017883,270.010529 325.530701,271.295410 
	C331.800079,287.002686 341.591705,300.263031 353.575928,312.025635 
	C354.035828,312.476990 354.396271,313.029724 354.803040,313.535217 
	C354.568390,313.959412 354.333771,314.383575 354.099121,314.807739 
	C345.201385,310.220825 336.296021,305.648621 327.411377,301.036438 
	C325.237793,299.908112 323.132172,298.648865 320.669800,297.444336 
	C320.344299,297.438843 320.127228,297.165161 320.016602,296.697205 
	C315.263306,291.157013 310.620575,286.084839 306.317047,280.961731 
	C312.136993,276.539703 317.617706,272.168610 323.098419,267.797516 
z"/>
<path fill="#2C7EC2" opacity="1.000000" stroke="none" 
	d="
M248.460785,278.984985 
	C248.426544,276.129791 248.151382,272.949982 249.472519,270.712891 
	C250.877731,268.333466 253.529678,266.199615 256.120575,265.137268 
	C259.247528,263.855072 262.555725,263.261536 263.704773,259.567810 
	C265.497498,253.804916 268.915497,251.078094 275.128693,252.958649 
	C276.042053,253.235077 277.110931,252.997574 278.597565,253.385590 
	C280.890747,261.841461 283.151154,269.707214 288.959106,276.356079 
	C289.005066,277.388763 289.028046,278.077484 289.051025,278.766205 
	C275.674744,278.869202 262.298462,278.972198 248.460785,278.984985 
z"/>
<path fill="#2C7EC2" opacity="1.000000" stroke="none" 
	d="
M783.970154,251.999023 
	C790.766602,251.064529 794.933472,253.702881 796.982849,260.489349 
	C797.603760,262.545654 800.235779,264.959686 802.341919,265.426514 
	C809.449097,267.001892 813.362305,270.919220 813.993286,278.536438 
	C800.638000,278.940704 787.274109,278.956360 773.494141,278.528442 
	C778.797607,270.261810 781.722473,261.271790 783.970154,251.999023 
z"/>
<path fill="#2B8CC9" opacity="1.000000" stroke="none" 
	d="
M229.538391,254.953232 
	C226.686462,259.506287 223.359512,263.964508 220.064362,268.446106 
	C218.707657,270.291290 217.419342,272.186829 216.052124,274.391510 
	C204.522125,271.381226 195.175293,265.072296 188.015671,254.867798 
	C202.064331,254.867798 215.570267,254.867798 229.538391,254.953232 
z"/>
<path fill="#2B8FCB" opacity="1.000000" stroke="none" 
	d="
M847.436035,274.095520 
	C845.489502,271.375061 844.153870,268.459991 842.314331,265.908081 
	C839.766174,262.373138 836.839172,259.111328 834.037109,255.386414 
	C847.197083,255.040298 860.394287,255.040298 874.136658,255.040298 
	C867.593384,264.744507 858.890259,270.991333 847.436035,274.095520 
z"/>
<path fill="#2C75BC" opacity="1.000000" stroke="none" 
	d="
M323.101685,267.594727 
	C317.617706,272.168610 312.136993,276.539703 306.017609,280.809082 
	C302.582062,277.142609 299.785187,273.577911 296.889343,269.749115 
	C296.536560,268.983826 296.282715,268.482574 296.028870,267.981323 
	C299.929901,264.512939 303.619873,260.758881 307.801300,257.670135 
	C310.921021,255.365723 314.675873,253.921143 318.506531,252.049454 
	C320.240143,256.079651 321.615082,260.154053 322.766113,264.761627 
	C322.694153,265.863434 322.846100,266.432068 322.998047,267.000702 
	C322.998047,267.000702 323.104950,267.391968 323.101685,267.594727 
z"/>
<path fill="#2C75BC" opacity="1.000000" stroke="none" 
	d="
M743.174194,249.117783 
	C750.996582,254.429016 758.690430,260.081940 766.658386,266.230713 
	C766.611938,268.122314 766.291260,269.518036 765.638916,270.991516 
	C763.198303,273.711639 761.089417,276.354004 758.980530,278.996399 
	C753.873108,276.049805 748.604614,273.339355 743.747192,270.026276 
	C742.085693,268.893097 741.455017,266.248688 740.049438,264.083466 
	C740.845459,259.067993 741.945496,254.263733 743.174194,249.117783 
z"/>
<path fill="#2E9ED4" opacity="1.000000" stroke="none" 
	d="
M792.002441,207.996948 
	C790.254395,207.330582 788.506348,206.664200 786.322998,205.647980 
	C780.375916,202.914505 774.378784,201.253540 769.476807,197.961807 
	C763.532227,193.969925 758.337891,194.074280 752.134521,198.341766 
	C751.603516,196.316544 751.216125,194.838898 750.828613,193.361267 
	C751.622437,191.665802 752.416199,189.970352 753.471008,188.098572 
	C755.636292,188.350998 757.658813,188.503510 759.423035,189.259140 
	C765.262512,191.760208 770.960815,194.591034 776.803467,197.084259 
	C783.429565,199.911850 790.135742,202.555420 796.848206,205.173737 
	C798.180969,205.693604 799.897705,206.316055 801.099548,205.904572 
	C807.858765,203.590439 812.042725,208.320251 816.523865,211.649231 
	C814.589600,212.077637 813.016418,212.158463 811.365845,212.243256 
	C811.734924,214.827332 812.015015,216.788391 812.295166,218.749466 
	C810.168823,219.529953 808.042419,220.310440 805.555237,221.093887 
	C804.798157,220.094788 804.009583,219.067337 804.072571,218.095016 
	C804.370422,213.494370 801.812073,211.632385 797.381226,211.002716 
	C796.227234,210.665161 795.452881,210.333160 794.298889,209.678909 
	C793.280334,208.903427 792.641357,208.450195 792.002441,207.996948 
z"/>
<path fill="#2061A9" opacity="1.000000" stroke="none" 
	d="
M765.970581,270.913757 
	C766.291260,269.518036 766.611938,268.122314 766.970825,266.367676 
	C771.002502,257.055695 775.080627,248.138641 778.921143,239.120422 
	C779.732117,237.216003 779.673096,234.941086 779.999756,232.416168 
	C780.444397,230.256958 780.904175,228.518417 781.515137,226.208252 
	C782.137878,227.159256 782.531799,227.760818 782.965454,228.680740 
	C783.339233,233.364502 783.673218,237.729904 784.022949,242.546402 
	C784.019104,245.697983 783.999573,248.398483 783.975098,251.548996 
	C781.722473,261.271790 778.797607,270.261810 773.035645,278.421448 
	C772.829895,278.817871 772.666443,278.877686 772.243896,278.971252 
	C771.818481,278.990112 771.652100,278.975189 771.205566,278.609497 
	C769.273804,275.810425 767.622192,273.362091 765.970581,270.913757 
z"/>
<path fill="#32ACDF" opacity="1.000000" stroke="none" 
	d="
M189.880844,206.053253 
	C185.879105,211.595886 181.593140,216.977722 177.160172,222.658310 
	C169.236237,215.570343 163.605194,206.921173 160.774200,195.479462 
	C170.875717,199.128937 180.236176,202.510696 189.880844,206.053253 
z"/>
<path fill="#32ACDF" opacity="1.000000" stroke="none" 
	d="
M887.354309,220.922424 
	C885.704529,218.889526 884.293579,216.753174 883.028503,214.533661 
	C881.291504,211.486221 879.664917,208.375778 877.948242,204.880585 
	C885.356628,201.620163 892.807922,198.771454 900.623169,195.956268 
	C900.987122,195.989807 900.950684,195.950851 900.950684,195.950851 
	C899.730957,205.946854 894.043518,213.551208 887.354309,220.922424 
z"/>
<path fill="#1E549C" opacity="1.000000" stroke="none" 
	d="
M296.988281,270.013184 
	C299.785187,273.577911 302.582062,277.142609 305.678406,280.859985 
	C310.620575,286.084839 315.263306,291.157013 319.903595,296.563995 
	C308.707306,294.290894 299.870972,287.669922 291.201355,280.094299 
	C290.461182,279.626129 290.038269,279.288788 289.333191,278.858826 
	C289.028046,278.077484 289.005066,277.388763 289.268616,276.214722 
	C292.032867,273.823975 294.510559,271.918579 296.988281,270.013184 
z"/>
<path fill="#F8F9FA" opacity="1.000000" stroke="none" 
	d="
M249.366455,188.955078 
	C239.252380,184.951736 229.504929,180.967438 219.392914,176.947571 
	C219.028366,176.912033 218.956543,176.561600 218.938431,176.383820 
	C219.598404,174.674438 220.276489,173.142822 220.999268,171.249512 
	C232.059341,176.666046 243.074707,182.444260 254.428391,188.340698 
	C254.766693,188.458923 254.849167,188.780472 254.948120,189.213852 
	C255.023071,190.076279 254.999084,190.505325 254.975098,190.934372 
	C253.227768,190.280960 251.480423,189.627548 249.366455,188.955078 
z"/>
<path fill="#2B94CE" opacity="1.000000" stroke="none" 
	d="
M750.513916,193.568634 
	C751.216125,194.838898 751.603516,196.316544 752.134521,198.341766 
	C758.337891,194.074280 763.532227,193.969925 769.476807,197.961807 
	C774.378784,201.253540 780.375916,202.914505 785.946106,205.647858 
	C779.502502,204.235718 773.041077,202.294052 766.476196,200.810364 
	C764.202698,200.296524 761.673035,200.979080 759.259033,201.009445 
	C755.536560,201.056274 751.812866,201.012039 747.689331,201.006653 
	C748.259094,198.596573 749.229126,196.186295 750.513916,193.568634 
z"/>
<path fill="#34BAEA" opacity="1.000000" stroke="none" 
	d="
M892.357788,166.705444 
	C890.990967,167.522415 889.850037,168.063766 888.666992,168.625061 
	C885.191833,166.699600 883.370178,163.888718 883.993958,159.355011 
	C887.751404,156.965637 891.512878,154.992737 896.378235,152.440857 
	C894.903809,157.876495 893.743774,162.153152 892.357788,166.705444 
z"/>
<path fill="#2B92CD" opacity="1.000000" stroke="none" 
	d="
M812.651245,218.594055 
	C812.015015,216.788391 811.734924,214.827332 811.365845,212.243256 
	C813.016418,212.158463 814.589600,212.077637 816.580200,211.995361 
	C818.983154,212.627579 820.968811,213.261246 822.976562,214.267120 
	C819.668213,215.905762 816.337708,217.172195 812.651245,218.594055 
z"/>
<path fill="#2CA6DA" opacity="1.000000" stroke="none" 
	d="
M804.765259,191.053558 
	C803.459595,191.976624 801.922668,192.792358 800.385742,193.608093 
	C800.129272,193.160004 799.872803,192.711914 799.616333,192.263840 
	C800.896362,191.521927 802.176331,190.780029 803.809570,190.050232 
	C804.286499,190.356964 804.410278,190.651596 804.765259,191.053558 
z"/>
<path fill="#2D6DB7" opacity="1.000000" stroke="none" 
	d="
M323.146179,266.829834 
	C322.846100,266.432068 322.694153,265.863434 322.767090,265.149048 
	C323.092743,265.555176 323.193512,266.107056 323.146179,266.829834 
z"/>
<path fill="#2B94CE" opacity="1.000000" stroke="none" 
	d="
M746.655151,203.143982 
	C746.821228,203.597656 746.787842,204.254150 746.468018,204.954498 
	C746.272949,204.447845 746.364258,203.897324 746.655151,203.143982 
z"/>
<path fill="#4C4A4C" opacity="1.000000" stroke="none" 
	d="
M375.201965,277.987640 
	C375.579407,277.759766 376.131256,277.645844 376.832214,277.730957 
	C376.446350,277.987213 375.911346,278.044403 375.201965,277.987640 
z"/>
<path fill="#4C4A4C" opacity="1.000000" stroke="none" 
	d="
M387.197723,278.028320 
	C387.562927,277.767120 388.109436,277.606934 388.807373,277.642761 
	C388.432190,277.935638 387.905609,278.032471 387.197723,278.028320 
z"/>
<path fill="#32ACDF" opacity="1.000000" stroke="none" 
	d="
M901.003662,196.010681 
	C901.020203,196.031570 901.299377,195.667587 901.299377,195.667587 
	C901.299377,195.667587 901.201599,196.015274 901.076172,195.983063 
	C900.950684,195.950851 900.987122,195.989807 901.003662,196.010681 
z"/>
<path fill="#F8F9FA" opacity="1.000000" stroke="none" 
	d="
M383.983948,247.120667 
	C392.934479,247.431061 396.210510,249.352325 397.263794,254.646500 
	C398.463715,260.677673 395.315613,265.323822 389.253876,266.099640 
	C386.157684,266.495880 383.003204,266.436646 379.503296,266.600739 
	C379.503296,260.098053 379.503296,254.029373 379.503296,247.413086 
	C380.710693,247.324936 382.122131,247.221878 383.983948,247.120667 
z"/>
<path fill="#F8F9FA" opacity="1.000000" stroke="none" 
	d="
M393.422607,233.278702 
	C388.864197,234.839142 384.574371,236.091522 379.546539,237.559357 
	C379.546539,230.862640 379.546539,225.671341 379.546539,220.123871 
	C384.550934,220.088165 389.827362,218.346664 393.648071,222.743759 
	C396.310364,225.807678 395.786713,229.545624 393.422607,233.278702 
z"/>
<path fill="#2061A9" opacity="1.000000" stroke="none" 
	d="
M296.889343,269.749115 
	C294.510559,271.918579 292.032867,273.823975 289.245667,275.870728 
	C283.151154,269.707214 280.890747,261.841461 279.028809,253.383881 
	C278.651306,248.634537 278.332306,244.274597 278.004211,239.456848 
	C278.633759,234.981308 279.272400,230.963593 280.127014,225.587357 
	C281.008667,228.369217 281.468750,229.820801 281.980042,231.631256 
	C285.278137,241.488815 288.429108,251.022125 291.837402,260.462524 
	C292.721375,262.911041 294.410400,265.068970 295.879242,267.670837 
	C296.282715,268.482574 296.536560,268.983826 296.889343,269.749115 
z"/>
<path fill="#F8F9FA" opacity="1.000000" stroke="none" 
	d="
M508.447388,244.924500 
	C509.690002,241.055984 511.111572,237.911392 515.457764,237.704453 
	C519.693604,237.502777 521.948669,239.563171 522.004822,243.836716 
	C522.063843,248.334732 521.839233,252.843704 522.078308,257.329803 
	C522.263672,260.807831 521.375244,263.220123 517.683105,263.930450 
	C513.978455,264.643127 510.369965,263.645752 509.514740,260.014618 
	C508.400574,255.283752 508.643463,250.233261 508.447388,244.924500 
z"/>
<path fill="#1E549C" opacity="1.000000" stroke="none" 
	d="
M765.638916,270.991516 
	C767.622192,273.362091 769.273804,275.810425 770.955017,278.603027 
	C764.181213,288.053253 755.064392,293.450928 743.471252,295.255493 
	C748.548584,290.036682 753.625854,284.817902 758.841858,279.297729 
	C761.089417,276.354004 763.198303,273.711639 765.638916,270.991516 
z"/>
<path fill="#F8F9FA" opacity="1.000000" stroke="none" 
	d="
M469.781738,239.219513 
	C474.293060,246.624069 473.936890,254.228775 471.500061,261.617706 
	C470.747284,263.900330 467.750031,266.280579 465.313446,266.973053 
	C461.683075,268.004822 458.939148,264.864594 458.652771,261.760223 
	C458.056427,255.295563 457.624084,248.574875 458.778046,242.261673 
	C459.803589,236.651184 464.367584,235.763336 469.781738,239.219513 
z"/>
<path fill="#F8F9FA" opacity="1.000000" stroke="none" 
	d="
M689.231567,252.862015 
	C690.086182,248.423035 690.286804,244.109100 691.972107,240.485657 
	C694.296326,235.488434 700.526733,235.596573 702.941162,240.581055 
	C706.516541,247.962158 706.458069,255.775223 703.185669,263.226929 
	C702.388062,265.043335 699.482605,266.952087 697.537537,266.961212 
	C695.579773,266.970398 692.756409,265.097382 691.840210,263.279175 
	C690.327087,260.276794 690.042175,256.655457 689.231567,252.862015 
z"/>
<path fill="#F8F9FA" opacity="1.000000" stroke="none" 
	d="
M616.346680,267.385956 
	C612.645508,268.083008 609.879822,267.349731 609.105774,263.678680 
	C608.359009,260.137146 610.029297,257.390900 613.304626,256.168457 
	C615.807861,255.234161 618.600159,255.074371 621.282104,254.566620 
	C622.714966,264.117523 622.490784,264.691193 616.346680,267.385956 
z"/>
<path fill="#2CA6DA" opacity="1.000000" stroke="none" 
	d="
M255.155975,191.176727 
	C254.999084,190.505325 255.023071,190.076279 255.070724,189.325714 
	C255.675491,189.620575 256.256592,190.236938 256.837677,190.853333 
	C256.337402,191.041916 255.837128,191.230499 255.155975,191.176727 
z"/>
<path fill="#2B94CE" opacity="1.000000" stroke="none" 
	d="
M792.042847,208.318253 
	C792.641357,208.450195 793.280334,208.903427 793.960815,209.677307 
	C793.362732,209.545151 792.723022,209.092361 792.042847,208.318253 
z"/>
</svg>