
<!-- Generator: visioncortex VTracer 0.6.4 -->
<svg version="1.1" xmlns="http://www.w3.org/2000/svg" viewBox="0 0 1024 1024" preserveAspectRatio="xMidYMid meet">
<path d="M0 0 C337.92 0 675.84 0 1024 0 C1024 337.92 1024 675.84 1024 1024 C686.08 1024 348.16 1024 0 1024 C0 686.08 0 348.16 0 0 Z " fill="#FEFEFE" transform="translate(0,0)"/>
<path d="M0 0 C1.169 -0.009 2.338 -0.019 3.542 -0.028 C11.108 -0 18.268 0.766 25.688 2.25 C22.282 4.935 19.354 6.161 15.188 7.438 C-2.564 13.123 -19.422 20.896 -36.267 28.819 C-39.015 30.11 -41.768 31.391 -44.523 32.668 C-55.646 37.844 -66.53 43.402 -77.312 49.25 C-78.307 49.789 -79.302 50.327 -80.328 50.882 C-97.99 60.48 -115.225 70.668 -132.312 81.25 C-133.225 81.813 -134.138 82.377 -135.079 82.958 C-152.285 93.601 -168.865 105.134 -185.349 116.856 C-187.226 118.189 -189.108 119.513 -190.992 120.836 C-198.717 126.278 -206.186 131.984 -213.576 137.872 C-215.279 139.223 -216.991 140.563 -218.707 141.898 C-228.053 149.176 -237.207 156.675 -246.312 164.25 C-246.91 164.745 -247.507 165.241 -248.123 165.751 C-255.402 171.796 -262.428 178.06 -269.355 184.504 C-271.864 186.837 -274.384 189.154 -276.938 191.438 C-277.528 191.967 -278.118 192.497 -278.727 193.043 C-280.312 194.25 -280.312 194.25 -283.312 195.25 C-283.312 195.91 -283.312 196.57 -283.312 197.25 C-284.779 198.711 -284.779 198.711 -286.809 200.402 C-291.129 204.077 -295.261 207.91 -299.375 211.812 C-300.72 213.085 -302.065 214.357 -303.41 215.629 C-304.158 216.337 -304.906 217.044 -305.676 217.773 C-307.649 219.626 -309.628 221.469 -311.617 223.305 C-320.66 231.667 -329.462 240.244 -338.159 248.966 C-340.335 251.148 -342.517 253.324 -344.699 255.5 C-346.112 256.914 -347.525 258.328 -348.938 259.742 C-349.576 260.379 -350.215 261.015 -350.873 261.671 C-354.651 265.469 -358.246 269.378 -361.741 273.437 C-364.198 276.271 -366.756 279.007 -369.312 281.75 C-373.729 286.515 -378.068 291.33 -382.312 296.25 C-383.311 297.395 -384.31 298.539 -385.309 299.684 C-391.003 306.215 -396.626 312.784 -402.078 319.52 C-404.121 322.016 -406.197 324.476 -408.292 326.928 C-421.779 342.724 -434.177 359.403 -446.312 376.25 C-445.464 376.505 -444.616 376.76 -443.742 377.023 C-440.075 378.335 -436.847 379.996 -433.438 381.875 C-432.285 382.507 -431.133 383.138 -429.945 383.789 C-428.642 384.512 -428.642 384.512 -427.312 385.25 C-426.874 384.581 -426.436 383.912 -425.984 383.223 C-412.66 363.046 -398.367 343.703 -382.88 325.138 C-380.73 322.548 -378.616 319.93 -376.5 317.312 C-372.936 312.949 -369.222 308.748 -365.43 304.582 C-363.532 302.492 -361.665 300.38 -359.812 298.25 C-356.418 294.352 -352.956 290.517 -349.492 286.68 C-347.621 284.594 -345.773 282.492 -343.938 280.375 C-340.529 276.461 -337.023 272.639 -333.507 268.822 C-330.517 265.573 -327.562 262.297 -324.625 259 C-321.347 255.342 -317.965 251.839 -314.43 248.43 C-312.602 246.548 -310.9 244.625 -309.191 242.637 C-304.81 237.596 -300.107 232.898 -295.375 228.188 C-294.092 226.899 -294.092 226.899 -292.783 225.584 C-288.407 221.215 -283.961 217.019 -279.271 212.99 C-275.62 209.746 -272.234 206.233 -268.812 202.75 C-264.124 197.976 -259.39 193.366 -254.317 189.001 C-250.762 185.895 -247.36 182.625 -243.938 179.375 C-233.888 169.882 -223.611 160.717 -213.084 151.76 C-211.38 150.308 -209.682 148.85 -207.984 147.391 C-202.242 142.47 -196.417 137.722 -190.387 133.153 C-186.731 130.373 -183.162 127.505 -179.619 124.582 C-165.236 112.724 -149.938 102.168 -134.505 91.733 C-132.507 90.382 -130.513 89.025 -128.52 87.668 C-117.988 80.535 -107.197 73.828 -96.312 67.25 C-95.377 66.682 -94.441 66.114 -93.477 65.528 C-78.926 56.75 -63.989 48.882 -48.812 41.25 C-47.908 40.793 -47.004 40.336 -46.073 39.864 C-43.501 38.567 -40.924 37.281 -38.344 36 C-37.562 35.605 -36.78 35.21 -35.974 34.803 C-34.116 33.89 -32.217 33.061 -30.312 32.25 C-29.652 32.58 -28.993 32.91 -28.312 33.25 C-34.009 37.976 -39.746 42.627 -45.625 47.125 C-56.014 55.079 -66.275 63.128 -76.223 71.629 C-79.088 74.073 -82.007 76.447 -84.938 78.812 C-89.701 82.688 -94.246 86.762 -98.766 90.918 C-100.902 92.874 -103.06 94.792 -105.25 96.688 C-110.115 100.924 -114.866 105.283 -119.599 109.666 C-120.73 110.711 -121.863 111.754 -122.999 112.795 C-133.932 122.823 -144.44 133.271 -154.938 143.75 C-155.644 144.454 -156.35 145.158 -157.078 145.883 C-159.131 147.929 -161.179 149.98 -163.227 152.031 C-163.836 152.639 -164.446 153.247 -165.075 153.873 C-168.779 157.597 -172.29 161.44 -175.71 165.427 C-178.272 168.342 -181.038 171.039 -183.812 173.75 C-187.956 177.842 -191.935 181.984 -195.707 186.426 C-197.496 188.458 -199.384 190.351 -201.312 192.25 C-205.194 196.079 -208.768 200.111 -212.312 204.25 C-213.518 205.648 -214.727 207.044 -215.938 208.438 C-216.73 209.356 -216.73 209.356 -217.539 210.293 C-219.717 212.696 -222.009 214.969 -224.312 217.25 C-225.788 218.725 -227.264 220.2 -228.738 221.676 C-235.525 228.463 -235.525 228.463 -242.312 235.25 C-221.884 227.215 -202.454 215.5 -184.312 203.25 C-183.735 202.861 -183.157 202.472 -182.561 202.071 C-175.292 197.16 -168.202 192.019 -161.16 186.791 C-156.515 183.351 -156.515 183.351 -154.312 182.25 C-155.979 186.184 -158.614 189.235 -161.375 192.438 C-161.894 193.04 -162.413 193.642 -162.947 194.262 C-173.088 205.849 -184.006 216.963 -196.312 226.25 C-197.103 226.863 -197.103 226.863 -197.909 227.488 C-220.199 244.76 -245.747 258.831 -272.312 268.25 C-245.884 264.734 -221.753 252.78 -198.875 239.755 C-198.064 239.3 -197.253 238.844 -196.418 238.375 C-195.698 237.965 -194.977 237.555 -194.235 237.133 C-192.312 236.25 -192.312 236.25 -189.312 236.25 C-198.817 250.383 -209.557 262.944 -221.312 275.25 C-222.044 276.024 -222.044 276.024 -222.79 276.814 C-230.036 284.468 -237.868 290.991 -246.312 297.25 C-247.351 298.022 -248.39 298.794 -249.461 299.59 C-272.397 316.026 -299.688 328.355 -327.312 334.25 C-291.383 333.071 -257.681 324.83 -226.177 307.268 C-224.245 306.213 -222.287 305.224 -220.312 304.25 C-248.01 341.809 -284.346 362.549 -330.312 370.25 C-336.626 371.134 -342.958 371.748 -349.312 372.25 C-341.467 374.394 -334.043 374.55 -325.938 374.5 C-324.062 374.512 -324.062 374.512 -322.148 374.523 C-315.418 374.509 -309.161 374.1 -302.595 372.581 C-300.174 372.23 -298.618 372.493 -296.312 373.25 C-312.33 390.878 -332.446 400.72 -356.312 403.25 C-361.4 403.462 -366.471 403.442 -371.562 403.375 C-372.905 403.365 -374.247 403.356 -375.59 403.348 C-378.831 403.324 -382.072 403.292 -385.312 403.25 C-380.987 404.608 -376.652 405.937 -372.312 407.25 C-371.576 407.482 -370.84 407.713 -370.081 407.952 C-364.279 409.624 -358.544 409.555 -352.562 409.5 C-351.491 409.492 -350.42 409.484 -349.317 409.475 C-325.518 409.138 -304.515 399.681 -287.312 383.25 C-286.36 382.149 -285.422 381.036 -284.5 379.91 C-283.778 379.032 -283.056 378.154 -282.312 377.25 C-281.982 377.25 -281.653 377.25 -281.312 377.25 C-280.519 392.597 -285.203 407.425 -295.224 419.142 C-306.171 431.22 -320.387 439.119 -336.835 440.455 C-339.519 440.554 -342.189 440.579 -344.875 440.562 C-345.84 440.557 -346.804 440.551 -347.798 440.545 C-356.232 440.404 -364.141 439.444 -372.312 437.25 C-372.981 437.073 -373.649 436.895 -374.337 436.712 C-396.684 430.529 -417.184 418.465 -437.312 407.25 C-455.854 396.954 -473.896 387.258 -494.312 381.25 C-495.979 380.738 -495.979 380.738 -497.68 380.215 C-509.302 377.16 -521.394 377.976 -533.312 378.25 C-532.43 325.836 -519.051 274.591 -484.312 234.25 C-483.049 236.778 -483.496 237.479 -484.23 240.156 C-485.546 245.708 -485.657 251.064 -485.625 256.75 C-485.62 257.804 -485.615 258.857 -485.61 259.943 C-485.171 289.565 -473.487 314.722 -453.312 336.25 C-453.94 333.254 -454.942 330.972 -456.438 328.312 C-471.523 298.36 -474.96 260.736 -467.312 228.25 C-467.146 227.542 -466.98 226.833 -466.809 226.104 C-460.564 200.641 -447.193 175.901 -427.969 157.898 C-426.202 156.14 -424.762 154.274 -423.312 152.25 C-422.653 152.58 -421.993 152.91 -421.312 153.25 C-421.578 154 -421.844 154.75 -422.117 155.523 C-422.47 156.547 -422.824 157.57 -423.188 158.625 C-423.536 159.623 -423.884 160.62 -424.242 161.648 C-427.093 171.241 -427.682 180.32 -427.625 190.312 C-427.623 191 -427.62 191.688 -427.617 192.397 C-427.517 210.288 -426.016 233.29 -413.312 247.25 C-413.59 246.165 -413.867 245.079 -414.152 243.961 C-414.518 242.516 -414.884 241.07 -415.25 239.625 C-415.432 238.912 -415.615 238.199 -415.803 237.465 C-422.713 210.077 -415.502 183.476 -401.647 159.445 C-398.333 153.995 -394.449 149.101 -390.312 144.25 C-389.15 142.879 -389.15 142.879 -387.965 141.48 C-383.42 136.281 -378.631 131.643 -373.312 127.25 C-372.526 126.576 -371.74 125.902 -370.93 125.207 C-363.124 118.625 -354.782 112.935 -346.312 107.25 C-345.982 107.91 -345.653 108.57 -345.312 109.25 C-346.133 111.289 -346.133 111.289 -347.438 113.875 C-356.566 133.301 -359.709 154.214 -355.75 175.383 C-355.293 178.381 -355.241 181.222 -355.312 184.25 C-354.653 184.25 -353.993 184.25 -353.312 184.25 C-353.347 183.281 -353.382 182.311 -353.418 181.312 C-354.103 153.73 -344.071 128.848 -327.312 107.25 C-326.717 106.48 -326.121 105.711 -325.508 104.918 C-316.876 94.449 -304.442 85.315 -292.312 79.25 C-291.653 79.58 -290.993 79.91 -290.312 80.25 C-290.972 80.869 -291.632 81.488 -292.312 82.125 C-318.713 108.894 -325.62 140.948 -326.312 177.25 C-325.653 177.25 -324.993 177.25 -324.312 177.25 C-324.416 175.992 -324.519 174.734 -324.625 173.438 C-324.438 146.677 -308.252 118.062 -291.312 98.25 C-290.802 97.618 -290.292 96.987 -289.766 96.336 C-280.978 85.611 -266.457 73.144 -253.312 68.25 C-252.652 68.58 -251.993 68.91 -251.312 69.25 C-251.713 69.677 -252.114 70.103 -252.527 70.543 C-258.098 76.67 -262.84 83.298 -267.312 90.25 C-267.697 90.848 -268.082 91.446 -268.479 92.062 C-277.94 107.074 -283.24 123.836 -286.312 141.25 C-285.653 141.25 -284.993 141.25 -284.312 141.25 C-284.236 140.415 -284.16 139.579 -284.082 138.719 C-283.131 134.432 -281.351 131.415 -279 127.75 C-278.556 127.051 -278.111 126.353 -277.653 125.633 C-272.842 118.259 -267.307 111.682 -261.312 105.25 C-260.776 104.67 -260.24 104.09 -259.688 103.493 C-250.746 93.917 -240.965 85.854 -230.312 78.25 C-229.693 77.807 -229.073 77.364 -228.435 76.908 C-212.72 65.801 -195.678 56.498 -178.312 48.25 C-177.048 47.642 -177.048 47.642 -175.759 47.021 C-144.926 32.246 -112.442 20.708 -79.312 12.25 C-78.384 12.012 -77.456 11.774 -76.5 11.528 C-61.542 7.726 -46.566 4.599 -31.312 2.25 C-30.588 2.131 -29.863 2.013 -29.116 1.891 C-19.417 0.326 -9.815 0.054 0 0 Z " fill="#2938C9" transform="translate(860.3125,138.75)"/>
<path d="M0 0 C9.618 8.3 14.159 24.345 15.219 36.511 C15.916 48.3 14.978 58.82 11 70 C10.626 71.067 10.252 72.135 9.867 73.234 C7.182 80.241 3.629 86.113 -1 92 C-1.561 92.737 -2.121 93.475 -2.699 94.234 C-15.676 110.11 -35.923 120.104 -56 123 C-71.811 123.855 -87.936 124.367 -103 119 C-104.165 118.638 -105.331 118.276 -106.531 117.902 C-130.841 109.969 -149.851 93.554 -168.309 76.48 C-171.095 73.913 -173.912 71.393 -176.781 68.918 C-178.522 67.413 -180.248 65.891 -181.969 64.363 C-209.262 40.294 -240.438 20.831 -277.688 20.812 C-279.636 20.794 -279.636 20.794 -281.623 20.775 C-289.622 20.763 -297.163 21.382 -305 23 C-295.702 12.462 -279.682 5.991 -265.779 4.812 C-263.432 4.733 -261.098 4.722 -258.75 4.75 C-257.909 4.759 -257.069 4.768 -256.203 4.777 C-222.228 5.408 -193.746 24.677 -168 45 C-166.893 45.871 -165.787 46.742 -164.68 47.613 C-164.118 48.056 -163.556 48.498 -162.977 48.954 C-159.987 51.306 -156.995 53.654 -154 56 C-152.986 56.796 -152.986 56.796 -151.951 57.608 C-125.126 78.603 -96.543 96.291 -60.91 92.688 C-39.734 89.571 -21.375 80.013 -8.074 63.035 C-0.271 51.617 3.354 40.581 3.312 26.75 C3.329 25.681 3.345 24.613 3.361 23.512 C3.365 17.031 2.602 11.437 0.645 5.251 C0 3 0 3 0 0 Z " fill="#2A38C6" transform="translate(588,522)"/>
<path d="M0 0 C1 2 1 2 0.398 3.812 C0.061 4.534 -0.277 5.256 -0.625 6 C-1.185 7.2 -1.185 7.2 -1.756 8.424 C-2.166 9.274 -2.577 10.124 -3 11 C-3.624 12.297 -3.624 12.297 -4.26 13.621 C-9.418 24.145 -15.979 32.488 -24 41 C-24.552 41.616 -25.103 42.232 -25.672 42.867 C-40.998 59.331 -64.222 68.739 -86.32 70.223 C-120.767 71.402 -151.555 61.114 -183.964 50.778 C-204.468 44.239 -224.842 38.076 -246 34 C-247.239 33.753 -248.478 33.505 -249.754 33.25 C-279.921 28.216 -310.247 32.799 -338.188 44.5 C-339.073 44.868 -339.959 45.235 -340.871 45.614 C-345.98 47.83 -349.917 50.204 -354 54 C-354.66 53.67 -355.32 53.34 -356 53 C-329.633 27.055 -300.636 11.606 -262.986 11.559 C-241.894 11.971 -221.108 16.927 -201 23 C-199.539 23.433 -198.078 23.865 -196.617 24.297 C-188.007 26.85 -179.427 29.476 -170.887 32.254 C-144.284 40.916 -144.284 40.916 -117 47 C-115.604 47.267 -115.604 47.267 -114.181 47.54 C-96.574 50.77 -78.122 50.375 -61 45 C-60.313 44.786 -59.625 44.571 -58.917 44.351 C-45.298 39.96 -32.89 33.342 -22 24 C-21.14 23.285 -20.28 22.569 -19.395 21.832 C-11.852 15.311 -5.937 7.97 0 0 Z " fill="#2937C4" transform="translate(649,653)"/>
<path d="M0 0 C5.721 1.046 10.229 4.863 15 8 C16.659 9.04 16.659 9.04 18.352 10.102 C19.432 10.79 20.512 11.478 21.625 12.188 C22.628 12.82 23.631 13.453 24.664 14.105 C27 16 27 16 28.176 17.875 C27.876 21.497 25.091 23.46 22.562 25.812 C21.724 26.618 21.724 26.618 20.868 27.44 C19.259 28.975 17.634 30.491 16 32 C15.334 32.621 14.667 33.243 13.98 33.883 C4.77 42.158 -5.084 49.822 -14.938 57.312 C-24.575 64.72 -31.511 71.021 -37 82 C-37.122 83.789 -37.175 85.582 -37.188 87.375 C-37.202 88.331 -37.216 89.288 -37.23 90.273 C-36.997 93.03 -36.409 94.649 -35 97 C-36.506 97.926 -36.506 97.926 -38.043 98.871 C-54.903 109.288 -70.37 120.576 -85 134 C-85.33 133.34 -85.66 132.68 -86 132 C-85.149 129.517 -84.239 127.116 -83.25 124.688 C-81.154 119.438 -79.62 114.543 -78.688 108.938 C-77.458 103.003 -75.244 100.818 -70.281 97.531 C-64.081 93.37 -60.147 87.085 -58 80 C-57.948 78.501 -57.927 77 -57.938 75.5 C-57.694 72.234 -57.17 71.181 -54.887 68.75 C-51.993 66.392 -49.025 64.187 -46 62 C-24.508 45.204 -9.538 25.575 0 0 Z " fill="#2936BE" transform="translate(367,568)"/>
<path d="M0 0 C5.721 1.046 10.229 4.863 15 8 C16.106 8.694 17.212 9.387 18.352 10.102 C19.432 10.79 20.512 11.478 21.625 12.188 C22.628 12.82 23.631 13.453 24.664 14.105 C27 16 27 16 28.176 17.875 C27.876 21.497 25.091 23.46 22.562 25.812 C22.003 26.349 21.444 26.886 20.868 27.44 C19.259 28.975 17.634 30.491 16 32 C15.334 32.621 14.667 33.243 13.98 33.883 C4.686 42.233 -5.278 49.94 -15.125 57.625 C-16.118 58.401 -17.11 59.177 -18.133 59.977 C-20.988 61.991 -23.854 63.493 -27 65 C-28.359 65.965 -29.703 66.953 -31 68 C-31.66 67.67 -32.32 67.34 -33 67 C-33 64.69 -33 62.38 -33 60 C-34.65 59.67 -36.3 59.34 -38 59 C-34.624 54.913 -31.15 51.16 -27.312 47.5 C-18.23 38.5 -9.157 26.777 -4 15 C-4.495 13.515 -4.495 13.515 -5 12 C-4.004 9.082 -4.004 9.082 -2.562 5.812 C-2.089 4.726 -1.616 3.639 -1.129 2.52 C-0.756 1.688 -0.384 0.857 0 0 Z " fill="#2938C7" transform="translate(367,568)"/>
<path d="M0 0 C0.66 0.33 1.32 0.66 2 1 C1.734 1.75 1.469 2.5 1.195 3.273 C0.842 4.297 0.489 5.32 0.125 6.375 C-0.397 7.872 -0.397 7.872 -0.93 9.398 C-3.599 18.381 -4.491 27.298 -5.125 36.625 C-5.211 37.82 -5.298 39.015 -5.387 40.246 C-5.597 43.164 -5.801 46.082 -6 49 C-6.33 49 -6.66 49 -7 49 C-7 37.45 -7 25.9 -7 14 C-7.99 15.32 -8.98 16.64 -10 18 C-11.167 19.167 -12.348 20.32 -13.562 21.438 C-15.245 23.052 -15.245 23.052 -16 26 C-17.32 26 -18.64 26 -20 26 C-20.093 27.052 -20.093 27.052 -20.188 28.125 C-21.084 31.297 -22.588 32.913 -24.701 35.376 C-32.832 45.541 -40 64.076 -40 77 C-40.66 77 -41.32 77 -42 77 C-44.059 89.88 -44.24 102.482 -44.125 115.5 C-44.115 117.499 -44.106 119.497 -44.098 121.496 C-44.076 126.331 -44.042 131.165 -44 136 C-52.285 123.572 -47.797 94.377 -44.969 80.234 C-44.655 78.821 -44.332 77.409 -44 76 C-43.751 74.937 -43.751 74.937 -43.496 73.854 C-37.252 48.391 -23.88 23.651 -4.656 5.648 C-2.89 3.89 -1.45 2.024 0 0 Z " fill="#2B3291" transform="translate(437,291)"/>
<path d="M0 0 C0.495 0.99 0.495 0.99 1 2 C0.18 4.039 0.18 4.039 -1.125 6.625 C-11.068 27.785 -12.006 49.07 -10 72 C-16.349 62.477 -14.113 42.959 -11.988 32.25 C-10.062 23.72 -7.546 15.362 -5 7 C-16.217 13.501 -25.938 21.761 -35 31 C-35.819 31.795 -36.637 32.591 -37.48 33.41 C-57.04 53.516 -68.932 79.679 -69.25 107.812 C-69.104 114.561 -68.635 121.281 -68 128 C-70 127 -70 127 -70.622 125.254 C-71.808 119.744 -72.353 114.509 -72.312 108.875 C-72.305 107.639 -72.305 107.639 -72.298 106.378 C-71.815 80.76 -60.432 56.271 -44 37 C-43.225 36.086 -42.451 35.172 -41.652 34.23 C-37.108 29.031 -32.319 24.393 -27 20 C-26.214 19.326 -25.427 18.652 -24.617 17.957 C-16.812 11.375 -8.47 5.685 0 0 Z " fill="#293193" transform="translate(514,246)"/>
<path d="M0 0 C0 4.374 -2.665 6.503 -5.438 9.625 C-6.012 10.278 -6.586 10.931 -7.177 11.604 C-17.209 22.867 -27.749 34.12 -40 43 C-40.66 42.67 -41.32 42.34 -42 42 C-40.68 41.01 -39.36 40.02 -38 39 C-38.165 37.886 -38.33 36.772 -38.5 35.625 C-39 32 -39 32 -39 30 C-45.93 34.455 -45.93 34.455 -53 39 C-53 38.01 -53 37.02 -53 36 C-51.326 34.641 -51.326 34.641 -48.969 33.25 C-48.103 32.73 -47.238 32.209 -46.346 31.673 C-45.407 31.121 -44.468 30.569 -43.5 30 C-41.558 28.829 -39.618 27.654 -37.68 26.477 C-36.714 25.89 -35.748 25.304 -34.753 24.7 C-16.411 13.589 -16.411 13.589 0 0 Z " fill="#2E3ABF" transform="translate(705,321)"/>
<path d="M0 0 C-0.89 0.402 -1.779 0.804 -2.696 1.218 C-38.262 17.258 -38.262 17.258 -73 35 C-73.992 35.537 -74.984 36.074 -76.006 36.628 C-93.672 46.227 -110.91 56.416 -128 67 C-128.913 67.563 -129.826 68.127 -130.766 68.708 C-153.529 82.789 -175.25 98.42 -197 114 C-197 113.01 -197 112.02 -197 111 C-195.662 109.717 -195.662 109.717 -193.773 108.434 C-193.078 107.953 -192.382 107.472 -191.665 106.977 C-190.909 106.469 -190.154 105.961 -189.375 105.438 C-187.813 104.364 -186.252 103.29 -184.691 102.215 C-183.904 101.677 -183.116 101.139 -182.305 100.585 C-178.94 98.271 -175.626 95.888 -172.312 93.5 C-169.137 91.214 -165.954 88.97 -162.668 86.844 C-159.935 85.272 -159.935 85.272 -159 83 C-157.095 82.036 -155.188 81.077 -153.264 80.151 C-149.562 78.269 -146.147 75.977 -142.688 73.688 C-141.175 72.699 -139.662 71.711 -138.148 70.723 C-136.765 69.815 -135.383 68.908 -134 68 C-112.247 53.754 -89.411 40.372 -66.034 28.978 C-61.14 26.592 -56.325 24.075 -51.512 21.53 C-42.552 16.793 -33.585 12.325 -24.246 8.387 C-21.646 7.276 -19.135 6.11 -16.625 4.812 C-13.695 3.311 -10.722 1.967 -7.688 0.688 C-6.866 0.341 -6.045 -0.006 -5.199 -0.363 C-3 -1 -3 -1 0 0 Z " fill="#2C3396" transform="translate(856,153)"/>
<path d="M0 0 C0 0.33 0 0.66 0 1 C-7.59 1 -15.18 1 -23 1 C-23 1.66 -23 2.32 -23 3 C-23.92 3.098 -24.841 3.196 -25.789 3.297 C-41.82 5.191 -57.143 9.497 -71 18 C-71 18.66 -71 19.32 -71 20 C-68.052 20.983 -66.073 21.134 -63 21.125 C-61.701 21.129 -61.701 21.129 -60.375 21.133 C-57.85 21.096 -57.85 21.096 -55 20 C-52.667 19.96 -50.333 19.956 -48 20 C-51.277 22.185 -53.344 22.56 -57.188 23.25 C-65.509 24.955 -73.145 27.818 -81 31 C-81.651 31.257 -82.303 31.514 -82.974 31.779 C-92.749 35.634 -92.749 35.634 -101 42 C-101.66 41.67 -102.32 41.34 -103 41 C-72.832 11.316 -42.285 -0.672 0 0 Z " fill="#2B34AA" transform="translate(396,665)"/>
<path d="M0 0 C0.66 0.33 1.32 0.66 2 1 C-4.225 6.164 -10.519 11.21 -16.943 16.122 C-26.735 23.613 -36.393 31.275 -46 39 C-46.66 38.67 -47.32 38.34 -48 38 C-47.34 37.34 -46.68 36.68 -46 36 C-45.352 33.429 -45.352 33.429 -45 31 C-44.01 31.66 -43.02 32.32 -42 33 C-39.419 31.269 -39.419 31.269 -37 29 C-37 27.68 -37 26.36 -37 25 C-39.75 23.899 -40.77 23.903 -43.551 25.074 C-44.462 25.607 -45.374 26.139 -46.312 26.688 C-47.277 27.241 -48.241 27.794 -49.234 28.363 C-50.147 28.903 -51.06 29.444 -52 30 C-58.816 34 -58.816 34 -61 34 C-61 33.34 -61 32.68 -61 32 C-47.687 24.128 -34.1 16.88 -20.286 9.932 C-18.551 9.059 -16.816 8.183 -15.083 7.305 C-12.626 6.062 -10.164 4.83 -7.699 3.602 C-6.951 3.222 -6.203 2.842 -5.433 2.451 C-3.651 1.573 -1.828 0.777 0 0 Z " fill="#2B38C1" transform="translate(830,171)"/>
<path d="M0 0 C-0.33 0.99 -0.66 1.98 -1 3 C-2.946 3.752 -2.946 3.752 -5.48 4.281 C-6.398 4.484 -7.315 4.686 -8.26 4.895 C-9.226 5.094 -10.192 5.294 -11.188 5.5 C-17.268 6.783 -22.459 8.107 -28 11 C-30.234 11.548 -32.487 12.025 -34.75 12.438 C-40.881 13.67 -46.29 15.502 -52 18 C-56.131 19.693 -59.451 21 -64 21 C-64.33 21.66 -64.66 22.32 -65 23 C-67.305 23.638 -69.615 24.02 -71.969 24.438 C-72.639 24.623 -73.309 24.809 -74 25 C-74.33 25.66 -74.66 26.32 -75 27 C-77.596 27.992 -80.174 28.89 -82.812 29.75 C-89.05 31.869 -94.891 34.241 -100.73 37.316 C-103.258 38.618 -105.782 39.841 -108.363 41.027 C-120.813 46.75 -132.634 53.159 -144.102 60.668 C-144.749 61.091 -145.396 61.515 -146.063 61.951 C-147.285 62.757 -148.502 63.572 -149.712 64.396 C-151.104 65.323 -152.548 66.171 -154 67 C-154.66 66.67 -155.32 66.34 -156 66 C-141.102 53.943 -123.255 45.189 -106 37 C-105.16 36.596 -104.32 36.192 -103.455 35.776 C-72.565 20.972 -40.124 9.668 -7 1 C-5.871 0.691 -5.871 0.691 -4.719 0.375 C-3 0 -3 0 0 0 Z " fill="#2B3194" transform="translate(788,150)"/>
<path d="M0 0 C0.66 0.33 1.32 0.66 2 1 C1.599 1.427 1.198 1.853 0.785 2.293 C-4.786 8.42 -9.528 15.048 -14 22 C-14.385 22.598 -14.77 23.196 -15.166 23.812 C-25.034 39.468 -30.293 56.775 -33 75 C-33.33 75 -33.66 75 -34 75 C-33.579 53.359 -24.855 33.782 -13 16 C-13.554 16.144 -14.109 16.289 -14.68 16.438 C-15.404 16.623 -16.129 16.809 -16.875 17 C-17.594 17.186 -18.314 17.371 -19.055 17.562 C-21 18 -21 18 -23 18 C-24.532 19.554 -24.532 19.554 -26.125 21.562 C-28.525 24.408 -30.899 26.815 -33.812 29.125 C-39.703 34.084 -43.681 40.702 -48 47 C-48.991 48.34 -49.986 49.677 -51 51 C-50.505 46.214 -48.226 43.013 -45.438 39.25 C-44.762 38.325 -44.762 38.325 -44.073 37.381 C-33.453 23.012 -17.199 6.403 0 0 Z " fill="#2831A0" transform="translate(607,207)"/>
<path d="M0 0 C6.664 1.257 12.295 3.212 18.375 6.188 C19.207 6.59 20.039 6.992 20.897 7.406 C35.186 14.424 47.525 23.997 59.723 34.152 C62.06 36.107 62.06 36.107 65 38 C65 38.66 65 39.32 65 40 C65.892 40.409 65.892 40.409 66.802 40.825 C68.944 41.97 70.42 43.126 72.172 44.793 C73.038 45.609 73.038 45.609 73.922 46.442 C74.525 47.018 75.128 47.594 75.75 48.188 C77.016 49.378 78.283 50.568 79.551 51.758 C80.154 52.325 80.756 52.893 81.377 53.478 C84.508 56.415 87.709 59.243 91 62 C91.495 62.421 91.99 62.841 92.5 63.275 C106.68 75.268 121.959 84.636 139 92 C135.589 93.131 135.054 93.022 131.461 91.559 C130.092 90.865 128.73 90.157 127.375 89.438 C126.658 89.065 125.941 88.693 125.202 88.31 C123.125 87.223 121.061 86.117 119 85 C118.071 84.499 117.141 83.997 116.184 83.48 C105.058 77.12 95.388 68.641 86 60 C84.692 58.849 83.379 57.703 82.062 56.562 C78.888 53.802 75.785 50.972 72.688 48.125 C67.281 43.206 61.728 38.539 56 34 C55.384 33.506 54.768 33.012 54.133 32.503 C39.029 20.433 23.542 11.277 5.744 3.754 C3.79 2.909 1.885 1.99 0 1 C0 0.67 0 0.34 0 0 Z " fill="#2D3396" transform="translate(341,545)"/>
<path d="M0 0 C0.99 0.495 0.99 0.495 2 1 C-13.577 14 -13.577 14 -20 14 C-20.33 14.66 -20.66 15.32 -21 16 C-40.089 24.522 -61.892 22.607 -82 20 C-82.33 19.01 -82.66 18.02 -83 17 C-83.99 17.33 -84.98 17.66 -86 18 C-86 17.34 -86 16.68 -86 16 C-86.949 15.856 -87.897 15.711 -88.875 15.562 C-92 15 -92 15 -94 14 C-94 13.01 -94 12.02 -94 11 C-87.994 9.822 -82.617 10.236 -76.562 10.938 C-75.64 11.037 -74.718 11.137 -73.768 11.24 C-71.511 11.486 -69.255 11.739 -67 12 C-67 12.33 -67 12.66 -67 13 C-74.59 13 -82.18 13 -90 13 C-83.51 15.034 -83.51 15.034 -77 17 C-75.167 17.553 -75.167 17.553 -73.297 18.117 C-67.994 19.41 -62.68 19.3 -57.25 19.25 C-56.179 19.242 -55.108 19.234 -54.004 19.225 C-34.525 18.949 -15.15 12.708 0 0 Z " fill="#293093" transform="translate(565,529)"/>
<path d="M0 0 C0.99 0.495 0.99 0.495 2 1 C-6.48 9.077 -16.627 14.417 -27.562 18.375 C-28.209 18.613 -28.856 18.852 -29.523 19.098 C-40.149 22.722 -51.292 23.39 -62.438 23.375 C-64.247 23.374 -64.247 23.374 -66.093 23.372 C-80.55 23.185 -94.385 20.858 -108 16 C-104.547 14.849 -102.862 15.181 -99.312 15.812 C-97.704 16.099 -97.704 16.099 -96.062 16.391 C-93.615 16.878 -91.222 17.421 -88.812 18.062 C-79.909 20.252 -70.885 20.216 -61.771 20.24 C-59.57 20.25 -57.371 20.281 -55.17 20.312 C-48.117 20.364 -41.691 20.172 -34.996 17.647 C-33 17 -33 17 -29 17 C-29 16.34 -29 15.68 -29 15 C-28.362 14.879 -27.724 14.758 -27.066 14.633 C-26.24 14.465 -25.414 14.298 -24.562 14.125 C-23.739 13.963 -22.915 13.8 -22.066 13.633 C-21.384 13.424 -20.703 13.215 -20 13 C-19.67 12.34 -19.34 11.68 -19 11 C-17.333 10.667 -15.667 10.333 -14 10 C-13.67 9.34 -13.34 8.68 -13 8 C-11.328 7.07 -11.328 7.07 -9.25 6.125 C-5.769 4.46 -2.919 2.554 0 0 Z " fill="#333793" transform="translate(615,700)"/>
<path d="M0 0 C0.99 0.495 0.99 0.495 2 1 C-2.706 7.954 -7.347 14.767 -13 21 C-13 16.701 -11.285 14.629 -9 11 C-8.34 10.67 -7.68 10.34 -7 10 C-6.67 9.01 -6.34 8.02 -6 7 C-6.713 7.382 -7.426 7.764 -8.161 8.158 C-22.794 15.965 -37.357 23.381 -53 29 C-54.087 29.397 -55.173 29.794 -56.293 30.203 C-59 31 -59 31 -63 31 C-63.33 31.99 -63.66 32.98 -64 34 C-65.196 33.959 -66.393 33.918 -67.625 33.875 C-71.457 33.862 -74.375 34.739 -78 36 C-81.375 36.125 -81.375 36.125 -84 36 C-81.269 34.179 -79.753 33.539 -76.668 32.773 C-75.798 32.551 -74.928 32.328 -74.032 32.098 C-73.093 31.86 -72.155 31.621 -71.188 31.375 C-53.648 26.733 -36.95 20.666 -21 12 C-20.139 11.536 -19.279 11.071 -18.392 10.593 C-8.643 6.068 -8.643 6.068 0 0 Z " fill="#313797" transform="translate(669,374)"/>
<path d="M0 0 C0.66 0.33 1.32 0.66 2 1 C1.34 1.619 0.68 2.238 0 2.875 C-12.246 15.292 -21.296 30.99 -28 47 C-29.337 42.988 -28.243 41.765 -26.438 38 C-25.887 36.851 -25.337 35.703 -24.77 34.52 C-22.301 29.61 -19.703 24.784 -17 20 C-16.34 20 -15.68 20 -15 20 C-15 19.01 -15 18.02 -15 17 C-16.32 17.33 -17.64 17.66 -19 18 C-19.33 19.32 -19.66 20.64 -20 22 C-20.66 22 -21.32 22 -22 22 C-22.33 21.01 -22.66 20.02 -23 19 C-23.99 19 -24.98 19 -26 19 C-20.277 13.305 -14.317 8.665 -7.5 4.375 C-6.794 3.925 -6.087 3.476 -5.359 3.012 C-3.613 1.939 -1.81 0.96 0 0 Z " fill="#2D38C1" transform="translate(568,218)"/>
<path d="M0 0 C0.66 0.33 1.32 0.66 2 1 C1.734 1.75 1.469 2.5 1.195 3.273 C0.842 4.297 0.489 5.32 0.125 6.375 C-0.223 7.373 -0.571 8.37 -0.93 9.398 C-3.599 18.381 -4.491 27.298 -5.125 36.625 C-5.211 37.82 -5.298 39.015 -5.387 40.246 C-5.597 43.164 -5.801 46.082 -6 49 C-6.33 49 -6.66 49 -7 49 C-7 37.45 -7 25.9 -7 14 C-7.99 15.32 -8.98 16.64 -10 18 C-11.167 19.167 -12.348 20.32 -13.562 21.438 C-15.245 23.052 -15.245 23.052 -16 26 C-16.99 25.67 -17.98 25.34 -19 25 C-19 18.778 -12.099 13.187 -7.949 8.863 C-6.786 7.715 -5.617 6.573 -4.441 5.438 C-2.757 3.758 -1.337 1.966 0 0 Z " fill="#2932AA" transform="translate(437,291)"/>
<path d="M0 0 C-1.878 2.04 -3.775 4.055 -5.688 6.062 C-6.218 6.643 -6.748 7.224 -7.295 7.822 C-8.804 9.387 -10.2 10.78 -12 12 C-14.895 11.871 -14.895 11.871 -17 11 C-17.33 9.02 -17.66 7.04 -18 5 C-19.897 5.035 -19.897 5.035 -21.832 5.07 C-23.492 5.089 -25.152 5.107 -26.812 5.125 C-27.646 5.142 -28.479 5.159 -29.338 5.176 C-30.14 5.182 -30.943 5.189 -31.77 5.195 C-32.877 5.211 -32.877 5.211 -34.007 5.227 C-36 5 -36 5 -39 3 C-38.331 2.95 -37.661 2.9 -36.971 2.848 C-33.876 2.613 -30.782 2.369 -27.688 2.125 C-26.635 2.046 -25.582 1.968 -24.498 1.887 C-18.338 1.394 -12.392 0.614 -6.351 -0.7 C-3.911 -1.011 -2.319 -0.76 0 0 Z " fill="#2E3BC3" transform="translate(564,512)"/>
<path d="M0 0 C0.495 0.99 0.495 0.99 1 2 C0.18 4.039 0.18 4.039 -1.125 6.625 C-11.068 27.785 -12.006 49.07 -10 72 C-16.349 62.477 -14.113 42.959 -11.988 32.25 C-10.062 23.72 -7.546 15.362 -5 7 C-14.25 12.361 -22.037 18.921 -30 26 C-30.66 25.67 -31.32 25.34 -32 25 C-23.176 14.787 -11.2 7.372 0 0 Z " fill="#252D94" transform="translate(514,246)"/>
<path d="M0 0 C5.575 1.64 10.565 4.181 15.75 6.75 C26.627 12.042 38.01 16.916 50 19 C50 19.66 50 20.32 50 21 C63.86 21 77.72 21 92 21 C82.377 27.415 64.665 24.744 53.75 22.875 C51.14 22.297 48.578 21.692 46 21 C45.332 20.823 44.664 20.645 43.975 20.462 C30.309 16.681 9.509 10.729 0 0 Z " fill="#2C3193" transform="translate(442,555)"/>
<path d="M0 0 C0.33 0 0.66 0 1 0 C0.587 5.922 -0.3 11.623 -1.5 17.438 C-2.879 24.283 -3.388 30.99 -3.654 37.96 C-3.954 45.392 -4.868 52.65 -6 60 C-4.946 59.838 -3.891 59.675 -2.805 59.508 C4.894 58.48 12.323 59.009 20 60 C20 60.33 20 60.66 20 61 C10.76 61.33 1.52 61.66 -8 62 C-7.68 49.442 -6.974 37.24 -5.125 24.812 C-4.964 23.716 -4.802 22.62 -4.636 21.491 C-3.499 14.209 -1.904 7.118 0 0 Z " fill="#282E91" transform="translate(335,455)"/>
<path d="M0 0 C0.66 0.33 1.32 0.66 2 1 C0.463 2.087 0.463 2.087 -1.105 3.195 C-2.466 4.171 -3.827 5.148 -5.188 6.125 C-5.861 6.599 -6.535 7.074 -7.229 7.562 C-11.517 10.658 -14.917 13.681 -18 18 C-18.35 20.331 -18.686 22.664 -19 25 C-21.062 26.438 -21.062 26.438 -23 27 C-23.66 26.01 -24.32 25.02 -25 24 C-25.33 24.66 -25.66 25.32 -26 26 C-27.702 26.217 -27.702 26.217 -29.438 26.438 C-30.613 26.623 -31.789 26.809 -33 27 C-33.66 27.99 -34.32 28.98 -35 30 C-38.125 31.188 -38.125 31.188 -41 32 C-38.167 28.189 -35.227 25.413 -31.438 22.562 C-30.89 22.149 -30.343 21.736 -29.779 21.31 C-27.859 19.865 -25.93 18.432 -24 17 C-23.214 16.413 -22.428 15.827 -21.618 15.223 C-19.082 13.332 -16.542 11.446 -14 9.562 C-13.187 8.959 -12.374 8.356 -11.537 7.735 C-3.204 1.596 -3.204 1.596 0 0 Z " fill="#2934AD" transform="translate(714,239)"/>
<path d="M0 0 C0.66 0.33 1.32 0.66 2 1 C-0.242 3.777 -2.495 6.545 -4.75 9.312 C-5.384 10.098 -6.018 10.884 -6.672 11.693 C-7.291 12.451 -7.909 13.208 -8.547 13.988 C-9.395 15.033 -9.395 15.033 -10.261 16.099 C-12.027 18.03 -13.86 19.502 -16 21 C-15.67 19.02 -15.34 17.04 -15 15 C-14.01 15.33 -13.02 15.66 -12 16 C-12 14.35 -12 12.7 -12 11 C-12.869 11.422 -13.738 11.843 -14.633 12.277 C-15.785 12.825 -16.938 13.373 -18.125 13.938 C-19.83 14.755 -19.83 14.755 -21.57 15.59 C-24.784 16.911 -27.599 17.44 -31 18 C-31.33 18.66 -31.66 19.32 -32 20 C-36.106 21.472 -38.826 22.299 -43 21 C-42.319 20.72 -41.639 20.441 -40.938 20.152 C-37.62 18.78 -34.31 17.391 -31 16 C-30.369 15.738 -29.737 15.475 -29.087 15.205 C-13.515 9.288 -13.515 9.288 0 0 Z " fill="#3039AB" transform="translate(638,443)"/>
<path d="M0 0 C0.66 0.33 1.32 0.66 2 1 C0.257 2.487 -1.495 3.965 -3.25 5.438 C-4.712 6.673 -4.712 6.673 -6.203 7.934 C-8.66 9.748 -10.034 10.612 -13 11 C-13 10.34 -13 9.68 -13 9 C-14.151 9.606 -15.302 10.212 -16.488 10.836 C-17.248 11.236 -18.009 11.636 -18.792 12.048 C-20.49 12.942 -22.188 13.836 -23.886 14.731 C-28.323 17.069 -32.763 19.4 -37.211 21.715 C-38.046 22.151 -38.881 22.587 -39.741 23.036 C-41.327 23.863 -42.914 24.689 -44.503 25.511 C-48.939 27.831 -53.184 30.315 -57.365 33.071 C-59 34 -59 34 -61 34 C-61 33.34 -61 32.68 -61 32 C-47.687 24.128 -34.1 16.88 -20.286 9.932 C-18.551 9.059 -16.816 8.183 -15.083 7.305 C-12.626 6.062 -10.164 4.83 -7.699 3.602 C-6.951 3.222 -6.203 2.842 -5.433 2.451 C-3.651 1.573 -1.828 0.777 0 0 Z " fill="#2A3196" transform="translate(830,171)"/>
<path d="M0 0 C0 0.66 0 1.32 0 2 C-6.41 1.428 -12.669 0.368 -18.975 -0.896 C-27.122 -2.496 -35.111 -3.151 -43.41 -3.098 C-44.69 -3.096 -44.69 -3.096 -45.995 -3.093 C-48.684 -3.088 -51.373 -3.075 -54.062 -3.062 C-55.9 -3.057 -57.738 -3.053 -59.576 -3.049 C-64.051 -3.038 -68.525 -3.021 -73 -3 C-73 -3.33 -73 -3.66 -73 -4 C-49.153 -7.827 -23.146 -7.479 0 0 Z " fill="#242A9A" transform="translate(422,688)"/>
<path d="M0 0 C0 3.961 -1.349 4.829 -4 7.688 C-4.742 8.496 -5.485 9.304 -6.25 10.137 C-6.827 10.752 -7.405 11.366 -8 12 C-8.495 11.01 -8.495 11.01 -9 10 C-9.571 10.401 -10.142 10.802 -10.73 11.215 C-12.481 12.442 -14.234 13.667 -15.988 14.891 C-17.951 16.266 -19.908 17.651 -21.855 19.047 C-32.062 26.283 -42.795 33.398 -54 39 C-52.805 35.416 -52.029 35.125 -48.871 33.25 C-48.009 32.73 -47.147 32.209 -46.258 31.673 C-45.327 31.121 -44.397 30.569 -43.438 30 C-20.516 16.625 -20.516 16.625 0 0 Z " fill="#2B3093" transform="translate(705,321)"/>
<path d="M0 0 C0.66 0.33 1.32 0.66 2 1 C1.67 2.65 1.34 4.3 1 6 C0.34 6 -0.32 6 -1 6 C-1.433 7.454 -1.433 7.454 -1.875 8.938 C-4.236 14.614 -9.377 18.175 -14 22 C-14 18.44 -13.107 17.721 -11 15 C-11 14.34 -11 13.68 -11 13 C-9.68 13.33 -8.36 13.66 -7 14 C-7 12.35 -7 10.7 -7 9 C-10.63 9 -14.26 9 -18 9 C-15.648 6.648 -13.324 5.961 -10.234 4.867 C-7.244 3.706 -4.472 2.216 -1.664 0.672 C-1.115 0.45 -0.566 0.228 0 0 Z " fill="#2B38C6" transform="translate(625,453)"/>
<path d="M0 0 C0.66 0.33 1.32 0.66 2 1 C-2.397 4.918 -6.864 8.727 -11.438 12.438 C-15.636 15.85 -19.696 19.375 -23.715 22.996 C-26.109 25.095 -28.573 27.078 -31.062 29.062 C-38.753 35.285 -45.845 42.177 -53 49 C-53.66 48.67 -54.32 48.34 -55 48 C-49.189 42.082 -43.307 36.384 -37 31 C-35.874 30.023 -34.749 29.045 -33.625 28.066 C-10.589 8.017 -10.589 8.017 0 0 Z " fill="#242C8C" transform="translate(671,271)"/>
<path d="M0 0 C0.33 0.66 0.66 1.32 1 2 C-0.109 4.566 -0.109 4.566 -1.75 7.562 C-2.547 9.049 -2.547 9.049 -3.359 10.566 C-5 13 -5 13 -8 14 C-8.124 14.742 -8.247 15.485 -8.375 16.25 C-9.222 19.978 -10.294 22.294 -13 25 C-13.454 24.216 -13.908 23.433 -14.375 22.625 C-15.884 19.963 -15.884 19.963 -18 18 C-17.036 17.12 -16.072 16.239 -15.078 15.332 C-13.802 14.159 -12.526 12.986 -11.25 11.812 C-10.616 11.234 -9.982 10.656 -9.328 10.061 C-5.9 6.9 -2.799 3.754 0 0 Z " fill="#2E3BC5" transform="translate(643,663)"/>
<path d="M0 0 C1.65 0 3.3 0 5 0 C-2.755 8.557 -13.016 14.425 -22.938 20.125 C-23.932 20.706 -24.927 21.288 -25.951 21.887 C-31.08 24.858 -36.258 27.733 -41.504 30.492 C-42.462 30.999 -43.421 31.505 -44.408 32.027 C-47.188 33.071 -48.285 33.076 -51 32 C-50.031 31.527 -49.061 31.054 -48.062 30.566 C-35.358 24.32 -22.976 17.621 -11 10.062 C-10.394 9.685 -9.788 9.307 -9.164 8.918 C-7.738 8.001 -6.363 7.007 -5 6 C-5 5.34 -5 4.68 -5 4 C-4.041 3.845 -4.041 3.845 -3.062 3.688 C-2.382 3.461 -1.701 3.234 -1 3 C-0.67 2.01 -0.34 1.02 0 0 Z " fill="#2C3195" transform="translate(657,365)"/>
<path d="M0 0 C0.99 0.33 1.98 0.66 3 1 C2.423 1.392 1.845 1.783 1.25 2.187 C-11.253 10.672 -23.697 19.227 -36 28 C-36.687 28.49 -37.374 28.979 -38.083 29.484 C-42.058 32.318 -46.031 35.157 -50 38 C-50 37.01 -50 36.02 -50 35 C-48.662 33.717 -48.662 33.717 -46.773 32.434 C-46.078 31.953 -45.382 31.472 -44.665 30.977 C-43.909 30.469 -43.154 29.961 -42.375 29.438 C-40.813 28.364 -39.252 27.29 -37.691 26.215 C-36.51 25.408 -36.51 25.408 -35.305 24.585 C-31.94 22.271 -28.626 19.888 -25.312 17.5 C-22.137 15.214 -18.954 12.97 -15.668 10.844 C-12.935 9.272 -12.935 9.272 -12 7 C-10.293 6.035 -10.293 6.035 -8.188 5.062 C-5.742 3.901 -3.832 2.869 -1.688 1.188 C-1.131 0.796 -0.574 0.404 0 0 Z " fill="#2D3497" transform="translate(709,229)"/>
<path d="M0 0 C1.799 -0.004 1.799 -0.004 3.635 -0.008 C4.891 -0 6.147 0.008 7.441 0.016 C8.663 0.008 9.884 0 11.143 -0.008 C18.957 0.009 26.345 0.712 34.004 2.266 C29.834 5.546 27.246 5.829 22.004 6.266 C22.004 5.606 22.004 4.946 22.004 4.266 C19.159 2.843 16.642 3.046 13.465 2.949 C12.163 2.907 10.861 2.865 9.52 2.822 C8.139 2.782 6.759 2.743 5.379 2.703 C3.991 2.66 2.603 2.616 1.215 2.572 C-2.189 2.466 -5.592 2.364 -8.996 2.266 C-5.513 -0.056 -4.113 0.009 0 0 Z " fill="#383F9B" transform="translate(851.99609375,138.734375)"/>
<path d="M0 0 C1 2 1 2 0.398 3.812 C-0.108 4.895 -0.108 4.895 -0.625 6 C-0.999 6.801 -1.372 7.601 -1.757 8.426 C-2.167 9.275 -2.577 10.125 -3 11 C-3.411 11.859 -3.823 12.718 -4.247 13.603 C-11.662 28.775 -11.662 28.775 -18 33 C-17.711 32.443 -17.423 31.886 -17.125 31.312 C-15.948 29.008 -15.948 29.008 -15.125 26.5 C-14 24 -14 24 -12.125 22.25 C-9.041 18.985 -7.659 15.13 -6 11 C-6.724 11.808 -7.449 12.616 -8.195 13.449 C-9.172 14.529 -10.148 15.608 -11.125 16.688 C-11.599 17.218 -12.074 17.748 -12.562 18.295 C-15.815 21.877 -19.22 24.977 -23 28 C-23.66 27.67 -24.32 27.34 -25 27 C-24.117 26.224 -23.234 25.448 -22.324 24.648 C-13.866 17.081 -6.716 9.141 0 0 Z " fill="#292E85" transform="translate(649,653)"/>
<path d="M0 0 C0.99 0.495 0.99 0.495 2 1 C-14.521 14.396 -32.552 21.233 -53.875 21.062 C-55.48 21.056 -55.48 21.056 -57.117 21.049 C-59.745 21.037 -62.372 21.021 -65 21 C-65 20.67 -65 20.34 -65 20 C-64.019 19.933 -64.019 19.933 -63.019 19.864 C-33.267 18.754 -33.267 18.754 -8 5 C-6.817 4.251 -5.607 3.541 -4.375 2.875 C-1.249 1.341 -1.249 1.341 0 0 Z " fill="#282C91" transform="translate(574,624)"/>
<path d="M0 0 C0.812 1.688 0.812 1.688 1 4 C-0.655 5.678 -2.324 7.343 -4 9 C-12.855 21.531 -19.337 35.7 -24.773 49.988 C-26 53 -26 53 -28 56 C-27.502 50.362 -26.383 45.723 -24 40.562 C-23.692 39.881 -23.383 39.199 -23.066 38.497 C-9.952 9.952 -9.952 9.952 0 0 Z " fill="#293091" transform="translate(369,382)"/>
<path d="M0 0 C1.917 3.487 3.013 7.081 4.188 10.875 C9.357 26.81 17.814 39.782 29.215 52.004 C31 54 31 54 32 56 C16.261 48.947 7.983 28.14 1.836 13.164 C0.177 8.622 -0.308 4.827 0 0 Z " fill="#2B3395" transform="translate(376,421)"/>
<path d="M0 0 C1.32 0.66 2.64 1.32 4 2 C-8.347 11.585 -22.637 18.218 -37 24.188 C-37.95 24.586 -38.899 24.985 -39.878 25.396 C-40.764 25.754 -41.65 26.112 -42.562 26.48 C-43.348 26.799 -44.133 27.118 -44.941 27.446 C-47 28 -47 28 -50 27 C-49.081 26.608 -49.081 26.608 -48.143 26.209 C-23.568 16.484 -23.568 16.484 -1 3 C-0.67 2.01 -0.34 1.02 0 0 Z " fill="#2D3499" transform="translate(604,438)"/>
<path d="M0 0 C0.33 0 0.66 0 1 0 C1 17.16 1 34.32 1 52 C-3.727 44.91 -2.183 34.389 -2.188 26.188 C-2.2 24.885 -2.212 23.582 -2.225 22.24 C-2.236 14.598 -1.716 7.455 0 0 Z " fill="#2A3195" transform="translate(392,375)"/>
<path d="M0 0 C0.66 0.33 1.32 0.66 2 1 C-12.059 13.146 -32.7 24.409 -51 28 C-52.344 27.711 -53.68 27.384 -55 27 C-54.413 26.815 -53.826 26.631 -53.222 26.44 C-35.843 20.888 -18.571 14.254 -4 3 C-3.67 2.34 -3.34 1.68 -3 1 C-2.01 0.67 -1.02 0.34 0 0 Z " fill="#2A3094" transform="translate(607,475)"/>
<path d="M0 0 C-2.31 0.66 -4.62 1.32 -7 2 C-7 2.66 -7 3.32 -7 4 C-15.386 4.932 -23.691 5.183 -32.125 5.188 C-33.941 5.206 -33.941 5.206 -35.793 5.225 C-42.502 5.236 -48.555 4.942 -55 3 C-55.33 2.34 -55.66 1.68 -56 1 C-54.295 1.217 -54.295 1.217 -52.555 1.438 C-37.128 3.324 -22.657 3.923 -7.5 -0.188 C-4.159 -0.963 -3.102 -0.959 0 0 Z " fill="#232A91" transform="translate(548,612)"/>
<path d="M0 0 C0 3 0 3 -1.617 4.98 C-7.136 10.375 -12.874 15.306 -19 20 C-19.66 19.67 -20.32 19.34 -21 19 C-19.68 18.01 -18.36 17.02 -17 16 C-17.247 14.928 -17.495 13.855 -17.75 12.75 C-18 9 -18 9 -16.375 6.625 C-13.84 4.891 -12.03 4.337 -9 4 C-9.99 4.99 -10.98 5.98 -12 7 C-7.735 6.797 -5.568 5.915 -2.625 2.938 C-1.326 1.483 -1.326 1.483 0 0 Z " fill="#2732AC" transform="translate(684,344)"/>
<path d="M0 0 C-0.125 2.25 -0.125 2.25 -1 5 C-3.75 7.375 -3.75 7.375 -7 9 C-9.875 8.75 -9.875 8.75 -12 8 C-11.34 6.35 -10.68 4.7 -10 3 C-10.928 3.681 -11.856 4.361 -12.812 5.062 C-14.39 6.022 -14.39 6.022 -16 7 C-16.99 6.67 -17.98 6.34 -19 6 C-17.232 4.85 -15.46 3.705 -13.688 2.562 C-12.701 1.924 -11.715 1.286 -10.699 0.629 C-6.269 -2.044 -4.617 -2.121 0 0 Z " fill="#2A39C7" transform="translate(794,196)"/>
<path d="M0 0 C0.66 0.33 1.32 0.66 2 1 C-10.474 12.88 -28.653 21.449 -46 22 C-43.22 20.147 -41.217 19.314 -38.062 18.375 C-36.781 17.984 -36.781 17.984 -35.473 17.586 C-33 17 -33 17 -29 17 C-29 16.34 -29 15.68 -29 15 C-28.362 14.879 -27.724 14.758 -27.066 14.633 C-26.24 14.465 -25.414 14.298 -24.562 14.125 C-23.327 13.881 -23.327 13.881 -22.066 13.633 C-21.384 13.424 -20.703 13.215 -20 13 C-19.67 12.34 -19.34 11.68 -19 11 C-17.333 10.667 -15.667 10.333 -14 10 C-13.67 9.34 -13.34 8.68 -13 8 C-11.328 7.07 -11.328 7.07 -9.25 6.125 C-5.769 4.46 -2.919 2.554 0 0 Z " fill="#2C3395" transform="translate(615,700)"/>
<path d="M0 0 C1.682 0.14 1.682 0.14 3.398 0.283 C5.162 0.439 5.162 0.439 6.961 0.598 C8.144 0.698 9.328 0.797 10.547 0.9 C13.477 1.149 16.407 1.402 19.336 1.66 C19.336 1.99 19.336 2.32 19.336 2.66 C11.746 2.66 4.156 2.66 -3.664 2.66 C-0.601 3.619 -0.601 3.619 2.523 4.598 C3.672 4.957 4.821 5.317 6.004 5.688 C8.779 6.498 11.493 7.151 14.336 7.66 C10.692 10.09 8.624 9.822 4.336 9.66 C4.006 8.67 3.676 7.68 3.336 6.66 C2.346 6.99 1.356 7.32 0.336 7.66 C0.336 7 0.336 6.34 0.336 5.66 C-0.613 5.516 -1.562 5.371 -2.539 5.223 C-5.664 4.66 -5.664 4.66 -7.664 3.66 C-7.664 2.67 -7.664 1.68 -7.664 0.66 C-4.93 -0.707 -3.041 -0.261 0 0 Z " fill="#3139A5" transform="translate(478.6640625,539.33984375)"/>
<path d="M0 0 C0 3.731 -0.989 4.689 -3.211 7.633 C-3.879 8.521 -4.546 9.409 -5.234 10.324 C-5.941 11.248 -6.647 12.173 -7.375 13.125 C-8.074 14.057 -8.772 14.989 -9.492 15.949 C-14.725 22.862 -14.725 22.862 -17 24 C-16.34 22.35 -15.68 20.7 -15 19 C-16.32 18.67 -17.64 18.34 -19 18 C-18.67 17.34 -18.34 16.68 -18 16 C-17.34 16 -16.68 16 -16 16 C-15.794 15.381 -15.587 14.762 -15.375 14.125 C-13.459 11.164 -11.288 11.074 -8 10 C-6.048 8.232 -6.048 8.232 -5 6 C-5 4.68 -5 3.36 -5 2 C-4.361 1.856 -3.721 1.711 -3.062 1.562 C-1.025 1.19 -1.025 1.19 0 0 Z " fill="#2936B9" transform="translate(437,481)"/>
<path d="M0 0 C0.66 0.33 1.32 0.66 2 1 C0 4 0 4 -2.688 5.188 C-6.493 7.27 -8.434 9.609 -11.16 12.914 C-12.926 14.916 -14.726 16.471 -16.812 18.125 C-22.703 23.084 -26.681 29.702 -31 36 C-31.991 37.34 -32.986 38.677 -34 40 C-33.505 35.214 -31.226 32.013 -28.438 28.25 C-27.762 27.325 -27.762 27.325 -27.073 26.381 C-19.35 15.932 -10.707 7.361 0 0 Z " fill="#2B3192" transform="translate(590,218)"/>
<path d="M0 0 C0.66 0.33 1.32 0.66 2 1 C-1.924 5.165 -6.039 8.913 -10.5 12.5 C-14.336 15.587 -17.881 18.753 -21.297 22.293 C-24.37 25.373 -27.694 28.175 -31 31 C-31 28 -31 28 -28.625 25.625 C-27.759 24.759 -26.893 23.892 -26 23 C-25.67 22.093 -25.34 21.185 -25 20.25 C-24.67 19.507 -24.34 18.765 -24 18 C-21.562 17.375 -21.562 17.375 -19 17 C-16.772 15.184 -15.622 13.433 -14 11 C-13.34 10.691 -12.68 10.381 -12 10.062 C-9.835 9.169 -9.835 9.169 -9.062 7 C-7.595 4.237 -5.874 4.051 -3 3 C-1.227 1.48 -1.227 1.48 0 0 Z " fill="#273096" transform="translate(772,217)"/>
<path d="M0 0 C0.33 0.66 0.66 1.32 1 2 C8.92 2.33 16.84 2.66 25 3 C25 3.33 25 3.66 25 4 C24.275 4.05 23.55 4.1 22.804 4.152 C19.452 4.387 16.101 4.631 12.75 4.875 C11.61 4.954 10.471 5.032 9.297 5.113 C1.772 5.669 -5.582 6.622 -13 8 C-5.432 0 -5.432 0 0 0 Z " fill="#272EA0" transform="translate(296,537)"/>
<path d="M0 0 C-0.33 1.32 -0.66 2.64 -1 4 C-1.66 4 -2.32 4 -3 4 C-3.103 4.577 -3.206 5.155 -3.312 5.75 C-4.101 8.33 -5.391 9.855 -7 12 C-7.705 14.147 -7.705 14.147 -8 16 C-8.33 16 -8.66 16 -9 16 C-9.66 13.69 -10.32 11.38 -11 9 C-14.024 9.588 -17.018 10.227 -20 11 C-17.986 8.843 -16.098 7.342 -13.496 5.957 C-12.509 5.43 -12.509 5.43 -11.502 4.893 C-10.821 4.536 -10.139 4.18 -9.438 3.812 C-8.752 3.444 -8.067 3.076 -7.361 2.697 C-2.262 0 -2.262 0 0 0 Z " fill="#2F3CC3" transform="translate(663,381)"/>
<path d="M0 0 C0.66 0.33 1.32 0.66 2 1 C-1.96 4.3 -5.92 7.6 -10 11 C-8.94 10.555 -7.881 10.111 -6.789 9.652 C-5.401 9.08 -4.013 8.509 -2.625 7.938 C-1.926 7.643 -1.228 7.348 -0.508 7.045 C1.305 6.304 3.151 5.646 5 5 C5.66 5.33 6.32 5.66 7 6 C1.294 8.941 -4.349 11.83 -10.375 14.062 C-14.722 15.724 -17.631 17.808 -21 21 C-21.66 20.67 -22.32 20.34 -23 20 C-20.673 17.785 -18.337 15.579 -16 13.375 C-15.352 12.758 -14.703 12.14 -14.035 11.504 C-9.586 7.319 -4.964 3.559 0 0 Z " fill="#2F348B" transform="translate(316,686)"/>
<path d="M0 0 C0.66 0.33 1.32 0.66 2 1 C-2.706 7.954 -7.347 14.767 -13 21 C-13 16.701 -11.285 14.629 -9 11 C-8.34 10.67 -7.68 10.34 -7 10 C-6.67 9.01 -6.34 8.02 -6 7 C-12.93 10.465 -12.93 10.465 -20 14 C-18.813 10.44 -18.189 10.259 -15 8.555 C-13.793 7.899 -13.793 7.899 -12.562 7.23 C-11.717 6.783 -10.871 6.336 -10 5.875 C-8.333 4.978 -6.666 4.079 -5 3.18 C-4.258 2.785 -3.515 2.39 -2.75 1.984 C-1.031 1.121 -1.031 1.121 0 0 Z " fill="#262E91" transform="translate(669,374)"/>
<path d="M0 0 C1 2 1 2 0.07 5.496 C-1.767 13.201 -1.209 21.194 -1.125 29.062 C-1.115 30.708 -1.106 32.353 -1.098 33.998 C-1.076 37.999 -1.041 41.999 -1 46 C-1.33 46 -1.66 46 -2 46 C-4.344 34.113 -4.202 22.387 -4.032 10.322 C-4.007 8.548 -4 6.774 -4 5 C-2 2.312 -2 2.312 0 0 Z " fill="#2D3396" transform="translate(376,373)"/>
<path d="M0 0 C0.66 0.33 1.32 0.66 2 1 C-21.742 26.555 -21.742 26.555 -28 31 C-28.66 30.67 -29.32 30.34 -30 30 C-28.625 28.5 -28.625 28.5 -27 27 C-26.34 27 -25.68 27 -25 27 C-25.66 25.35 -26.32 23.7 -27 22 C-26.01 21.67 -25.02 21.34 -24 21 C-24 21.66 -24 22.32 -24 23 C-19.828 20.739 -16.571 17.906 -13.25 14.562 C-12.756 14.085 -12.263 13.607 -11.754 13.115 C-9.122 10.487 -7.675 8.652 -7 5 C-4.562 3.375 -4.562 3.375 -2 2 C-1.34 1.34 -0.68 0.68 0 0 Z " fill="#262D90" transform="translate(652,397)"/>
<path d="M0 0 C0.66 0.33 1.32 0.66 2 1 C-0.695 3.269 -3.39 5.524 -6.168 7.691 C-11.232 11.648 -16.078 15.784 -20.812 20.125 C-21.351 20.616 -21.89 21.106 -22.446 21.612 C-25.094 24.066 -27.501 26.547 -29.762 29.367 C-30.5 30.236 -31.239 31.105 -32 32 C-32.66 32 -33.32 32 -34 32 C-34.66 33.32 -35.32 34.64 -36 36 C-36 31.036 -32.292 28.483 -29 25 C-28.162 24.098 -27.324 23.195 -26.461 22.266 C-18.425 13.814 -9.394 6.877 0 0 Z " fill="#23288B" transform="translate(630,217)"/>
<path d="M0 0 C0 0.33 0 0.66 0 1 C-7.59 1 -15.18 1 -23 1 C-23 1.66 -23 2.32 -23 3 C-23.944 3.11 -24.887 3.219 -25.859 3.332 C-34.095 4.349 -41.988 5.762 -50 8 C-50.33 7.34 -50.66 6.68 -51 6 C-33.715 0.661 -18.056 -0.287 0 0 Z " fill="#484EA2" transform="translate(396,665)"/>
<path d="M0 0 C2.835 2.835 2.315 5.002 2.379 8.883 C2.378 9.808 2.376 10.734 2.375 11.688 C2.375 12.63 2.375 13.572 2.375 14.543 C2.21 24.727 -0.103 33.59 -4 43 C-5.284 39.148 -4.292 37.804 -3 34 C-2.782 32.567 -2.595 31.129 -2.438 29.688 C-2 26 -2 26 -1 25 C-0.842 23.148 -0.749 21.291 -0.684 19.434 C-0.642 18.309 -0.6 17.184 -0.557 16.025 C-0.517 14.841 -0.478 13.657 -0.438 12.438 C-0.373 10.656 -0.373 10.656 -0.307 8.838 C-0.2 5.892 -0.098 2.946 0 0 Z " fill="#2A3196" transform="translate(601,554)"/>
<path d="M0 0 C6.665 1.257 12.294 3.214 18.375 6.188 C19.198 6.583 20.022 6.979 20.87 7.386 C27.224 10.493 33.196 13.944 39 18 C38.34 18.66 37.68 19.32 37 20 C36.259 19.515 35.518 19.031 34.754 18.531 C23.706 11.499 12.039 6.108 0 1 C0 0.67 0 0.34 0 0 Z " fill="#31379C" transform="translate(341,545)"/>
<path d="M0 0 C0.66 0.33 1.32 0.66 2 1 C1.734 1.75 1.469 2.5 1.195 3.273 C0.842 4.297 0.489 5.32 0.125 6.375 C-0.223 7.373 -0.571 8.37 -0.93 9.398 C-3.599 18.381 -4.491 27.298 -5.125 36.625 C-5.211 37.82 -5.298 39.015 -5.387 40.246 C-5.597 43.164 -5.801 46.082 -6 49 C-6.33 49 -6.66 49 -7 49 C-7.217 37.123 -7.067 25.734 -5 14 C-4.844 13.094 -4.688 12.188 -4.527 11.254 C-3.687 6.951 -2.581 3.637 0 0 Z " fill="#1F2892" transform="translate(437,291)"/>
<path d="M0 0 C0.66 0.33 1.32 0.66 2 1 C-8.084 10.41 -18.92 18.801 -30 27 C-29.691 26.402 -29.381 25.804 -29.062 25.188 C-27.898 22.91 -27.898 22.91 -27 20 C-25.341 19.315 -23.673 18.652 -22 18 C-20.035 16.585 -18.119 15.101 -16.25 13.562 C-15.286 12.78 -14.322 11.998 -13.328 11.191 C-10.785 9.144 -10.785 9.144 -10 6 C-9.381 5.856 -8.763 5.711 -8.125 5.562 C-5.283 4.81 -4.678 3.334 -3 1 C-2.01 0.67 -1.02 0.34 0 0 Z " fill="#30379D" transform="translate(637,281)"/>
<path d="M0 0 C-0.33 0.99 -0.66 1.98 -1 3 C-2.978 3.768 -2.978 3.768 -5.551 4.316 C-6.94 4.627 -6.94 4.627 -8.357 4.943 C-9.82 5.25 -9.82 5.25 -11.312 5.562 C-13.226 5.976 -15.139 6.394 -17.051 6.816 C-17.903 6.996 -18.756 7.176 -19.634 7.362 C-21.965 7.991 -23.858 8.907 -26 10 C-28.359 10.195 -28.359 10.195 -30.75 10.125 C-31.549 10.107 -32.348 10.089 -33.172 10.07 C-33.775 10.047 -34.378 10.024 -35 10 C-32.001 8.001 -29.823 7.255 -26.379 6.309 C-24.729 5.851 -24.729 5.851 -23.045 5.385 C-21.321 4.916 -21.321 4.916 -19.562 4.438 C-18.417 4.121 -17.272 3.805 -16.092 3.479 C-13.063 2.644 -10.034 1.814 -7 1 C-6.283 0.803 -5.566 0.606 -4.828 0.403 C-3 0 -3 0 0 0 Z " fill="#31379E" transform="translate(788,150)"/>
<path d="M0 0 C0.99 0 1.98 0 3 0 C3.185 10.558 3.185 10.558 2 15 C0.68 14.01 -0.64 13.02 -2 12 C-2.66 13.32 -3.32 14.64 -4 16 C-4.99 16 -5.98 16 -7 16 C-6.499 11.615 -5.017 9.2 -2 6 C-1.34 6 -0.68 6 0 6 C-0.278 4.793 -0.278 4.793 -0.562 3.562 C-0.707 2.717 -0.851 1.871 -1 1 C-0.67 0.67 -0.34 0.34 0 0 Z " fill="#303BC7" transform="translate(370,380)"/>
<path d="M0 0 C1.32 0.66 2.64 1.32 4 2 C-0.477 7.436 -6.499 10.446 -13 13 C-13.66 12.67 -14.32 12.34 -15 12 C-10.21 7.614 -5.541 3.41 0 0 Z " fill="#2F38C5" transform="translate(320,685)"/>
<path d="M0 0 C0.66 0.33 1.32 0.66 2 1 C1.229 1.489 0.458 1.977 -0.336 2.48 C-3.834 5.789 -4.502 8.738 -5.625 13.312 C-7.047 18.783 -8.647 23.852 -11 29 C-10.34 29.33 -9.68 29.66 -9 30 C-11.97 32.475 -11.97 32.475 -15 35 C-14.412 33.298 -14.412 33.298 -13.812 31.562 C-11.994 26.124 -10.396 20.625 -8.802 15.117 C-8.209 13.076 -7.606 11.038 -7 9 C-6.671 7.879 -6.343 6.757 -6.004 5.602 C-5 3 -5 3 -2.5 1.062 C-1.675 0.712 -0.85 0.361 0 0 Z " fill="#292F91" transform="translate(296,667)"/>
<path d="M0 0 C-5.994 5.994 -14.975 6.598 -23 7 C-25.396 7.183 -27.792 7.37 -30.188 7.562 C-32.125 7.709 -34.062 7.855 -36 8 C-32.769 5.846 -30.531 5.3 -26.758 4.492 C-25.527 4.228 -24.296 3.964 -23.027 3.691 C-21.74 3.422 -20.452 3.153 -19.125 2.875 C-17.845 2.598 -16.565 2.321 -15.246 2.035 C-4.811 -0.178 -4.811 -0.178 0 0 Z " fill="#323B9A" transform="translate(594,465)"/>
<path d="M0 0 C0.66 0.33 1.32 0.66 2 1 C1.11 2.088 0.213 3.17 -0.688 4.25 C-1.186 4.853 -1.685 5.457 -2.199 6.078 C-4 8 -4 8 -6.352 9.762 C-9.76 12.643 -12.118 15.938 -14.688 19.562 C-15.173 20.235 -15.658 20.907 -16.158 21.6 C-18.154 24.372 -20.105 27.157 -22 30 C-22.66 29.67 -23.32 29.34 -24 29 C-19.24 21.764 -14.261 14.891 -8.625 8.312 C-8.114 7.713 -7.602 7.113 -7.075 6.496 C-4.838 3.922 -2.853 1.902 0 0 Z " fill="#2C338F" transform="translate(481,272)"/>
<path d="M0 0 C-0.25 3.381 -1.281 4.281 -3.75 6.75 C-7.016 9.011 -8.169 9.563 -12 9 C-11.34 8.01 -10.68 7.02 -10 6 C-11.65 6.33 -13.3 6.66 -15 7 C-12.861 4.735 -10.671 2.952 -8.062 1.25 C-7.393 0.801 -6.724 0.353 -6.035 -0.109 C-3.572 -1.187 -2.478 -0.909 0 0 Z " fill="#2A3AC8" transform="translate(683,343)"/>
<path d="M0 0 C6.002 -0.218 11.192 0.494 17 2 C17 2.66 17 3.32 17 4 C17.928 4.082 18.856 4.165 19.812 4.25 C25.125 4.982 30.028 7.067 35 9 C35 9.33 35 9.66 35 10 C29.434 9.443 24.482 8.395 19.188 6.625 C17.796 6.174 16.404 5.725 15.012 5.277 C14.335 5.059 13.659 4.841 12.962 4.617 C8.681 3.271 4.342 2.131 0 1 C0 0.67 0 0.34 0 0 Z " fill="#2E349B" transform="translate(426,691)"/>
<path d="M0 0 C1.32 0.33 2.64 0.66 4 1 C4 1.99 4 2.98 4 4 C3.01 4.495 3.01 4.495 2 5 C0.878 6.88 0.878 6.88 -0.125 9.062 C-0.655 10.163 -0.655 10.163 -1.195 11.285 C-1.594 12.134 -1.594 12.134 -2 13 C-2.99 13 -3.98 13 -5 13 C-4.67 11.68 -4.34 10.36 -4 9 C-5.32 9.33 -6.64 9.66 -8 10 C-8 9.01 -8 8.02 -8 7 C-8.66 6.34 -9.32 5.68 -10 5 C-7.69 4.01 -5.38 3.02 -3 2 C-2.01 3.485 -2.01 3.485 -1 5 C-0.67 3.35 -0.34 1.7 0 0 Z " fill="#2D3AC5" transform="translate(549,234)"/>
<path d="M0 0 C3.164 3.164 5.015 6.405 7.062 10.312 C7.589 11.29 7.589 11.29 8.127 12.287 C11.455 18.573 13.289 23.764 13 31 C12.34 30.67 11.68 30.34 11 30 C10.254 27.523 10.254 27.523 9.562 24.375 C8.449 19.613 7.103 15.406 5 11 C4.01 11 3.02 11 2 11 C1.34 7.37 0.68 3.74 0 0 Z " fill="#272E93" transform="translate(588,522)"/>
<path d="M0 0 C0.33 0 0.66 0 1 0 C1.565 10.923 -0.491 21.501 -6 31 C-6.33 30.34 -6.66 29.68 -7 29 C-6.258 27.074 -6.258 27.074 -5.125 24.688 C-2.525 18.563 -2.207 12.589 -2 6 C-3.98 7.98 -5.96 9.96 -8 12 C-8.66 11.67 -9.32 11.34 -10 11 C-9.529 10.541 -9.059 10.082 -8.574 9.609 C-5.46 6.54 -2.561 3.557 0 0 Z " fill="#272F91" transform="translate(578,516)"/>
<path d="M0 0 C-1.39 2.78 -3.187 2.875 -6 4 C-6.33 4.66 -6.66 5.32 -7 6 C-7.99 6 -8.98 6 -10 6 C-10.062 6.784 -10.124 7.567 -10.188 8.375 C-10.456 9.241 -10.724 10.108 -11 11 C-13.562 12.312 -13.562 12.312 -16 13 C-16 13.99 -16 14.98 -16 16 C-17.98 16.33 -19.96 16.66 -22 17 C-18.454 12.707 -14.755 8.62 -10.875 4.625 C-10.047 3.772 -9.22 2.918 -8.367 2.039 C-5.466 -0.46 -3.573 -1.786 0 0 Z " fill="#323BAB" transform="translate(581,357)"/>
<path d="M0 0 C11.329 -0.499 21.882 1.009 33 3 C33.495 4.485 33.495 4.485 34 6 C27.547 5.424 21.256 4.325 14.902 3.093 C9.938 2.143 5.032 1.449 0 1 C0 0.67 0 0.34 0 0 Z " fill="#393FA2" transform="translate(388,684)"/>
<path d="M0 0 C0 0.66 0 1.32 0 2 C-2.203 3.156 -4.412 4.3 -6.625 5.438 C-7.242 5.763 -7.86 6.088 -8.496 6.424 C-12.362 8.397 -15.74 9.341 -20 10 C-20.33 10.66 -20.66 11.32 -21 12 C-25.106 13.472 -27.826 14.299 -32 13 C-31.319 12.72 -30.639 12.441 -29.938 12.152 C-23.721 9.582 -17.537 6.947 -11.375 4.25 C-10.676 3.944 -9.978 3.639 -9.258 3.324 C-1.684 0 -1.684 0 0 0 Z " fill="#33379C" transform="translate(627,451)"/>
<path d="M0 0 C-2.618 1.19 -5.237 2.38 -7.855 3.57 C-9.858 4.481 -11.861 5.392 -13.863 6.305 C-15.692 7.138 -17.523 7.967 -19.355 8.793 C-21.097 9.588 -22.829 10.402 -24.551 11.238 C-25.338 11.613 -26.126 11.989 -26.938 12.375 C-27.627 12.713 -28.317 13.05 -29.027 13.398 C-31.407 14.124 -32.649 13.674 -35 13 C-31.068 11.165 -27.136 9.332 -23.202 7.501 C-21.864 6.878 -20.526 6.254 -19.189 5.63 C-17.266 4.732 -15.342 3.837 -13.418 2.941 C-12.261 2.402 -11.103 1.863 -9.911 1.307 C-6.046 -0.428 -4.048 -1.256 0 0 Z " fill="#2F3595" transform="translate(706,179)"/>
<path d="M0 0 C4.398 0.564 7.196 2.2 10.875 4.625 C17.924 9.157 25.349 12.614 33 16 C29.589 17.131 29.054 17.022 25.461 15.559 C24.092 14.865 22.73 14.157 21.375 13.438 C20.665 13.071 19.955 12.704 19.224 12.325 C4.134 4.447 4.134 4.447 0 0 Z " fill="#31369A" transform="translate(447,621)"/>
<path d="M0 0 C0.33 0 0.66 0 1 0 C1.66 10.56 2.32 21.12 3 32 C1 31 1 31 0.374 29.281 C-0.892 23.496 -1.276 18.037 -1.188 12.125 C-1.187 11.285 -1.186 10.444 -1.186 9.578 C-1.16 6.061 -1.122 3.367 0 0 Z " fill="#31399C" transform="translate(443,342)"/>
<path d="M0 0 C-0.75 2.438 -0.75 2.438 -2 5 C-4.062 5.625 -4.062 5.625 -6 6 C-6.33 6.99 -6.66 7.98 -7 9 C-7.99 9.33 -8.98 9.66 -10 10 C-11.188 7.25 -11.188 7.25 -12 4 C-9.314 -1.372 -5.401 0 0 0 Z " fill="#2937C9" transform="translate(594,223)"/>
<path d="M0 0 C-1 3 -1 3 -4.246 4.832 C-5.639 5.501 -7.036 6.161 -8.438 6.812 C-14.222 9.588 -19.761 12.515 -25.18 15.969 C-27 17 -27 17 -29 17 C-29 16.34 -29 15.68 -29 15 C-25.251 12.873 -21.501 10.749 -17.75 8.625 C-16.687 8.022 -15.623 7.418 -14.527 6.797 C-13.503 6.217 -12.478 5.637 -11.422 5.039 C-10.479 4.505 -9.537 3.971 -8.565 3.42 C-2.388 0 -2.388 0 0 0 Z " fill="#2A3397" transform="translate(798,188)"/>
<path d="M0 0 C-2.908 1.939 -4.377 2.441 -7.711 3.07 C-8.626 3.244 -9.541 3.418 -10.484 3.598 C-11.438 3.772 -12.392 3.946 -13.375 4.125 C-14.321 4.307 -15.267 4.489 -16.242 4.676 C-20.571 5.484 -24.583 6.101 -29 6 C-29 6.66 -29 7.32 -29 8 C-31.31 7.67 -33.62 7.34 -36 7 C-32.775 5.184 -29.758 4.411 -26.133 3.711 C-25 3.492 -23.867 3.273 -22.699 3.047 C-21.52 2.825 -20.34 2.603 -19.125 2.375 C-17.367 2.031 -17.367 2.031 -15.574 1.68 C-10.289 0.672 -5.398 -0.132 0 0 Z " fill="#303799" transform="translate(824,143)"/>
<path d="M0 0 C14.738 1.804 14.738 1.804 19.375 3.062 C23.574 4.148 27.689 4.621 32 5 C31.67 5.66 31.34 6.32 31 7 C23.369 6.735 16.176 5.784 8.75 4.062 C7.999 3.893 7.248 3.723 6.475 3.548 C4.632 3.101 2.812 2.558 1 2 C0.67 1.34 0.34 0.68 0 0 Z " fill="#33399B" transform="translate(507,715)"/>
<path d="M0 0 C0.33 0.66 0.66 1.32 1 2 C0.199 3.673 0.199 3.673 -1.098 5.676 C-1.567 6.416 -2.037 7.156 -2.52 7.918 C-3.029 8.708 -3.538 9.499 -4.062 10.312 C-8.694 17.666 -12.638 24.971 -16 33 C-17.337 28.988 -16.243 27.765 -14.438 24 C-13.612 22.277 -13.612 22.277 -12.77 20.52 C-10.301 15.61 -7.703 10.784 -5 6 C-4.34 6 -3.68 6 -3 6 C-2.691 5.196 -2.381 4.391 -2.062 3.562 C-1 1 -1 1 0 0 Z " fill="#282F92" transform="translate(556,232)"/>
<path d="M0 0 C2.31 0.33 4.62 0.66 7 1 C7 2.65 7 4.3 7 6 C5.68 5.67 4.36 5.34 3 5 C3.33 5.99 3.66 6.98 4 8 C2.02 8.99 2.02 8.99 0 10 C-2.215 4.585 -2.215 4.585 -1.125 1.625 C-0.754 1.089 -0.383 0.553 0 0 Z " fill="#2739C9" transform="translate(611,461)"/>
<path d="M0 0 C0.33 0 0.66 0 1 0 C0.75 6.109 -0.016 10.84 -3.031 16.191 C-4.165 18.16 -4.165 18.16 -4.938 21.188 C-6.47 25.244 -9.11 28.055 -13 30 C-11.725 26.556 -10.216 23.677 -8.188 20.625 C-4.216 14.184 -2.168 7.196 0 0 Z " fill="#242991" transform="translate(592,558)"/>
<path d="M0 0 C0.66 0.33 1.32 0.66 2 1 C-2.41 4.975 -7.28 7.195 -12.625 9.625 C-14.326 10.407 -16.027 11.191 -17.727 11.977 C-18.475 12.318 -19.223 12.659 -19.995 13.01 C-22.229 14.059 -22.229 14.059 -25 16 C-25.99 15.67 -26.98 15.34 -28 15 C-20.902 10.268 -13.352 6.561 -5.693 2.838 C-4.324 2.161 -2.978 1.437 -1.641 0.699 C-1.099 0.468 -0.558 0.238 0 0 Z " fill="#2D3498" transform="translate(647,360)"/>
<path d="M0 0 C0.33 0 0.66 0 1 0 C1.049 1.281 1.098 2.563 1.148 3.883 C1.575 14.046 2.288 23.96 4 34 C3.01 34.495 3.01 34.495 2 35 C-2.845 24.52 -1.034 11.218 0 0 Z " fill="#424BAF" transform="translate(431,325)"/>
<path d="M0 0 C2.679 2.319 3.662 4.318 4.688 7.688 C4.939 8.496 5.19 9.304 5.449 10.137 C5.631 10.752 5.813 11.366 6 12 C5.01 12 4.02 12 3 12 C2.67 15.96 2.34 19.92 2 24 C1.67 24 1.34 24 1 24 C0.636 20.376 0.286 16.751 -0.062 13.125 C-0.218 11.576 -0.218 11.576 -0.377 9.996 C-0.47 9.01 -0.564 8.024 -0.66 7.008 C-0.749 6.097 -0.838 5.185 -0.93 4.247 C-1 2 -1 2 0 0 Z " fill="#2931AE" transform="translate(592,532)"/>
<path d="M0 0 C0.66 0.33 1.32 0.66 2 1 C0.381 2.673 -1.245 4.338 -2.875 6 C-3.78 6.928 -4.685 7.856 -5.617 8.812 C-8 11 -8 11 -10 11 C-10.66 9.35 -11.32 7.7 -12 6 C-11.361 5.732 -10.721 5.464 -10.062 5.188 C-7.669 4.113 -7.669 4.113 -7 1 C-5.546 1.031 -5.546 1.031 -4.062 1.062 C-1.125 1.356 -1.125 1.356 0 0 Z " fill="#2833AC" transform="translate(573,336)"/>
<path d="M0 0 C0.605 0.195 1.209 0.389 1.832 0.59 C-0.353 1.554 -2.541 2.511 -4.73 3.465 C-5.34 3.734 -5.949 4.004 -6.576 4.281 C-10.713 6.076 -14.808 7.434 -19.168 8.59 C-18.508 6.61 -17.848 4.63 -17.168 2.59 C-16.588 2.625 -16.008 2.659 -15.41 2.695 C-10.042 2.881 -4.511 -0.853 0 0 Z " fill="#2931AA" transform="translate(603.16796875,399.41015625)"/>
<path d="M0 0 C1.701 2.552 2.602 4.401 3.586 7.238 C3.877 8.059 4.169 8.879 4.469 9.725 C5.068 11.437 5.665 13.151 6.258 14.865 C8.013 19.788 9.997 23.734 13 28 C13 28.66 13 29.32 13 30 C12.34 30 11.68 30 11 30 C9.724 27.503 8.454 25.002 7.188 22.5 C6.653 21.456 6.653 21.456 6.107 20.391 C-0.541 7.215 -0.541 7.215 0 0 Z " fill="#2D3397" transform="translate(434,359)"/>
<path d="M0 0 C0.66 0.33 1.32 0.66 2 1 C-4.435 6.94 -4.435 6.94 -11 13 C-11.99 12.67 -12.98 12.34 -14 12 C-13.34 10.02 -12.68 8.04 -12 6 C-10.02 6 -8.04 6 -6 6 C-6 5.01 -6 4.02 -6 3 C-5.196 2.691 -4.391 2.381 -3.562 2.062 C-1.109 1.237 -1.109 1.237 0 0 Z " fill="#343CB4" transform="translate(299,684)"/>
<path d="M0 0 C0.66 0 1.32 0 2 0 C0.436 3.796 -1.954 6.157 -4.875 9 C-5.739 9.846 -6.602 10.691 -7.492 11.562 C-8.734 12.769 -8.734 12.769 -10 14 C-11.336 15.331 -12.67 16.664 -14 18 C-14 14.39 -13.039 11.442 -12 8 C-11.237 8.062 -10.474 8.124 -9.688 8.188 C-6.996 8.244 -6.996 8.244 -5.25 6.688 C-3.797 4.909 -3.797 4.909 -3 2 C-2.01 2 -1.02 2 0 2 C0 1.34 0 0.68 0 0 Z " fill="#2832AA" transform="translate(652,335)"/>
<path d="M0 0 C0.66 0.33 1.32 0.66 2 1 C-0.215 5.317 -2.722 7.56 -6.688 10.312 C-7.681 11.01 -8.675 11.707 -9.699 12.426 C-10.458 12.945 -11.218 13.465 -12 14 C-12.66 13.67 -13.32 13.34 -14 13 C-12.438 11.828 -10.875 10.656 -9.312 9.484 C-7.558 7.831 -7.558 7.831 -8 4 C-6.713 3.303 -5.421 2.618 -4.125 1.938 C-3.406 1.555 -2.686 1.172 -1.945 0.777 C-0.982 0.393 -0.982 0.393 0 0 Z " fill="#2F37A9" transform="translate(817,179)"/>
<path d="M0 0 C-0.458 3.469 -0.891 6.674 -2 10 C-3.32 10 -4.64 10 -6 10 C-8 7 -8 7 -7.938 5 C-6.427 1.778 -3.569 0 0 0 Z " fill="#2C38C8" transform="translate(509,253)"/>
<path d="M0 0 C-0.987 0.411 -1.975 0.822 -2.992 1.246 C-7.124 3.017 -11.12 5.022 -15.125 7.062 C-19.361 9.22 -23.543 11.326 -28 13 C-24.098 8.624 -20.145 6.246 -14.875 3.75 C-13.802 3.224 -13.802 3.224 -12.707 2.688 C-4.38 -1.359 -4.38 -1.359 0 0 Z " fill="#292D92" transform="translate(346,673)"/>
<path d="M0 0 C0.99 0.33 1.98 0.66 3 1 C2.178 1.545 1.355 2.091 0.508 2.652 C-6.877 7.617 -13.55 12.842 -20 19 C-20.66 18.67 -21.32 18.34 -22 18 C-17.357 12.838 -12.286 8.511 -6.688 4.438 C-6.077 3.984 -5.466 3.53 -4.837 3.063 C-3.074 1.809 -3.074 1.809 0 0 Z " fill="#242A8D" transform="translate(504,253)"/>
<path d="M0 0 C0.66 0.33 1.32 0.66 2 1 C-1.17 4.26 -4.399 7.222 -8 10 C-8.33 9.34 -8.66 8.68 -9 8 C-11.64 9.98 -14.28 11.96 -17 14 C-17.66 13.67 -18.32 13.34 -19 13 C-13.078 8.165 -6.959 3.263 0 0 Z " fill="#24298A" transform="translate(568,218)"/>
<path d="M0 0 C0 3.961 -1.349 4.829 -4 7.688 C-4.742 8.496 -5.485 9.304 -6.25 10.137 C-6.827 10.752 -7.405 11.366 -8 12 C-8.33 11.34 -8.66 10.68 -9 10 C-9.928 10.681 -10.856 11.361 -11.812 12.062 C-12.864 12.702 -13.916 13.341 -15 14 C-15.99 13.67 -16.98 13.34 -18 13 C-17.455 12.648 -16.909 12.296 -16.348 11.934 C-10.674 8.219 -5.297 4.233 0 0 Z " fill="#2D3695" transform="translate(705,321)"/>
<path d="M0 0 C0.981 0.859 1.962 1.717 2.973 2.602 C6.993 6.047 11.185 9.224 15.438 12.375 C16.169 12.92 16.901 13.466 17.654 14.027 C19.435 15.354 21.216 16.678 23 18 C22.01 18.33 21.02 18.66 20 19 C17.871 17.664 17.871 17.664 15.438 15.625 C14.562 14.893 13.687 14.161 12.785 13.406 C11.407 12.215 11.407 12.215 10 11 C9.05 10.185 8.1 9.371 7.121 8.531 C1.952 4.002 1.952 4.002 0 2 C0 1.34 0 0.68 0 0 Z " fill="#2B3292" transform="translate(426,602)"/>
<path d="M0 0 C0.66 0.33 1.32 0.66 2 1 C-3.94 6.94 -9.88 12.88 -16 19 C-16.66 18.67 -17.32 18.34 -18 18 C-16.35 16.02 -14.7 14.04 -13 12 C-13.66 11.67 -14.32 11.34 -15 11 C-13.666 10.648 -13.666 10.648 -12.305 10.289 C-8.614 8.849 -6.825 7.238 -4.125 4.375 C-3.344 3.558 -2.563 2.74 -1.758 1.898 C-1.178 1.272 -0.598 0.645 0 0 Z " fill="#1F278A" transform="translate(545,362)"/>
<path d="M0 0 C-2.31 0.66 -4.62 1.32 -7 2 C-7 2.66 -7 3.32 -7 4 C-9.458 4.221 -11.915 4.428 -14.375 4.625 C-15.423 4.722 -15.423 4.722 -16.492 4.82 C-18.324 4.961 -20.163 4.988 -22 5 C-22.66 4.34 -23.32 3.68 -24 3 C-22.84 2.818 -22.84 2.818 -21.656 2.633 C-14.522 1.488 -14.522 1.488 -7.5 -0.188 C-4.159 -0.963 -3.102 -0.959 0 0 Z " fill="#323899" transform="translate(548,612)"/>
<path d="M0 0 C-0.33 0.99 -0.66 1.98 -1 3 C-11.23 3 -21.46 3 -32 3 C-32 2.67 -32 2.34 -32 2 C-28.167 1.661 -24.334 1.33 -20.5 1 C-18.884 0.857 -18.884 0.857 -17.234 0.711 C-11.464 0.218 -5.791 -0.112 0 0 Z " fill="#212996" transform="translate(557,513)"/>
<path d="M0 0 C1.333 2.667 0.671 4.167 0 7 C-0.99 7.33 -1.98 7.66 -3 8 C-3 8.66 -3 9.32 -3 10 C-3.639 10.124 -4.279 10.247 -4.938 10.375 C-5.618 10.581 -6.299 10.788 -7 11 C-7.33 11.66 -7.66 12.32 -8 13 C-7.552 8.071 -5.16 4.662 -2 1 C-1.34 0.67 -0.68 0.34 0 0 Z " fill="#2A33AB" transform="translate(444,510)"/>
<path d="M0 0 C9.9 0.33 19.8 0.66 30 1 C30 1.33 30 1.66 30 2 C23.73 2 17.46 2 11 2 C11 2.66 11 3.32 11 4 C7.37 3.01 3.74 2.02 0 1 C0 0.67 0 0.34 0 0 Z " fill="#DFE4FE" transform="translate(472,541)"/>
<path d="M0 0 C0 0.66 0 1.32 0 2 C-0.99 2.33 -1.98 2.66 -3 3 C3.27 3.33 9.54 3.66 16 4 C16 4.33 16 4.66 16 5 C9.07 5 2.14 5 -5 5 C-5.33 4.01 -5.66 3.02 -6 2 C-6.66 1.67 -7.32 1.34 -8 1 C-4.933 -0.862 -3.403 -1.215 0 0 Z " fill="#333DBB" transform="translate(302,535)"/>
<path d="M0 0 C-0.33 1.32 -0.66 2.64 -1 4 C-1.66 4 -2.32 4 -3 4 C-3.33 5.32 -3.66 6.64 -4 8 C-5.65 8.33 -7.3 8.66 -9 9 C-8.875 6.75 -8.875 6.75 -8 4 C-2.919 0 -2.919 0 0 0 Z " fill="#2A38CC" transform="translate(663,381)"/>
<path d="M0 0 C0.66 0 1.32 0 2 0 C2 2 2 2 0.531 3.48 C-0.139 4.044 -0.809 4.607 -1.5 5.188 C-5.174 8.299 -8.769 11.482 -12.336 14.715 C-14 16 -14 16 -16 16 C-15.75 14.125 -15.75 14.125 -15 12 C-13.188 10.875 -13.188 10.875 -11 10 C-10.258 9.629 -9.515 9.257 -8.75 8.875 C-8.173 8.586 -7.595 8.298 -7 8 C-7 7.01 -7 6.02 -7 5 C-4.625 3.438 -4.625 3.438 -2 2 C-1.34 1.34 -0.68 0.68 0 0 Z " fill="#2A309C" transform="translate(595,316)"/>
<path d="M0 0 C0.33 0 0.66 0 1 0 C1 5.28 1 10.56 1 16 C1.66 16 2.32 16 3 16 C2.67 19.96 2.34 23.92 2 28 C1.34 28 0.68 28 0 28 C0 18.76 0 9.52 0 0 Z " fill="#D1D4F8" transform="translate(534,288)"/>
<path d="M0 0 C-0.639 0.124 -1.279 0.248 -1.938 0.375 C-2.618 0.581 -3.299 0.787 -4 1 C-4.33 1.66 -4.66 2.32 -5 3 C-7.305 3.638 -9.615 4.02 -11.969 4.438 C-12.974 4.716 -12.974 4.716 -14 5 C-14.33 5.66 -14.66 6.32 -15 7 C-17.066 7.414 -17.066 7.414 -19.562 7.625 C-20.389 7.7 -21.215 7.775 -22.066 7.852 C-23.024 7.925 -23.024 7.925 -24 8 C-21.214 5.214 -17.872 4.232 -14.25 2.875 C-13.546 2.598 -12.842 2.321 -12.117 2.035 C-7.925 0.453 -4.553 -0.329 0 0 Z " fill="#2F379B" transform="translate(728,170)"/>
<path d="M0 0 C0.892 0.111 1.784 0.222 2.703 0.336 C3.379 0.431 4.054 0.527 4.75 0.625 C0.719 4.012 -2.107 4.196 -7.25 4.625 C-7.25 3.965 -7.25 3.305 -7.25 2.625 C-7.91 2.295 -8.57 1.965 -9.25 1.625 C-5.935 -0.404 -3.818 -0.502 0 0 Z " fill="#363EA0" transform="translate(881.25,140.375)"/>
<path d="M0 0 C0.568 0.713 1.137 1.426 1.723 2.16 C7.074 8.834 12.506 15.443 18 22 C10.105 18.509 3.918 10.524 0 3 C0 2.01 0 1.02 0 0 Z " fill="#2C3197" transform="translate(390,455)"/>
<path d="M0 0 C0 3 0 3 -1.75 4.938 C-4 7 -4 7 -6.25 9.062 C-8.335 10.936 -8.335 10.936 -8 14 C-10.312 15.75 -10.312 15.75 -13 17 C-13.99 16.67 -14.98 16.34 -16 16 C-10.72 10.72 -5.44 5.44 0 0 Z " fill="#E1E8FD" transform="translate(633,358)"/>
<path d="M0 0 C0.66 0.33 1.32 0.66 2 1 C-0.64 3.97 -3.28 6.94 -6 10 C-6 9.01 -6 8.02 -6 7 C-9.075 7.776 -9.075 7.776 -11 10 C-11.99 9.67 -12.98 9.34 -14 9 C-2.688 1.385 -2.688 1.385 0 0 Z " fill="#313789" transform="translate(607,207)"/>
<path d="M0 0 C2.809 1.287 4.928 2.659 7.164 4.785 C8.011 5.581 8.011 5.581 8.875 6.393 C9.452 6.944 10.03 7.495 10.625 8.062 C14.493 11.966 14.493 11.966 19 15 C18.67 15.99 18.34 16.98 18 18 C17.273 17.256 17.273 17.256 16.531 16.496 C12.396 12.305 8.176 8.327 3.664 4.543 C2 3 2 3 0 0 Z " fill="#313798" transform="translate(407,586)"/>
<path d="M0 0 C0.33 0 0.66 0 1 0 C2.62 6.077 2.761 12.949 1 19 C0.34 19 -0.32 19 -1 19 C-1.121 12.567 -0.824 6.382 0 0 Z " fill="#3740A7" transform="translate(329,485)"/>
<path d="M0 0 C0.99 0.33 1.98 0.66 3 1 C3.33 1.99 3.66 2.98 4 4 C0.37 7.3 -3.26 10.6 -7 14 C-7 10.44 -6.107 9.721 -4 7 C-4 6.34 -4 5.68 -4 5 C-2.68 5.33 -1.36 5.66 0 6 C0 4.02 0 2.04 0 0 Z " fill="#2F36AA" transform="translate(618,461)"/>
<path d="M0 0 C0.66 0.33 1.32 0.66 2 1 C-6.262 9.631 -6.262 9.631 -11 12 C-10.474 11.103 -10.474 11.103 -9.938 10.188 C-8.667 7.892 -8.667 7.892 -10 5 C-9.169 4.71 -9.169 4.71 -8.32 4.414 C-7.596 4.154 -6.871 3.893 -6.125 3.625 C-5.046 3.242 -5.046 3.242 -3.945 2.852 C-1.818 2.061 -1.818 2.061 0 0 Z " fill="#2E34AB" transform="translate(380,599)"/>
<path d="M0 0 C1 3 1 3 -0.477 6.215 C-1.182 7.462 -1.899 8.703 -2.625 9.938 C-2.969 10.558 -3.313 11.179 -3.668 11.818 C-5.935 15.745 -8.222 18.355 -12 21 C-11.711 20.443 -11.423 19.886 -11.125 19.312 C-9.948 17.008 -9.948 17.008 -9.125 14.5 C-8 12 -8 12 -6.125 10.188 C-3.218 7.195 -1.719 3.767 0 0 Z " fill="#252D8A" transform="translate(643,665)"/>
<path d="M0 0 C0.66 0.33 1.32 0.66 2 1 C2 1.99 2 2.98 2 4 C0.087 4.533 -1.831 5.051 -3.75 5.562 C-4.817 5.853 -5.885 6.143 -6.984 6.441 C-9.843 6.971 -11.316 6.984 -14 6 C-13.157 5.651 -12.314 5.301 -11.445 4.941 C-10.35 4.486 -9.254 4.031 -8.125 3.562 C-7.034 3.11 -5.944 2.658 -4.82 2.191 C-3.194 1.505 -1.579 0.789 0 0 Z " fill="#DCE1FA" transform="translate(601,401)"/>
<path d="M0 0 C0.66 0.33 1.32 0.66 2 1 C-0.051 4.076 -0.722 4.59 -3.914 6.043 C-4.675 6.394 -5.435 6.746 -6.219 7.107 C-7.013 7.464 -7.807 7.82 -8.625 8.188 C-9.427 8.556 -10.229 8.924 -11.055 9.303 C-13.033 10.21 -15.015 11.108 -17 12 C-15.865 8.595 -15.447 8.38 -12.473 6.703 C-11.763 6.302 -11.053 5.901 -10.322 5.488 C-9.577 5.08 -8.831 4.671 -8.062 4.25 C-7.321 3.826 -6.579 3.402 -5.814 2.965 C-1.691 0.669 -1.691 0.669 0 0 Z " fill="#2C3293" transform="translate(666,376)"/>
<path d="M0 0 C1.32 1.32 2.64 2.64 4 4 C3.01 5.32 2.02 6.64 1 8 C-0.65 7.67 -2.3 7.34 -4 7 C-3.024 4.072 -1.892 2.386 0 0 Z " fill="#2D3CBC" transform="translate(732,248)"/>
<path d="M0 0 C1.65 0.33 3.3 0.66 5 1 C1.578 5.705 -2.579 9.277 -7 13 C-7 10 -7 10 -4.625 7.625 C-3.759 6.759 -2.893 5.893 -2 5 C-0.681 2.335 -0.681 2.335 0 0 Z " fill="#2D35A2" transform="translate(748,235)"/>
<path d="M0 0 C2.915 1.074 4.778 1.778 7 4 C6.938 5.875 6.938 5.875 6 8 C3.438 10.25 3.438 10.25 1 12 C0.67 10.68 0.34 9.36 0 8 C0.99 8 1.98 8 3 8 C2.656 5.527 2.656 5.527 2 3 C1.34 2.67 0.68 2.34 0 2 C0 1.34 0 0.68 0 0 Z " fill="#2F38A8" transform="translate(388,581)"/>
<path d="M0 0 C0.66 0.33 1.32 0.66 2 1 C0.446 2.467 -1.119 3.923 -2.688 5.375 C-3.558 6.187 -4.428 6.999 -5.324 7.836 C-7.864 9.89 -9.92 10.99 -13 12 C-12.34 11.01 -11.68 10.02 -11 9 C-10.615 7.345 -10.272 5.678 -10 4 C-9.01 4.66 -8.02 5.32 -7 6 C-4.69 4.02 -2.38 2.04 0 0 Z " fill="#2C349D" transform="translate(795,198)"/>
<path d="M0 0 C0 4.23 -2.357 6.448 -4.875 9.625 C-5.565 10.522 -5.565 10.522 -6.27 11.438 C-9.722 15.861 -9.722 15.861 -12 17 C-10.474 13.532 -8.351 10.741 -6.023 7.781 C-4.668 5.764 -4.668 5.764 -5 2 C-4.361 1.856 -3.721 1.711 -3.062 1.562 C-1.025 1.19 -1.025 1.19 0 0 Z " fill="#252C8D" transform="translate(437,481)"/>
<path d="M0 0 C1.32 0.66 2.64 1.32 4 2 C-1.472 6.019 -6.61 9.638 -13 12 C-13 11.34 -13 10.68 -13 10 C-9.979 8.109 -6.857 6.451 -3.723 4.754 C-0.728 3.227 -0.728 3.227 0 0 Z " fill="#2C339B" transform="translate(604,438)"/>
<path d="M0 0 C0.66 0.33 1.32 0.66 2 1 C1.584 2.212 1.584 2.212 1.16 3.449 C0.798 4.518 0.436 5.586 0.062 6.688 C-0.297 7.743 -0.657 8.799 -1.027 9.887 C-1.872 12.591 -2.509 15.214 -3 18 C-3.66 17.67 -4.32 17.34 -5 17 C-3.588 3.588 -3.588 3.588 0 0 Z " fill="#2C319D" transform="translate(437,291)"/>
<path d="M0 0 C1.65 0 3.3 0 5 0 C6.369 4.517 5.471 7.588 4 12 C3.67 12 3.34 12 3 12 C2.867 11.385 2.734 10.77 2.598 10.137 C2.421 9.328 2.244 8.52 2.062 7.688 C1.888 6.887 1.714 6.086 1.535 5.262 C1.001 2.855 1.001 2.855 0 0 Z " fill="#2A39C2" transform="translate(500,262)"/>
<path d="M0 0 C0.66 0 1.32 0 2 0 C1.523 1.626 1.043 3.251 0.562 4.875 C0.296 5.78 0.029 6.685 -0.246 7.617 C-1 10 -1 10 -2 12 C-1.34 12.33 -0.68 12.66 0 13 C-2.97 15.475 -2.97 15.475 -6 18 C-4 12 -2 6 0 0 Z " fill="#292C82" transform="translate(287,684)"/>
<path d="M0 0 C0 0.99 0 1.98 0 3 C-1.196 2.959 -2.393 2.918 -3.625 2.875 C-7.457 2.862 -10.375 3.739 -14 5 C-17.375 5.125 -17.375 5.125 -20 5 C-13.749 0.833 -7.312 0.494 0 0 Z " fill="#2B35A5" transform="translate(605,405)"/>
<path d="M0 0 C0.33 0 0.66 0 1 0 C1 2.97 1 5.94 1 9 C0.01 8.01 -0.98 7.02 -2 6 C-3.98 7.98 -5.96 9.96 -8 12 C-8.66 11.67 -9.32 11.34 -10 11 C-9.529 10.541 -9.059 10.082 -8.574 9.609 C-5.46 6.54 -2.561 3.557 0 0 Z " fill="#2E3289" transform="translate(578,516)"/>
<path d="M0 0 C-2.235 2.235 -4.024 3.002 -6.938 4.188 C-7.813 4.552 -8.688 4.917 -9.59 5.293 C-12 6 -12 6 -15 5 C-15 4.34 -15 3.68 -15 3 C-13.44 2.491 -11.877 1.993 -10.312 1.5 C-9.442 1.222 -8.572 0.943 -7.676 0.656 C-5.006 0.001 -2.736 -0.118 0 0 Z " fill="#30369E" transform="translate(594,465)"/>
<path d="M0 0 C0 0.99 0 1.98 0 3 C-4.394 3.857 -8.526 4.089 -13 4 C-10.962 1.962 -9.706 1.322 -7.062 0.312 C-6.373 0.041 -5.683 -0.231 -4.973 -0.512 C-3 -1 -3 -1 0 0 Z " fill="#2C3AC7" transform="translate(620,458)"/>
<path d="M0 0 C0.33 0 0.66 0 1 0 C1.544 3.058 2 5.888 2 9 C1.34 9 0.68 9 0 9 C-0.33 11.31 -0.66 13.62 -1 16 C-1.66 16 -2.32 16 -3 16 C-2.41 10.492 -1.433 5.351 0 0 Z " fill="#3842A6" transform="translate(395,359)"/>
<path d="M0 0 C1.182 0.007 1.182 0.007 2.389 0.014 C4.322 0.025 6.255 0.043 8.188 0.062 C8.188 0.393 8.188 0.722 8.188 1.062 C7.261 1.111 6.334 1.16 5.379 1.211 C4.181 1.286 2.984 1.36 1.75 1.438 C-0.042 1.542 -0.042 1.542 -1.871 1.648 C-2.842 1.785 -3.812 1.922 -4.812 2.062 C-5.143 2.722 -5.472 3.383 -5.812 4.062 C-9.187 3.515 -10.895 3.008 -13.812 1.062 C-9.188 -0.115 -4.734 -0.052 0 0 Z " fill="#565EC7" transform="translate(532.8125,513.9375)"/>
<path d="M0 0 C-0.954 1.149 -1.914 2.294 -2.875 3.438 C-3.409 4.076 -3.942 4.714 -4.492 5.371 C-6 7 -6 7 -8 8 C-8.33 6.35 -8.66 4.7 -9 3 C-5.928 0.269 -4.096 -0.341 0 0 Z " fill="#2830A9" transform="translate(499,411)"/>
<path d="M0 0 C0.99 0.33 1.98 0.66 3 1 C-1.667 5.667 -6.333 10.333 -11 15 C-11 12 -11 12 -9.102 9.844 C-8.284 9.07 -7.467 8.297 -6.625 7.5 C-4.048 5.046 -1.981 2.971 0 0 Z " fill="#22298B" transform="translate(550,382)"/>
<path d="M0 0 C2.525 2.525 2.557 4.138 3.125 7.625 C3.293 8.628 3.46 9.631 3.633 10.664 C3.754 11.435 3.875 12.206 4 13 C-2 5.6 -2 5.6 -2 2 C-1.34 2 -0.68 2 0 2 C0 1.34 0 0.68 0 0 Z " fill="#D2D9F7" transform="translate(444,376)"/>
<path d="M0 0 C0.99 0.33 1.98 0.66 3 1 C2.34 2.65 1.68 4.3 1 6 C0.34 6 -0.32 6 -1 6 C-1.66 6.66 -2.32 7.32 -3 8 C-3.66 7.34 -4.32 6.68 -5 6 C-5.99 5.67 -6.98 5.34 -8 5 C-5.808 2.808 -4.885 2.721 -2 2 C-1.34 1.34 -0.68 0.68 0 0 Z " fill="#303AB7" transform="translate(599,213)"/>
<path d="M0 0 C6.002 -0.218 11.192 0.494 17 2 C16.67 2.99 16.34 3.98 16 5 C10.72 3.68 5.44 2.36 0 1 C0 0.67 0 0.34 0 0 Z " fill="#3940A4" transform="translate(426,691)"/>
<path d="M0 0 C-2.475 1.485 -2.475 1.485 -5 3 C-4.67 3.66 -4.34 4.32 -4 5 C-6.97 5.66 -9.94 6.32 -13 7 C-4.849 -1.616 -4.849 -1.616 0 0 Z " fill="#2E3188" transform="translate(296,538)"/>
<path d="M0 0 C2.139 2.139 2.427 3.133 3 6 C-0.153 6.701 -2.727 7 -6 7 C-4.02 4.69 -2.04 2.38 0 0 Z " fill="#2A38C3" transform="translate(335,620)"/>
<path d="M0 0 C1.32 1.32 2.64 2.64 4 4 C1.69 6.31 -0.62 8.62 -3 11 C-3 7.832 -2.372 6.744 -1 4 C-1 3.01 -1 2.02 -1 1 C-0.67 0.67 -0.34 0.34 0 0 Z " fill="#2B35A6" transform="translate(524,378)"/>
<path d="M0 0 C0.33 0.99 0.66 1.98 1 3 C-0.083 3.309 -0.083 3.309 -1.188 3.625 C-4.926 5.452 -6.492 7.704 -9 11 C-9.99 10.67 -10.98 10.34 -12 10 C-10.381 8.327 -8.755 6.662 -7.125 5 C-6.22 4.072 -5.315 3.144 -4.383 2.188 C-2 0 -2 0 0 0 Z " fill="#2E38C9" transform="translate(615,323)"/>
<path d="M0 0 C0.99 0.33 1.98 0.66 3 1 C-1.29 3.97 -5.58 6.94 -10 10 C-10.66 9.67 -11.32 9.34 -12 9 C-12 8.34 -12 7.68 -12 7 C-11.469 6.746 -10.938 6.492 -10.391 6.23 C-5.85 4.022 -5.85 4.022 -1.688 1.188 C-1.131 0.796 -0.574 0.404 0 0 Z " fill="#343A9E" transform="translate(709,229)"/>
<path d="M0 0 C0.66 0.33 1.32 0.66 2 1 C0 4 0 4 -2.688 5.312 C-6.687 7.35 -9.706 9.988 -13 13 C-11.505 9.385 -9.439 7.356 -6.5 4.812 C-5.706 4.118 -4.912 3.423 -4.094 2.707 C-2 1 -2 1 0 0 Z " fill="#22278A" transform="translate(590,218)"/>
<path d="M0 0 C-0.155 2.709 -0.482 4.466 -2.402 6.445 C-3.898 7.677 -5.446 8.843 -7 10 C-6.51 3.51 -6.51 3.51 -4.062 1.062 C-2 0 -2 0 0 0 Z " fill="#323AAB" transform="translate(696,331)"/>
<path d="M0 0 C0.33 1.32 0.66 2.64 1 4 C1.99 4.33 2.98 4.66 4 5 C2.68 7.97 1.36 10.94 0 14 C-0.66 14 -1.32 14 -2 14 C-1.34 9.38 -0.68 4.76 0 0 Z " fill="#D1D8F7" transform="translate(576,266)"/>
<path d="M0 0 C1.98 0 3.96 0 6 0 C1.743 3.887 -4.275 6 -10 6 C-10 5.34 -10 4.68 -10 4 C-9.043 3.818 -9.043 3.818 -8.066 3.633 C-7.24 3.465 -6.414 3.298 -5.562 3.125 C-4.739 2.963 -3.915 2.8 -3.066 2.633 C-2.384 2.424 -1.703 2.215 -1 2 C-0.67 1.34 -0.34 0.68 0 0 Z " fill="#3037A1" transform="translate(596,711)"/>
<path d="M0 0 C1.084 0.253 2.168 0.505 3.285 0.766 C4.16 1.09 5.036 1.415 5.938 1.75 C6.267 2.74 6.598 3.73 6.938 4.75 C4.998 4.299 3.061 3.839 1.125 3.375 C0.046 3.12 -1.033 2.865 -2.145 2.602 C-5.062 1.75 -5.062 1.75 -8.062 -0.25 C-5.105 -1.729 -3.167 -0.77 0 0 Z " fill="#3C42A4" transform="translate(486.0625,572.25)"/>
<path d="M0 0 C0.66 0 1.32 0 2 0 C2 0.66 2 1.32 2 2 C0.219 3.602 -1.625 5.134 -3.5 6.625 C-5.031 7.851 -5.031 7.851 -6.594 9.102 C-7.388 9.728 -8.182 10.355 -9 11 C-9 7.808 -8.764 6.604 -7 4 C-4.5 2.875 -4.5 2.875 -2 2 C-1.34 1.34 -0.68 0.68 0 0 Z " fill="#2D349C" transform="translate(617,297)"/>
<path d="M0 0 C0.773 2.982 1.412 5.976 2 9 C1.01 9.33 0.02 9.66 -1 10 C-2.188 7.25 -2.188 7.25 -3 4 C-1.625 1.625 -1.625 1.625 0 0 Z " fill="#2837C2" transform="translate(585,223)"/>
<path d="M0 0 C1.32 0.66 2.64 1.32 4 2 C4 2.66 4 3.32 4 4 C4.99 4.33 5.98 4.66 7 5 C6.67 5.66 6.34 6.32 6 7 C0.25 6.125 0.25 6.125 -2 5 C-2.33 4.34 -2.66 3.68 -3 3 C-2.01 3 -1.02 3 0 3 C0 2.01 0 1.02 0 0 Z " fill="#2F39C5" transform="translate(462,696)"/>
<path d="M0 0 C0.33 0 0.66 0 1 0 C1.312 2.688 1.312 2.688 1 6 C-1.461 8.927 -3.821 10.881 -7 13 C-5.376 8.276 -2.89 4.058 0 0 Z " fill="#2B339D" transform="translate(586,575)"/>
<path d="M0 0 C0.33 0.66 0.66 1.32 1 2 C1.66 2 2.32 2 3 2 C2.651 5.255 1.979 6.019 -0.562 8.25 C-1.367 8.827 -2.171 9.405 -3 10 C-3.66 9.67 -4.32 9.34 -5 9 C-3.625 7.5 -3.625 7.5 -2 6 C-1.34 6 -0.68 6 0 6 C-0.66 4.35 -1.32 2.7 -2 1 C-1.34 0.67 -0.68 0.34 0 0 Z " fill="#2C36A9" transform="translate(627,418)"/>
<path d="M0 0 C0.823 2.306 1.242 3.48 0.188 5.75 C-0.4 6.864 -0.4 6.864 -1 8 C-1.759 10.65 -2.373 13.314 -3 16 C-3.33 16 -3.66 16 -4 16 C-3.608 10.045 -2.629 5.372 0 0 Z " fill="#283094" transform="translate(515,278)"/>
<path d="M0 0 C0.33 0.66 0.66 1.32 1 2 C-0.145 4.566 -0.145 4.566 -1.812 7.562 C-2.627 9.049 -2.627 9.049 -3.457 10.566 C-5 13 -5 13 -7 14 C-5.432 8.547 -3.962 4.235 0 0 Z " fill="#313BC1" transform="translate(643,663)"/>
<path d="M0 0 C0.66 0.33 1.32 0.66 2 1 C0.667 4.59 -0.894 7.796 -3 11 C-3.33 11 -3.66 11 -4 11 C-4.566 6.186 -2.826 3.797 0 0 Z " fill="#2E38CA" transform="translate(588,228)"/>
<path d="M0 0 C-0.33 0.66 -0.66 1.32 -1 2 C-3.882 2.961 -5.699 3.106 -8.688 3.062 C-9.9 3.049 -9.9 3.049 -11.137 3.035 C-12.059 3.018 -12.059 3.018 -13 3 C-8.831 0.221 -4.898 -1.633 0 0 Z " fill="#3D43A7" transform="translate(766,157)"/>
<path d="M0 0 C-3.3 2.64 -6.6 5.28 -10 8 C-10.66 7.67 -11.32 7.34 -12 7 C-11.361 6.567 -10.721 6.134 -10.062 5.688 C-7.733 4.088 -7.733 4.088 -7 1 C-2.557 -1.278 -2.557 -1.278 0 0 Z " fill="#28309A" transform="translate(358,620)"/>
<path d="M0 0 C2.671 3.839 1.841 7.399 1.125 11.75 C1.021 12.447 0.916 13.145 0.809 13.863 C0.55 15.577 0.277 17.289 0 19 C-0.33 19 -0.66 19 -1 19 C-1.027 16.583 -1.047 14.167 -1.062 11.75 C-1.071 11.068 -1.079 10.386 -1.088 9.684 C-1.104 6.307 -1.056 3.227 0 0 Z " fill="#2D3ACD" transform="translate(445,342)"/>
<path d="M0 0 C0.66 0.66 1.32 1.32 2 2 C0.833 3.167 -0.348 4.32 -1.562 5.438 C-3.245 7.052 -3.245 7.052 -4 10 C-4.99 9.67 -5.98 9.34 -7 9 C-7 8.01 -7 7.02 -7 6 C-6.01 5.67 -5.02 5.34 -4 5 C-2.614 3.377 -1.274 1.713 0 0 Z " fill="#343EC3" transform="translate(425,307)"/>
<path d="M0 0 C0.33 0.66 0.66 1.32 1 2 C0.066 4.031 -0.932 6.035 -2 8 C-2.66 7.34 -3.32 6.68 -4 6 C-6.603 6.32 -6.603 6.32 -9 7 C-6.037 4.613 -3.057 2.265 0 0 Z " fill="#414490" transform="translate(514,246)"/>
<path d="M0 0 C0.66 0.33 1.32 0.66 2 1 C0.375 6.75 0.375 6.75 -3 9 C-3.99 9 -4.98 9 -6 9 C-4.88 5.639 -3.503 4.425 -1 2 C-0.67 1.34 -0.34 0.68 0 0 Z " fill="#323AC5" transform="translate(567,527)"/>
<path d="M0 0 C-2.97 2.97 -5.94 5.94 -9 9 C-9 6 -9 6 -7 3.812 C-6.34 3.214 -5.68 2.616 -5 2 C-5.33 1.34 -5.66 0.68 -6 0 C-4 -1 -4 -1 0 0 Z " fill="#2D328B" transform="translate(564,512)"/>
<path d="M0 0 C0.66 0 1.32 0 2 0 C2.33 1.32 2.66 2.64 3 4 C5.97 4 8.94 4 12 4 C12 4.33 12 4.66 12 5 C7.71 5 3.42 5 -1 5 C-0.67 3.35 -0.34 1.7 0 0 Z " fill="#222BB6" transform="translate(509,504)"/>
<path d="M0 0 C0.66 0 1.32 0 2 0 C0.592 3.215 -1.103 5.322 -3.625 7.75 C-4.572 8.67 -4.572 8.67 -5.539 9.609 C-6.262 10.298 -6.262 10.298 -7 11 C-7 8 -7 8 -5.562 6.5 C-5.047 6.005 -4.531 5.51 -4 5 C-3.67 4.01 -3.34 3.02 -3 2 C-2.01 2 -1.02 2 0 2 C0 1.34 0 0.68 0 0 Z " fill="#2C3290" transform="translate(652,335)"/>
<path d="M0 0 C0.99 0 1.98 0 3 0 C3 3.63 3 7.26 3 11 C2.34 11 1.68 11 1 11 C0.67 7.37 0.34 3.74 0 0 Z " fill="#B5BDF5" transform="translate(504,312)"/>
<path d="M0 0 C0.66 0.33 1.32 0.66 2 1 C0.02 3.31 -1.96 5.62 -4 8 C-4.99 7.67 -5.98 7.34 -7 7 C-2.25 1.125 -2.25 1.125 0 0 Z " fill="#363DA4" transform="translate(481,272)"/>
<path d="M0 0 C0.33 2.31 0.66 4.62 1 7 C0.01 7 -0.98 7 -2 7 C-2.33 6.01 -2.66 5.02 -3 4 C-3.99 4 -4.98 4 -6 4 C-2.25 0 -2.25 0 0 0 Z " fill="#202FA9" transform="translate(548,233)"/>
<path d="M0 0 C-0.33 1.32 -0.66 2.64 -1 4 C-3.875 4.125 -3.875 4.125 -7 4 C-7.66 3.34 -8.32 2.68 -9 2 C-5.629 0.502 -3.796 0 0 0 Z " fill="#2D35C9" transform="translate(710,178)"/>
<path d="M0 0 C4.318 0.508 8.033 1.197 12 3 C12 3.33 12 3.66 12 4 C4.615 4.492 4.615 4.492 1.5 2 C1.005 1.34 0.51 0.68 0 0 Z " fill="#232C99" transform="translate(473,685)"/>
<path d="M0 0 C0.66 0.33 1.32 0.66 2 1 C-0.97 3.64 -3.94 6.28 -7 9 C-7.66 8.67 -8.32 8.34 -9 8 C-7.436 4.873 -6.586 3.279 -3.375 1.75 C-2.591 1.503 -1.808 1.255 -1 1 C-0.67 0.67 -0.34 0.34 0 0 Z " fill="#242C91" transform="translate(299,684)"/>
<path d="M0 0 C1.32 0.66 2.64 1.32 4 2 C2.35 3.65 0.7 5.3 -1 7 C-1.625 5.188 -1.625 5.188 -2 3 C-1.34 2.01 -0.68 1.02 0 0 Z " fill="#2A39CC" transform="translate(320,685)"/>
<path d="M0 0 C1 3 1 3 -0.25 5.625 C-2 8 -2 8 -5 9 C-3.751 5.541 -2.325 2.853 0 0 Z M-6 9 C-6 9.99 -6 10.98 -6 12 C-6.99 12.495 -6.99 12.495 -8 13 C-7.34 11.68 -6.68 10.36 -6 9 Z " fill="#E8EEFB" transform="translate(426,497)"/>
<path d="M0 0 C0.99 1.32 1.98 2.64 3 4 C0.69 5.98 -1.62 7.96 -4 10 C-3.67 8.02 -3.34 6.04 -3 4 C-2.01 4.33 -1.02 4.66 0 5 C0 3.35 0 1.7 0 0 Z " fill="#333CA8" transform="translate(626,454)"/>
<path d="M0 0 C0.66 0.33 1.32 0.66 2 1 C0.691 2.503 -0.622 4.002 -1.938 5.5 C-2.668 6.335 -3.399 7.171 -4.152 8.031 C-4.762 8.681 -5.372 9.331 -6 10 C-6.33 10 -6.66 10 -7 10 C-7.312 7.688 -7.312 7.688 -7 5 C-4.625 3.312 -4.625 3.312 -2 2 C-1.34 1.34 -0.68 0.68 0 0 Z " fill="#2C339B" transform="translate(652,397)"/>
<path d="M0 0 C1.65 0 3.3 0 5 0 C2.422 2.648 0.084 4.944 -3 7 C-3.66 6.01 -4.32 5.02 -5 4 C-4.041 3.845 -4.041 3.845 -3.062 3.688 C-2.382 3.461 -1.701 3.234 -1 3 C-0.67 2.01 -0.34 1.02 0 0 Z " fill="#2934A2" transform="translate(657,365)"/>
<path d="M0 0 C-0.188 1.875 -0.188 1.875 -1 4 C-4.199 5.688 -7.451 6.392 -11 7 C-8.217 3.908 -4.31 0 0 0 Z " fill="#2E39C8" transform="translate(679,343)"/>
<path d="M0 0 C0.66 0.99 1.32 1.98 2 3 C2.66 3.33 3.32 3.66 4 4 C3.649 4.619 3.299 5.238 2.938 5.875 C2.628 6.576 2.319 7.278 2 8 C2.33 8.66 2.66 9.32 3 10 C1.68 9.67 0.36 9.34 -1 9 C-0.67 6.03 -0.34 3.06 0 0 Z " fill="#2736C6" transform="translate(543,239)"/>
<path d="M0 0 C-1 3 -1 3 -4.312 4.75 C-7.937 5.978 -8.626 6.102 -12 5 C-10.378 4.162 -8.752 3.33 -7.125 2.5 C-6.22 2.036 -5.315 1.572 -4.383 1.094 C-2 0 -2 0 0 0 Z " fill="#333BA0" transform="translate(798,188)"/>
<path d="M0 0 C0.66 0.33 1.32 0.66 2 1 C-0.64 2.98 -3.28 4.96 -6 7 C-6.66 6.67 -7.32 6.34 -8 6 C-5.541 3.365 -3.422 1.255 0 0 Z " fill="#353A7B" transform="translate(830,171)"/>
<path d="M0 0 C0.66 0 1.32 0 2 0 C2.33 1.32 2.66 2.64 3 4 C0.36 4.99 -2.28 5.98 -5 7 C-4.67 6.01 -4.34 5.02 -4 4 C-3.34 4 -2.68 4 -2 4 C-1.34 2.68 -0.68 1.36 0 0 Z " fill="#2936C8" transform="translate(823,161)"/>
<path d="M0 0 C0.33 0.99 0.66 1.98 1 3 C-1.972 4.899 -4.515 6.355 -8 7 C-3.375 1.125 -3.375 1.125 0 0 Z " fill="#3239AD" transform="translate(305,660)"/>
<path d="M0 0 C0.33 0.99 0.66 1.98 1 3 C-1.312 6.188 -1.312 6.188 -4 9 C-4.66 9 -5.32 9 -6 9 C-5.528 4.752 -3.033 2.8 0 0 Z " fill="#2C36C6" transform="translate(342,613)"/>
<path d="M0 0 C1.63 0.014 1.63 0.014 3.293 0.027 C4.124 0.039 4.956 0.051 5.812 0.062 C5.812 0.392 5.812 0.723 5.812 1.062 C3.878 1.452 1.94 1.824 0 2.188 C-1.079 2.396 -2.158 2.605 -3.27 2.82 C-6.188 3.062 -6.188 3.062 -9.188 1.062 C-5.902 -0.033 -3.451 -0.037 0 0 Z " fill="#1B27A3" transform="translate(538.1875,473.9375)"/>
<path d="M0 0 C0.33 0.99 0.66 1.98 1 3 C-0.65 4.65 -2.3 6.3 -4 8 C-4.99 7.67 -5.98 7.34 -7 7 C-4.69 4.69 -2.38 2.38 0 0 Z " fill="#3A41A1" transform="translate(558,374)"/>
<path d="M0 0 C2.062 0.438 2.062 0.438 4 1 C2.557 4.366 0.667 6.51 -2 9 C-2.66 8.67 -3.32 8.34 -4 8 C-2.35 6.02 -0.7 4.04 1 2 C0.34 1.67 -0.32 1.34 -1 1 C-0.67 0.67 -0.34 0.34 0 0 Z " fill="#242E99" transform="translate(531,372)"/>
<path d="M0 0 C0.66 0.33 1.32 0.66 2 1 C2 2.32 2 3.64 2 5 C-0.31 5.33 -2.62 5.66 -5 6 C-3.35 4.02 -1.7 2.04 0 0 Z " fill="#2737CA" transform="translate(676,346)"/>
<path d="M0 0 C0 3.589 -0.664 4.109 -3 6.688 C-3.557 7.31 -4.114 7.933 -4.688 8.574 C-5.121 9.045 -5.554 9.515 -6 10 C-6.66 9.67 -7.32 9.34 -8 9 C-5.899 5.018 -3.631 2.65 0 0 Z " fill="#2F3373" transform="translate(705,321)"/>
<path d="M0 0 C0.66 0.33 1.32 0.66 2 1 C1.382 2.316 0.756 3.628 0.125 4.938 C-0.223 5.668 -0.571 6.399 -0.93 7.152 C-2 9 -2 9 -4 10 C-4.412 6.397 -4.154 5.216 -2 2.188 C-1.34 1.466 -0.68 0.744 0 0 Z " fill="#2D36A2" transform="translate(417,315)"/>
<path d="M0 0 C2.64 0 5.28 0 8 0 C8.33 0.99 8.66 1.98 9 3 C6.03 2.67 3.06 2.34 0 2 C0 1.34 0 0.68 0 0 Z " fill="#3B41A0" transform="translate(413,687)"/>
<path d="M0 0 C-4.019 1.812 -7.611 3.335 -12 4 C-8.664 0.138 -4.986 -1.847 0 0 Z " fill="#252B93" transform="translate(346,673)"/>
<path d="M0 0 C1.98 0.66 3.96 1.32 6 2 C5.34 3.32 4.68 4.64 4 6 C2.35 5.01 0.7 4.02 -1 3 C-0.67 2.01 -0.34 1.02 0 0 Z " fill="#2B37CD" transform="translate(373,556)"/>
<path d="M0 0 C0.99 0.33 1.98 0.66 3 1 C2.34 3.31 1.68 5.62 1 8 C0.34 8 -0.32 8 -1 8 C-1.625 5.125 -1.625 5.125 -2 2 C-1.34 1.34 -0.68 0.68 0 0 Z " fill="#2330B4" transform="translate(485,455)"/>
<path d="M0 0 C0.66 0.33 1.32 0.66 2 1 C-0.31 3.64 -2.62 6.28 -5 9 C-5.33 8.34 -5.66 7.68 -6 7 C-4.785 3.576 -2.982 1.988 0 0 Z " fill="#2E2F7A" transform="translate(638,443)"/>
<path d="M0 0 C0.99 0 1.98 0 3 0 C1.607 3.367 0.021 4.986 -3 7 C-2.25 2.25 -2.25 2.25 0 0 Z " fill="#363DA7" transform="translate(684,300)"/>
<path d="M0 0 C0.66 0.33 1.32 0.66 2 1 C-1.173 4.536 -3.167 6.586 -8 7 C-5.422 4.352 -3.084 2.056 0 0 Z " fill="#2B38C2" transform="translate(645,295)"/>
<path d="M0 0 C0.33 0.66 0.66 1.32 1 2 C-0.98 4.31 -2.96 6.62 -5 9 C-5.66 8.67 -6.32 8.34 -7 8 C-6.288 7.381 -6.288 7.381 -5.562 6.75 C-3.847 5.109 -3.847 5.109 -3.5 2.875 C-3.335 2.256 -3.17 1.637 -3 1 C-2.01 0.67 -1.02 0.34 0 0 Z " fill="#2C38BC" transform="translate(595,251)"/>
<path d="M0 0 C0.99 0 1.98 0 3 0 C2.688 2.375 2.688 2.375 2 5 C0.515 5.99 0.515 5.99 -1 7 C-1.043 5 -1.041 3 -1 1 C-0.67 0.67 -0.34 0.34 0 0 Z " fill="#323AB7" transform="translate(737,245)"/>
<path d="M0 0 C0.66 1.32 1.32 2.64 2 4 C0.715 4.864 -0.578 5.716 -1.875 6.562 C-2.594 7.038 -3.314 7.514 -4.055 8.004 C-4.697 8.333 -5.339 8.661 -6 9 C-6.66 8.67 -7.32 8.34 -8 8 C-7.506 7.674 -7.013 7.348 -6.504 7.012 C-5.863 6.575 -5.223 6.138 -4.562 5.688 C-3.924 5.258 -3.286 4.829 -2.629 4.387 C-0.711 2.997 -0.711 2.997 0 0 Z " fill="#313AC0" transform="translate(716,237)"/>
<path d="M0 0 C1.65 0 3.3 0 5 0 C2.333 2.667 -0.333 5.333 -3 8 C-3.66 7.67 -4.32 7.34 -5 7 C-4.041 6.103 -4.041 6.103 -3.062 5.188 C-0.797 3.092 -0.797 3.092 0 0 Z " fill="#293097" transform="translate(757,228)"/>
<path d="M0 0 C0.66 0.33 1.32 0.66 2 1 C1.436 4.27 0.5 5.826 -2 8 C-2 6.68 -2 5.36 -2 4 C-2.66 3.67 -3.32 3.34 -4 3 C-2.68 2.01 -1.36 1.02 0 0 Z " fill="#2C33AE" transform="translate(559,225)"/>
<path d="M0 0 C-0.33 0.66 -0.66 1.32 -1 2 C-1.99 2.33 -2.98 2.66 -4 3 C-4.33 3.66 -4.66 4.32 -5 5 C-6.65 5 -8.3 5 -10 5 C-6.743 1.588 -4.941 0 0 0 Z M-12 5 C-10 6 -10 6 -10 6 Z " fill="#2B3AC5" transform="translate(750,219)"/>
<path d="M0 0 C1 3 1 3 -0.312 5.688 C-0.869 6.451 -1.426 7.214 -2 8 C-2.66 8 -3.32 8 -4 8 C-4.33 7.01 -4.66 6.02 -5 5 C-3.35 3.35 -1.7 1.7 0 0 Z " fill="#303ACC" transform="translate(638,669)"/>
<path d="M0 0 C0.99 0 1.98 0 3 0 C3 0.99 3 1.98 3 3 C3.66 3.33 4.32 3.66 5 4 C1.867 5.044 1.01 4.934 -2 4 C-1.34 2.68 -0.68 1.36 0 0 Z " fill="#2937C3" transform="translate(547,634)"/>
<path d="M0 0 C4.8 2.462 4.8 2.462 5.812 5.188 C5.874 5.786 5.936 6.384 6 7 C4.35 6.67 2.7 6.34 1 6 C1 5.34 1 4.68 1 4 C0.34 3.34 -0.32 2.68 -1 2 C-0.67 1.34 -0.34 0.68 0 0 Z " fill="#3C45C0" transform="translate(477,633)"/>
<path d="M0 0 C1.98 0.66 3.96 1.32 6 2 C5.67 2.99 5.34 3.98 5 5 C4.237 4.835 3.474 4.67 2.688 4.5 C-0.036 3.909 -0.036 3.909 -3 4 C-2.01 2.68 -1.02 1.36 0 0 Z " fill="#2837C4" transform="translate(373,553)"/>
<path d="M0 0 C2.508 2.508 3.614 3.908 5 7 C4.01 8.32 3.02 9.64 2 11 C1.34 7.37 0.68 3.74 0 0 Z " fill="#3F4183" transform="translate(588,522)"/>
<path d="M0 0 C1.32 0.33 2.64 0.66 4 1 C4 1.66 4 2.32 4 3 C4.66 3.33 5.32 3.66 6 4 C5.67 4.66 5.34 5.32 5 6 C3.68 5.67 2.36 5.34 1 5 C0.67 3.35 0.34 1.7 0 0 Z " fill="#2935C9" transform="translate(409,513)"/>
<path d="M0 0 C0 0.66 0 1.32 0 2 C-2.97 2 -5.94 2 -9 2 C-8 0 -8 0 -6.188 -0.688 C-3.812 -1.027 -2.267 -0.729 0 0 Z " fill="#C0C8F0" transform="translate(541,472)"/>
<path d="M0 0 C-1.65 1.32 -3.3 2.64 -5 4 C-5.99 3.01 -6.98 2.02 -8 1 C-4.933 -0.862 -3.403 -1.215 0 0 Z " fill="#3340C5" transform="translate(493,453)"/>
<path d="M0 0 C2.475 0.99 2.475 0.99 5 2 C3.35 3.65 1.7 5.3 0 7 C-1.125 2.25 -1.125 2.25 0 0 Z " fill="#2D3BC7" transform="translate(674,305)"/>
<path d="M0 0 C0.562 1.938 0.562 1.938 1 4 C0 5 0 5 -2.562 5.062 C-3.769 5.032 -3.769 5.032 -5 5 C-4.625 3.062 -4.625 3.062 -4 1 C-2 0 -2 0 0 0 Z " fill="#2938C5" transform="translate(584,236)"/>
<path d="M0 0 C1.98 0 3.96 0 6 0 C6 1.32 6 2.64 6 4 C4.02 3.34 2.04 2.68 0 2 C0 1.34 0 0.68 0 0 Z " fill="#2B36CE" transform="translate(762,218)"/>
<path d="M0 0 C2 2 2 2 3 5 C1.35 5.33 -0.3 5.66 -2 6 C-2 4.35 -2 2.7 -2 1 C-1.34 0.67 -0.68 0.34 0 0 Z " fill="#2E3BBF" transform="translate(431,576)"/>
<path d="M0 0 C-4.308 3.938 -4.308 3.938 -7.812 4.25 C-8.534 4.168 -9.256 4.085 -10 4 C-6.661 0.509 -4.847 -0.128 0 0 Z " fill="#282E97" transform="translate(310,531)"/>
<path d="M0 0 C1 4 1 4 0 6 C-3.062 6.625 -3.062 6.625 -6 7 C-4.02 4.69 -2.04 2.38 0 0 Z " fill="#3F44A7" transform="translate(565,367)"/>
<path d="M0 0 C0.99 0.33 1.98 0.66 3 1 C3.33 1.99 3.66 2.98 4 4 C2.35 4.33 0.7 4.66 -1 5 C-1.33 3.68 -1.66 2.36 -2 1 C-1.34 0.67 -0.68 0.34 0 0 Z " fill="#313AC4" transform="translate(660,361)"/>
<path d="M0 0 C0.66 0.33 1.32 0.66 2 1 C-0.64 3.64 -3.28 6.28 -6 9 C-6.66 8.34 -7.32 7.68 -8 7 C-5.36 4.69 -2.72 2.38 0 0 Z " fill="#E0E6F9" transform="translate(673,356)"/>
<path d="M0 0 C0.66 0.33 1.32 0.66 2 1 C-1.465 3.97 -1.465 3.97 -5 7 C-5.66 6.67 -6.32 6.34 -7 6 C-3.375 1.125 -3.375 1.125 0 0 Z " fill="#262E9A" transform="translate(637,281)"/>
<path d="M0 0 C0.33 1.32 0.66 2.64 1 4 C0.381 4.289 -0.238 4.577 -0.875 4.875 C-3.133 5.937 -3.133 5.937 -5 8 C-5.66 7.34 -6.32 6.68 -7 6 C-4.69 4.02 -2.38 2.04 0 0 Z " fill="#2C3BCB" transform="translate(494,262)"/>
<path d="M0 0 C2.475 0.99 2.475 0.99 5 2 C3.71 3.376 2.373 4.708 1 6 C0.34 6 -0.32 6 -1 6 C-0.67 4.02 -0.34 2.04 0 0 Z " fill="#2A36C4" transform="translate(729,211)"/>
<path d="M0 0 C0.99 0.33 1.98 0.66 3 1 C-0.625 6.75 -0.625 6.75 -4 9 C-3.711 8.443 -3.423 7.886 -3.125 7.312 C-1.959 4.915 -0.966 2.484 0 0 Z " fill="#2F359A" transform="translate(635,677)"/>
<path d="M0 0 C0.66 0.33 1.32 0.66 2 1 C0.68 2.65 -0.64 4.3 -2 6 C-3.32 5.67 -4.64 5.34 -6 5 C-4.02 3.35 -2.04 1.7 0 0 Z " fill="#1F2794" transform="translate(320,631)"/>
<path d="M0 0 C0.66 0.33 1.32 0.66 2 1 C-0.97 3.475 -0.97 3.475 -4 6 C-4.66 5.67 -5.32 5.34 -6 5 C-6 4.01 -6 3.02 -6 2 C-4.793 1.783 -4.793 1.783 -3.562 1.562 C-1.079 1.259 -1.079 1.259 0 0 Z " fill="#252E9D" transform="translate(366,611)"/>
<path d="M0 0 C2.915 1.074 4.778 1.778 7 4 C7 4.99 7 5.98 7 7 C5 7 5 7 2.375 4.625 C0 2 0 2 0 0 Z " fill="#282E8E" transform="translate(388,581)"/>
<path d="M0 0 C0.66 0.33 1.32 0.66 2 1 C0.02 2.98 -1.96 4.96 -4 7 C-4.99 6.67 -5.98 6.34 -7 6 C-4.69 4.02 -2.38 2.04 0 0 Z " fill="#2A3ACC" transform="translate(497,445)"/>
<path d="M0 0 C0.66 0.33 1.32 0.66 2 1 C-0.354 4.923 -2.645 5.839 -7 7 C-4.781 4.092 -3.07 2.047 0 0 Z " fill="#222B93" transform="translate(680,264)"/>
<path d="M0 0 C0.99 0.33 1.98 0.66 3 1 C2.67 1.99 2.34 2.98 2 4 C-0.562 5.188 -0.562 5.188 -3 6 C-1.125 1.125 -1.125 1.125 0 0 Z " fill="#2A38CE" transform="translate(660,259)"/>
<path d="M0 0 C0.66 0.33 1.32 0.66 2 1 C-1.465 3.97 -1.465 3.97 -5 7 C-5.33 5.68 -5.66 4.36 -6 3 C-5.196 2.691 -4.391 2.381 -3.562 2.062 C-1.109 1.237 -1.109 1.237 0 0 Z " fill="#272C9A" transform="translate(380,599)"/>
<path d="M0 0 C0.33 0.66 0.66 1.32 1 2 C1.66 2 2.32 2 3 2 C2.67 3.98 2.34 5.96 2 8 C1.34 7.67 0.68 7.34 0 7 C0 4.69 0 2.38 0 0 Z " fill="#2D39D1" transform="translate(595,542)"/>
<path d="M0 0 C0.99 0.99 1.98 1.98 3 3 C2.01 3.99 1.02 4.98 0 6 C-0.99 5.34 -1.98 4.68 -3 4 C-2.01 2.68 -1.02 1.36 0 0 Z " fill="#2636C8" transform="translate(461,489)"/>
<path d="M0 0 C0 3 0 3 -2 5.188 C-2.66 5.786 -3.32 6.384 -4 7 C-4.33 5.35 -4.66 3.7 -5 2 C-4.361 1.856 -3.721 1.711 -3.062 1.562 C-1.025 1.19 -1.025 1.19 0 0 Z " fill="#2E34A2" transform="translate(437,481)"/>
<path d="M0 0 C0.66 0.33 1.32 0.66 2 1 C1.34 2.98 0.68 4.96 0 7 C-0.99 7 -1.98 7 -3 7 C-2.25 2.25 -2.25 2.25 0 0 Z " fill="#2E3ACF" transform="translate(366,389)"/>
<path d="M0 0 C0.688 1.812 0.688 1.812 1 4 C-0.438 5.75 -0.438 5.75 -2 7 C-2.99 6.34 -3.98 5.68 -5 5 C-3.35 3.35 -1.7 1.7 0 0 Z " fill="#2C38C6" transform="translate(548,387)"/>
<path d="M0 0 C0.66 0.33 1.32 0.66 2 1 C0.515 4.465 0.515 4.465 -1 8 C-1.66 6.68 -2.32 5.36 -3 4 C-2.01 2.68 -1.02 1.36 0 0 Z " fill="#3B3C7D" transform="translate(437,291)"/>
<path d="M0 0 C0.33 0 0.66 0 1 0 C1 2.31 1 4.62 1 7 C-0.32 7.33 -1.64 7.66 -3 8 C-2.453 4.625 -1.945 2.918 0 0 Z " fill="#2836C5" transform="translate(562,248)"/>
<path d="M0 0 C1.32 1.32 2.64 2.64 4 4 C3.34 4.66 2.68 5.32 2 6 C1.01 5.34 0.02 4.68 -1 4 C-0.67 2.68 -0.34 1.36 0 0 Z " fill="#333EC5" transform="translate(732,248)"/>
<path d="M0 0 C0.66 0.33 1.32 0.66 2 1 C-2.75 5.875 -2.75 5.875 -5 7 C-5 6.34 -5 5.68 -5 5 C-5.66 4.67 -6.32 4.34 -7 4 C-1.727 0.777 -1.727 0.777 0 0 Z " fill="#4D4C82" transform="translate(568,218)"/>
<path d="M0 0 C0.66 0.33 1.32 0.66 2 1 C2 1.99 2 2.98 2 4 C0.02 4.99 0.02 4.99 -2 6 C-2 5.01 -2 4.02 -2 3 C-2.66 2.67 -3.32 2.34 -4 2 C-2.125 0.938 -2.125 0.938 0 0 Z " fill="#2936C5" transform="translate(660,200)"/>
</svg>